<svg width="518" height="559" viewBox="0 0 518 559" fill="none" xmlns="http://www.w3.org/2000/svg">
<path d="M14.608 25.104L16.24 6.544C16.368 4.912 17.68 3.6 19.44 3.6C21.2 3.6 22.288 4.72 22.768 6.064L27.056 17.36L31.344 6.064C31.824 4.72 32.912 3.6 34.672 3.6C36.432 3.6 37.744 4.912 37.904 6.544L39.504 25.104C39.568 25.616 39.216 26 38.736 26H34.992C34.512 26 34.064 25.616 34.032 25.104L33.2 13.808L29.232 24.816C28.88 25.84 28.432 26.128 27.056 26.128C25.744 26.128 25.264 25.84 24.88 24.816L20.912 13.808L20.08 25.104C20.048 25.616 19.6 26 19.12 26H15.408C14.928 26 14.544 25.616 14.608 25.104ZM58.717 11.984V25.264C58.717 25.68 58.365 26.032 57.949 26.032H54.237C53.853 26.032 53.469 25.68 53.469 25.264V24.4C52.221 25.712 50.525 26.448 48.541 26.448C44.221 26.448 41.149 22.896 41.149 17.872C41.149 12.88 44.221 9.328 48.541 9.328C50.589 9.328 52.413 10.096 53.597 11.44C53.789 10.224 54.749 9.392 56.093 9.392C57.533 9.392 58.717 10.544 58.717 11.984ZM53.565 17.872C53.565 15.568 52.061 13.936 49.949 13.936C47.805 13.936 46.269 15.568 46.269 17.872C46.269 20.208 47.805 21.808 49.949 21.808C52.061 21.808 53.565 20.208 53.565 17.872ZM69.0583 9.36H69.9863C71.2983 9.36 72.3223 10.416 72.3223 11.728C72.3223 13.04 71.2663 14.096 69.9863 14.096H69.3142C67.3303 14.096 66.3383 15.408 66.3383 17.264V25.232C66.3383 25.648 65.9863 26 65.6023 26H61.8903C61.4743 26 61.1223 25.648 61.1223 25.232V16.912C61.1223 12.464 64.0343 9.36 69.0583 9.36ZM73.5553 17.872C73.5553 12.88 77.1713 9.328 82.3233 9.328C84.3073 9.328 88.5953 10.064 88.5953 12.752C88.5953 13.968 87.5713 15.024 86.2273 15.024C85.7473 15.024 85.1713 14.896 84.5953 14.544C83.8273 14.096 83.1553 13.936 82.3233 13.936C80.2113 13.936 78.6753 15.568 78.6753 17.872C78.6753 20.176 80.2113 21.808 82.3233 21.808C83.1553 21.808 83.8593 21.648 84.5953 21.2C85.1713 20.848 85.7473 20.72 86.2273 20.72C87.5713 20.72 88.5953 21.776 88.5953 22.992C88.5953 25.68 84.3073 26.416 82.3233 26.416C77.1713 26.416 73.5553 22.864 73.5553 17.872ZM101.031 25.232V16.88C101.031 15.088 99.8793 13.84 98.2473 13.84C96.6153 13.84 95.4633 15.088 95.4633 16.88V25.232C95.4633 25.648 95.1113 26 94.7273 26H91.0153C90.5993 26 90.2473 25.648 90.2473 25.232V5.584C90.2473 4.144 91.4313 2.992 92.9033 2.992C94.3113 2.992 95.4633 4.144 95.4633 5.584V11.184C96.6153 10 98.2153 9.328 100.103 9.328C103.719 9.328 106.247 12.08 106.247 16.048V25.232C106.247 25.648 105.895 26 105.479 26H101.799C101.383 26 101.031 25.648 101.031 25.232ZM108.593 23.568C108.593 21.968 109.873 20.688 111.473 20.688C113.169 20.688 114.321 21.936 114.321 23.504C114.321 26.448 112.433 29.456 109.361 30.032C108.209 30.224 107.601 28.624 109.009 28.08C109.905 27.76 110.449 27.056 110.673 26.32C109.457 25.968 108.593 24.88 108.593 23.568ZM132.982 10.256C132.982 9.072 131.99 8.208 130.614 8.208C129.558 8.208 128.534 8.528 127.766 9.2C126.998 9.84 126.07 10.416 125.11 10.416C124.694 10.416 124.246 10.288 123.798 10.032C122.294 9.168 122.198 6.576 124.534 5.04C126.006 3.792 128.374 3.088 130.774 3.088C135.51 3.088 138.646 5.84 138.646 9.776C138.646 12.208 137.59 14.16 134.646 16.784L130.518 20.624H136.79C138.23 20.624 139.382 21.808 139.382 23.28C139.382 24.784 138.23 26 136.79 26H125.206C123.478 26 122.422 24.944 122.422 23.28C122.422 22.384 122.934 21.36 124.118 20.208L131.542 13.168C132.598 12.144 132.982 11.248 132.982 10.256ZM151.23 26.48C145.406 26.48 141.342 21.648 141.342 14.768C141.342 7.92 145.406 3.088 151.23 3.088C157.054 3.088 161.15 7.92 161.15 14.768C161.15 21.648 157.054 26.48 151.23 26.48ZM151.23 21.136C153.63 21.136 155.326 18.512 155.326 14.768C155.326 11.056 153.63 8.432 151.23 8.432C148.862 8.432 147.166 11.056 147.166 14.768C147.166 18.512 148.862 21.136 151.23 21.136ZM173.638 10.256C173.638 9.072 172.646 8.208 171.27 8.208C170.214 8.208 169.19 8.528 168.422 9.2C167.654 9.84 166.726 10.416 165.766 10.416C165.35 10.416 164.902 10.288 164.454 10.032C162.95 9.168 162.854 6.576 165.19 5.04C166.662 3.792 169.03 3.088 171.43 3.088C176.166 3.088 179.302 5.84 179.302 9.776C179.302 12.208 178.246 14.16 175.302 16.784L171.174 20.624H177.446C178.886 20.624 180.038 21.808 180.038 23.28C180.038 24.784 178.886 26 177.446 26H165.862C164.134 26 163.078 24.944 163.078 23.28C163.078 22.384 163.59 21.36 164.774 20.208L172.198 13.168C173.254 12.144 173.638 11.248 173.638 10.256ZM188.302 11.472H189.422C194.862 11.472 198.35 14.384 198.35 18.896C198.35 22.864 195.438 26.512 189.774 26.512C187.374 26.512 185.006 25.808 183.534 24.56C181.198 23.024 181.294 20.432 182.798 19.568C183.246 19.312 183.694 19.184 184.142 19.184C185.07 19.184 185.902 19.728 186.51 20.176C187.534 21.072 188.558 21.392 189.614 21.392C191.63 21.392 192.558 20.048 192.558 18.64C192.558 16.752 190.99 15.888 189.198 15.888H185.038C183.79 15.888 182.798 14.896 182.798 13.616V6.256C182.798 4.752 184.014 3.6 185.454 3.6H194.574C195.982 3.6 197.134 4.752 197.134 6.192C197.134 7.664 195.982 8.784 194.574 8.784H188.302V11.472Z" fill="black"/>
<g filter="url(#filter0_d_2011_1340)">
<rect x="14" y="56" width="480" height="480" fill="#F4F3F3"/>
</g>
<rect x="14" y="56" width="480" height="62" fill="#FF6B6B"/>
<path d="M58.472 74.088C60.84 74.088 63.144 74.664 64.84 76.008C66.088 76.968 66.088 78.472 65.288 79.048C65 79.272 64.68 79.368 64.328 79.368C63.752 79.368 63.144 79.048 62.504 78.568C61.416 77.704 59.912 77.384 58.472 77.384C55.464 77.384 54.12 78.952 54.12 80.552C54.12 85.608 66.632 82.408 66.632 90.728C66.632 94.12 63.944 97.512 58.504 97.512C55.56 97.512 53.064 96.552 51.016 94.888C49.768 93.896 49.768 92.392 50.536 91.816C50.856 91.592 51.176 91.496 51.496 91.496C52.104 91.496 52.712 91.816 53.352 92.328C54.792 93.512 56.488 94.216 58.504 94.216C61.576 94.216 63.08 92.488 63.08 90.728C63.08 85.704 50.568 89.224 50.568 80.552C50.568 77.32 53.064 74.088 58.472 74.088Z" fill="white"/>
<path d="M111.864 96.488L113.656 76.36C113.72 75.368 114.456 74.6 115.576 74.6C116.728 74.6 117.464 75.336 117.72 76.04L123.864 91.752L129.944 76.04C130.232 75.336 130.936 74.6 132.088 74.6C133.24 74.6 133.944 75.368 134.04 76.36L135.8 96.488C135.832 96.776 135.608 97 135.32 97H132.824C132.536 97 132.28 96.776 132.248 96.488L131.096 81.608L125.624 95.944C125.304 96.744 125.144 97.064 123.864 97.064C122.584 97.064 122.392 96.744 122.104 95.944L116.568 81.608L115.416 96.488C115.416 96.776 115.128 97 114.84 97H112.344C112.056 97 111.864 96.776 111.864 96.488Z" fill="white"/>
<path d="M196.608 77.96H191.232V96.488C191.232 96.776 190.976 97 190.688 97H188.192C187.904 97 187.68 96.776 187.68 96.488V77.96H182.336C181.408 77.96 180.64 77.224 180.64 76.264C180.64 75.336 181.408 74.6 182.336 74.6H196.608C197.536 74.6 198.272 75.336 198.272 76.264C198.272 77.224 197.536 77.96 196.608 77.96Z" fill="white"/>
<path d="M247.92 96.072L242.544 76.744C242.288 75.816 242.864 74.856 243.824 74.6C243.984 74.536 244.144 74.536 244.304 74.536C245.072 74.536 245.776 75.048 245.968 75.848L250.256 91.88L254.512 75.848C254.768 74.92 255.184 74.568 256.592 74.568C258.032 74.568 258.448 74.92 258.672 75.848L262.96 91.88L267.216 75.848C267.44 75.048 268.112 74.536 268.88 74.536C269.04 74.536 269.232 74.536 269.392 74.6C270.32 74.856 270.896 75.784 270.64 76.744L265.264 96.072C265.104 96.648 264.752 97 264.336 97H261.552C261.136 97 260.752 96.648 260.624 96.072L256.592 81.288L252.592 96.072C252.432 96.648 252.08 97 251.632 97H248.848C248.432 97 248.08 96.648 247.92 96.072Z" fill="white"/>
<path d="M331.608 77.96H326.232V96.488C326.232 96.776 325.976 97 325.688 97H323.192C322.904 97 322.68 96.776 322.68 96.488V77.96H317.336C316.408 77.96 315.64 77.224 315.64 76.264C315.64 75.336 316.408 74.6 317.336 74.6H331.608C332.536 74.6 333.272 75.336 333.272 76.264C333.272 77.224 332.536 77.96 331.608 77.96Z" fill="white"/>
<path d="M378.76 96.456V76.008C378.76 75.24 379.4 74.6 380.168 74.6H392.328C393.224 74.6 393.96 75.336 393.96 76.328C393.96 77.224 393.224 77.96 392.328 77.96H382.312V84.2H391.464C392.52 84.2 393.128 84.744 393.128 85.768C393.128 86.792 392.52 87.368 391.464 87.368H382.312V96.456C382.312 96.744 382.056 97 381.768 97H379.304C379.016 97 378.76 96.744 378.76 96.456Z" fill="white"/>
<path d="M448.472 74.088C450.84 74.088 453.144 74.664 454.84 76.008C456.088 76.968 456.088 78.472 455.288 79.048C455 79.272 454.68 79.368 454.328 79.368C453.752 79.368 453.144 79.048 452.504 78.568C451.416 77.704 449.912 77.384 448.472 77.384C445.464 77.384 444.12 78.952 444.12 80.552C444.12 85.608 456.632 82.408 456.632 90.728C456.632 94.12 453.944 97.512 448.504 97.512C445.56 97.512 443.064 96.552 441.016 94.888C439.768 93.896 439.768 92.392 440.536 91.816C440.856 91.592 441.176 91.496 441.496 91.496C442.104 91.496 442.712 91.816 443.352 92.328C444.792 93.512 446.488 94.216 448.504 94.216C451.576 94.216 453.08 92.488 453.08 90.728C453.08 85.704 440.568 89.224 440.568 80.552C440.568 77.32 443.064 74.088 448.472 74.088Z" fill="white"/>
<path d="M439.26 161.152C439.26 160.398 439.884 159.8 440.638 159.8H444.2C444.954 159.8 445.552 160.398 445.552 161.152V177.558C445.552 177.792 445.37 178 445.136 178H443.108C442.874 178 442.666 177.792 442.666 177.558V162.53H440.638C439.884 162.53 439.26 161.932 439.26 161.152Z" fill="black"/>
<path d="M59.062 223.584C59.062 222.102 57.814 221.062 56.072 221.062C54.902 221.062 53.81 221.348 52.9 222.154C52.328 222.674 51.834 223.064 51.288 223.064C51.106 223.064 50.898 223.012 50.716 222.908C49.988 222.544 49.78 221.348 50.69 220.412C52.068 219.008 54.148 218.384 56.072 218.384C59.504 218.384 61.948 220.542 61.948 223.662C61.948 225.482 61.116 227.224 58.984 229.33L54.018 234.27H61.116C61.844 234.27 62.442 234.868 62.442 235.648C62.442 236.402 61.844 237 61.116 237H51.132C50.3 237 49.754 236.48 49.754 235.648C49.754 235.102 50.04 234.582 50.742 233.88L57.19 227.276C58.516 225.924 59.062 224.832 59.062 223.584Z" fill="black"/>
<path d="M116.824 226.418H117.812C119.71 226.418 121.062 225.274 121.062 223.584C121.062 222.102 119.788 221.062 117.994 221.062C116.954 221.062 115.914 221.296 114.796 222.206C114.458 222.466 114.042 222.804 113.522 222.804C113.366 222.804 113.184 222.752 112.976 222.648C112.248 222.284 112.014 221.062 112.924 220.152C114.198 218.956 116.226 218.384 117.994 218.384C121.478 218.384 123.922 220.542 123.922 223.584C123.922 225.196 122.934 226.86 121.4 227.614C123.116 228.394 124.234 230.188 124.234 231.878C124.234 235.128 121.686 237.416 118.072 237.416C116.122 237.416 113.99 236.792 112.612 235.388C111.728 234.452 111.936 233.256 112.664 232.892C112.872 232.788 113.054 232.736 113.236 232.736C113.756 232.736 114.198 233.074 114.562 233.386C115.758 234.452 116.876 234.738 118.072 234.738C120.048 234.738 121.374 233.568 121.374 231.774C121.374 230.058 119.97 228.914 117.812 228.914H116.824C115.966 228.914 115.55 228.29 115.55 227.64C115.55 227.042 115.966 226.418 116.824 226.418Z" fill="black"/>
<path d="M189.464 221.01L184.628 229.538H190.556V226.99C190.556 226.21 191.206 225.56 192.012 225.56C192.818 225.56 193.442 226.21 193.442 226.99V236.584C193.442 236.818 193.26 237 193.026 237H190.998C190.764 237 190.556 236.818 190.556 236.584V232.268H182.106C181.378 232.268 180.936 231.774 180.936 230.942C180.936 230.552 181.222 230.006 181.56 229.408L187.046 219.424C187.384 218.852 187.904 218.566 188.45 218.566C188.71 218.566 188.97 218.644 189.204 218.8C189.906 219.242 189.958 220.126 189.464 221.01Z" fill="black"/>
<path d="M246.758 225.326H248.604C252.738 225.326 255.598 227.432 255.598 231.228C255.598 234.504 253.336 237.416 248.994 237.416C247.096 237.416 244.99 236.792 243.612 235.388C242.728 234.452 242.936 233.256 243.664 232.892C243.872 232.788 244.054 232.736 244.236 232.736C244.756 232.736 245.198 233.074 245.562 233.386C246.732 234.452 247.85 234.738 248.994 234.738C251.594 234.738 252.738 232.996 252.738 231.228C252.738 229.018 250.97 227.822 248.604 227.822H244.886C244.34 227.822 243.872 227.354 243.872 226.782V220.152C243.872 219.398 244.496 218.8 245.25 218.8H253.05C253.804 218.8 254.428 219.398 254.428 220.152C254.428 220.932 253.804 221.53 253.05 221.53H246.758V225.326Z" fill="black"/>
<path d="M316.04 230.994C316.04 229.33 316.612 227.848 317.522 226.444L322.358 219.112C322.592 218.748 323.034 218.54 323.476 218.54C323.762 218.54 324.048 218.618 324.308 218.8C324.906 219.216 325.036 220.074 324.62 220.672L321.448 225.196C322.02 224.91 322.644 224.728 323.346 224.728C326.388 224.728 329.118 227.042 329.118 230.994C329.118 234.634 326.492 237.39 322.54 237.39C318.64 237.39 316.04 234.634 316.04 230.994ZM318.9 231.02C318.9 233.204 320.304 234.894 322.54 234.894C324.828 234.894 326.258 233.204 326.258 231.02C326.258 228.862 324.828 227.198 322.54 227.198C320.304 227.198 318.9 228.862 318.9 231.02Z" fill="black"/>
<circle cx="389.5" cy="287.5" r="21.5" fill="#5EAAA8" fill-opacity="0.44"/>
<circle cx="389.5" cy="346.5" r="21.5" fill="#5EAAA8" fill-opacity="0.44"/>
<circle cx="256.5" cy="405.5" r="21.5" fill="#5EAAA8" fill-opacity="0.44"/>
<circle cx="63.5" cy="405.5" r="21.5" fill="#5EAAA8" fill-opacity="0.44"/>
<circle cx="450.5" cy="287.5" r="21.5" fill="#5EAAA8" fill-opacity="0.44"/>
<path d="M379.782 234.816L387.114 221.53H378.95C378.196 221.53 377.572 220.932 377.572 220.152C377.572 219.398 378.196 218.8 378.95 218.8H389.636C390.364 218.8 390.806 219.32 390.806 220.152C390.806 220.542 390.52 221.088 390.182 221.686L382.174 236.402C381.862 236.974 381.342 237.26 380.796 237.26C380.536 237.26 380.276 237.182 380.042 237.026C379.34 236.584 379.288 235.7 379.782 234.816Z" fill="black"/>
<path d="M445.994 234.53C447.97 234.53 449.374 233.334 449.374 231.644C449.374 229.902 447.944 228.706 445.994 228.706C444.018 228.706 442.614 229.902 442.614 231.644C442.614 233.334 443.992 234.53 445.994 234.53ZM443.134 223.636C443.134 225.326 444.486 226.21 446.046 226.21C447.658 226.21 448.854 225.118 448.854 223.636C448.854 222.154 447.658 221.114 445.994 221.114C444.304 221.114 443.134 222.154 443.134 223.636ZM445.994 218.436C449.348 218.436 451.714 220.542 451.714 223.558C451.714 225.04 450.804 226.678 449.4 227.406C451.116 228.238 452.234 230.084 452.234 231.878C452.234 235.024 449.66 237.208 445.994 237.208C442.302 237.208 439.728 235.024 439.728 231.878C439.728 230.084 440.846 228.238 442.562 227.406C441.158 226.678 440.248 225.04 440.248 223.558C440.248 220.542 442.614 218.436 445.994 218.436Z" fill="black"/>
<path d="M63.118 283.884C63.118 285.548 62.546 287.03 61.636 288.434L56.774 295.766C56.54 296.156 56.098 296.338 55.656 296.338C55.37 296.338 55.084 296.26 54.85 296.104C54.252 295.662 54.122 294.804 54.538 294.232L57.684 289.708C57.138 289.994 56.514 290.15 55.812 290.15C52.77 290.15 50.04 287.836 50.04 283.884C50.04 280.244 52.666 277.488 56.618 277.488C60.518 277.488 63.118 280.244 63.118 283.884ZM60.258 283.858C60.258 281.7 58.854 279.984 56.618 279.984C54.33 279.984 52.9 281.7 52.9 283.858C52.9 286.016 54.33 287.706 56.618 287.706C58.854 287.706 60.258 286.016 60.258 283.858Z" fill="black"/>
<path d="M111.26 279.152C111.26 278.398 111.884 277.8 112.638 277.8H116.2C116.954 277.8 117.552 278.398 117.552 279.152V295.558C117.552 295.792 117.37 296 117.136 296H115.108C114.874 296 114.666 295.792 114.666 295.558V280.53H112.638C111.884 280.53 111.26 279.932 111.26 279.152ZM127.634 296.39C123.214 296.39 120.146 292.464 120.146 286.874C120.146 281.31 123.214 277.384 127.634 277.384C132.054 277.384 135.148 281.31 135.148 286.874C135.148 292.464 132.054 296.39 127.634 296.39ZM127.634 293.712C130.364 293.712 132.262 290.878 132.262 286.874C132.262 282.896 130.364 280.062 127.634 280.062C124.93 280.062 123.032 282.896 123.032 286.874C123.032 290.878 124.93 293.712 127.634 293.712Z" fill="black"/>
<path d="M180.26 279.152C180.26 278.398 180.884 277.8 181.638 277.8H185.2C185.954 277.8 186.552 278.398 186.552 279.152V295.558C186.552 295.792 186.37 296 186.136 296H184.108C183.874 296 183.666 295.792 183.666 295.558V280.53H181.638C180.884 280.53 180.26 279.932 180.26 279.152ZM188.106 279.152C188.106 278.398 188.73 277.8 189.484 277.8H193.046C193.8 277.8 194.398 278.398 194.398 279.152V295.558C194.398 295.792 194.216 296 193.982 296H191.954C191.72 296 191.512 295.792 191.512 295.558V280.53H189.484C188.73 280.53 188.106 279.932 188.106 279.152Z" fill="black"/>
<path d="M242.26 279.152C242.26 278.398 242.884 277.8 243.638 277.8H247.2C247.954 277.8 248.552 278.398 248.552 279.152V295.558C248.552 295.792 248.37 296 248.136 296H246.108C245.874 296 245.666 295.792 245.666 295.558V280.53H243.638C242.884 280.53 242.26 279.932 242.26 279.152ZM259.908 282.584C259.908 281.102 258.66 280.062 256.918 280.062C255.748 280.062 254.656 280.348 253.746 281.154C253.174 281.674 252.68 282.064 252.134 282.064C251.952 282.064 251.744 282.012 251.562 281.908C250.834 281.544 250.626 280.348 251.536 279.412C252.914 278.008 254.994 277.384 256.918 277.384C260.35 277.384 262.794 279.542 262.794 282.662C262.794 284.482 261.962 286.224 259.83 288.33L254.864 293.27H261.962C262.69 293.27 263.288 293.868 263.288 294.648C263.288 295.402 262.69 296 261.962 296H251.978C251.146 296 250.6 295.48 250.6 294.648C250.6 294.102 250.886 293.582 251.588 292.88L258.036 286.276C259.362 284.924 259.908 283.832 259.908 282.584Z" fill="black"/>
<path d="M315.26 279.152C315.26 278.398 315.884 277.8 316.638 277.8H320.2C320.954 277.8 321.552 278.398 321.552 279.152V295.558C321.552 295.792 321.37 296 321.136 296H319.108C318.874 296 318.666 295.792 318.666 295.558V280.53H316.638C315.884 280.53 315.26 279.932 315.26 279.152ZM328.67 285.418H329.658C331.556 285.418 332.908 284.274 332.908 282.584C332.908 281.102 331.634 280.062 329.84 280.062C328.8 280.062 327.76 280.296 326.642 281.206C326.304 281.466 325.888 281.804 325.368 281.804C325.212 281.804 325.03 281.752 324.822 281.648C324.094 281.284 323.86 280.062 324.77 279.152C326.044 277.956 328.072 277.384 329.84 277.384C333.324 277.384 335.768 279.542 335.768 282.584C335.768 284.196 334.78 285.86 333.246 286.614C334.962 287.394 336.08 289.188 336.08 290.878C336.08 294.128 333.532 296.416 329.918 296.416C327.968 296.416 325.836 295.792 324.458 294.388C323.574 293.452 323.782 292.256 324.51 291.892C324.718 291.788 324.9 291.736 325.082 291.736C325.602 291.736 326.044 292.074 326.408 292.386C327.604 293.452 328.722 293.738 329.918 293.738C331.894 293.738 333.22 292.568 333.22 290.774C333.22 289.058 331.816 287.914 329.658 287.914H328.67C327.812 287.914 327.396 287.29 327.396 286.64C327.396 286.042 327.812 285.418 328.67 285.418Z" fill="black"/>
<path d="M377.26 279.152C377.26 278.398 377.884 277.8 378.638 277.8H382.2C382.954 277.8 383.552 278.398 383.552 279.152V295.558C383.552 295.792 383.37 296 383.136 296H381.108C380.874 296 380.666 295.792 380.666 295.558V280.53H378.638C377.884 280.53 377.26 279.932 377.26 279.152ZM394.31 280.01L389.474 288.538H395.402V285.99C395.402 285.21 396.052 284.56 396.858 284.56C397.664 284.56 398.288 285.21 398.288 285.99V295.584C398.288 295.818 398.106 296 397.872 296H395.844C395.61 296 395.402 295.818 395.402 295.584V291.268H386.952C386.224 291.268 385.782 290.774 385.782 289.942C385.782 289.552 386.068 289.006 386.406 288.408L391.892 278.424C392.23 277.852 392.75 277.566 393.296 277.566C393.556 277.566 393.816 277.644 394.05 277.8C394.752 278.242 394.804 279.126 394.31 280.01Z" fill="black"/>
<path d="M439.26 279.152C439.26 278.398 439.884 277.8 440.638 277.8H444.2C444.954 277.8 445.552 278.398 445.552 279.152V295.558C445.552 295.792 445.37 296 445.136 296H443.108C442.874 296 442.666 295.792 442.666 295.558V280.53H440.638C439.884 280.53 439.26 279.932 439.26 279.152ZM451.604 284.326H453.45C457.584 284.326 460.444 286.432 460.444 290.228C460.444 293.504 458.182 296.416 453.84 296.416C451.942 296.416 449.836 295.792 448.458 294.388C447.574 293.452 447.782 292.256 448.51 291.892C448.718 291.788 448.9 291.736 449.082 291.736C449.602 291.736 450.044 292.074 450.408 292.386C451.578 293.452 452.696 293.738 453.84 293.738C456.44 293.738 457.584 291.996 457.584 290.228C457.584 288.018 455.816 286.822 453.45 286.822H449.732C449.186 286.822 448.718 286.354 448.718 285.782V279.152C448.718 278.398 449.342 277.8 450.096 277.8H457.896C458.65 277.8 459.274 278.398 459.274 279.152C459.274 279.932 458.65 280.53 457.896 280.53H451.604V284.326Z" fill="black"/>
<path d="M49.26 338.152C49.26 337.398 49.884 336.8 50.638 336.8H54.2C54.954 336.8 55.552 337.398 55.552 338.152V354.558C55.552 354.792 55.37 355 55.136 355H53.108C52.874 355 52.666 354.792 52.666 354.558V339.53H50.638C49.884 339.53 49.26 338.932 49.26 338.152ZM57.8857 348.994C57.8857 347.33 58.4577 345.848 59.3677 344.444L64.2037 337.112C64.4377 336.748 64.8797 336.54 65.3217 336.54C65.6077 336.54 65.8937 336.618 66.1537 336.8C66.7517 337.216 66.8817 338.074 66.4657 338.672L63.2937 343.196C63.8657 342.91 64.4897 342.728 65.1917 342.728C68.2337 342.728 70.9637 345.042 70.9637 348.994C70.9637 352.634 68.3377 355.39 64.3857 355.39C60.4857 355.39 57.8857 352.634 57.8857 348.994ZM60.7457 349.02C60.7457 351.204 62.1497 352.894 64.3857 352.894C66.6737 352.894 68.1037 351.204 68.1037 349.02C68.1037 346.862 66.6737 345.198 64.3857 345.198C62.1497 345.198 60.7457 346.862 60.7457 349.02Z" fill="black"/>
<path d="M111.26 338.152C111.26 337.398 111.884 336.8 112.638 336.8H116.2C116.954 336.8 117.552 337.398 117.552 338.152V354.558C117.552 354.792 117.37 355 117.136 355H115.108C114.874 355 114.666 354.792 114.666 354.558V339.53H112.638C111.884 339.53 111.26 338.932 111.26 338.152ZM121.628 352.816L128.96 339.53H120.796C120.042 339.53 119.418 338.932 119.418 338.152C119.418 337.398 120.042 336.8 120.796 336.8H131.482C132.21 336.8 132.652 337.32 132.652 338.152C132.652 338.542 132.366 339.088 132.028 339.686L124.02 354.402C123.708 354.974 123.188 355.26 122.642 355.26C122.382 355.26 122.122 355.182 121.888 355.026C121.186 354.584 121.134 353.7 121.628 352.816Z" fill="black"/>
<path d="M180.26 338.152C180.26 337.398 180.884 336.8 181.638 336.8H185.2C185.954 336.8 186.552 337.398 186.552 338.152V354.558C186.552 354.792 186.37 355 186.136 355H184.108C183.874 355 183.666 354.792 183.666 354.558V339.53H181.638C180.884 339.53 180.26 338.932 180.26 338.152ZM194.84 352.53C196.816 352.53 198.22 351.334 198.22 349.644C198.22 347.902 196.79 346.706 194.84 346.706C192.864 346.706 191.46 347.902 191.46 349.644C191.46 351.334 192.838 352.53 194.84 352.53ZM191.98 341.636C191.98 343.326 193.332 344.21 194.892 344.21C196.504 344.21 197.7 343.118 197.7 341.636C197.7 340.154 196.504 339.114 194.84 339.114C193.15 339.114 191.98 340.154 191.98 341.636ZM194.84 336.436C198.194 336.436 200.56 338.542 200.56 341.558C200.56 343.04 199.65 344.678 198.246 345.406C199.962 346.238 201.08 348.084 201.08 349.878C201.08 353.024 198.506 355.208 194.84 355.208C191.148 355.208 188.574 353.024 188.574 349.878C188.574 348.084 189.692 346.238 191.408 345.406C190.004 344.678 189.094 343.04 189.094 341.558C189.094 338.542 191.46 336.436 194.84 336.436Z" fill="black"/>
<path d="M242.26 338.152C242.26 337.398 242.884 336.8 243.638 336.8H247.2C247.954 336.8 248.552 337.398 248.552 338.152V354.558C248.552 354.792 248.37 355 248.136 355H246.108C245.874 355 245.666 354.792 245.666 354.558V339.53H243.638C242.884 339.53 242.26 338.932 242.26 338.152ZM263.964 342.884C263.964 344.548 263.392 346.03 262.482 347.434L257.62 354.766C257.386 355.156 256.944 355.338 256.502 355.338C256.216 355.338 255.93 355.26 255.696 355.104C255.098 354.662 254.968 353.804 255.384 353.232L258.53 348.708C257.984 348.994 257.36 349.15 256.658 349.15C253.616 349.15 250.886 346.836 250.886 342.884C250.886 339.244 253.512 336.488 257.464 336.488C261.364 336.488 263.964 339.244 263.964 342.884ZM261.104 342.858C261.104 340.7 259.7 338.984 257.464 338.984C255.176 338.984 253.746 340.7 253.746 342.858C253.746 345.016 255.176 346.706 257.464 346.706C259.7 346.706 261.104 345.016 261.104 342.858Z" fill="black"/>
<path d="M325.062 341.584C325.062 340.102 323.814 339.062 322.072 339.062C320.902 339.062 319.81 339.348 318.9 340.154C318.328 340.674 317.834 341.064 317.288 341.064C317.106 341.064 316.898 341.012 316.716 340.908C315.988 340.544 315.78 339.348 316.69 338.412C318.068 337.008 320.148 336.384 322.072 336.384C325.504 336.384 327.948 338.542 327.948 341.662C327.948 343.482 327.116 345.224 324.984 347.33L320.018 352.27H327.116C327.844 352.27 328.442 352.868 328.442 353.648C328.442 354.402 327.844 355 327.116 355H317.132C316.3 355 315.754 354.48 315.754 353.648C315.754 353.102 316.04 352.582 316.742 351.88L323.19 345.276C324.516 343.924 325.062 342.832 325.062 341.584ZM338.007 355.39C333.587 355.39 330.519 351.464 330.519 345.874C330.519 340.31 333.587 336.384 338.007 336.384C342.427 336.384 345.521 340.31 345.521 345.874C345.521 351.464 342.427 355.39 338.007 355.39ZM338.007 352.712C340.737 352.712 342.635 349.878 342.635 345.874C342.635 341.896 340.737 339.062 338.007 339.062C335.303 339.062 333.405 341.896 333.405 345.874C333.405 349.878 335.303 352.712 338.007 352.712Z" fill="black"/>
<path d="M387.062 341.584C387.062 340.102 385.814 339.062 384.072 339.062C382.902 339.062 381.81 339.348 380.9 340.154C380.328 340.674 379.834 341.064 379.288 341.064C379.106 341.064 378.898 341.012 378.716 340.908C377.988 340.544 377.78 339.348 378.69 338.412C380.068 337.008 382.148 336.384 384.072 336.384C387.504 336.384 389.948 338.542 389.948 341.662C389.948 343.482 389.116 345.224 386.984 347.33L382.018 352.27H389.116C389.844 352.27 390.442 352.868 390.442 353.648C390.442 354.402 389.844 355 389.116 355H379.132C378.3 355 377.754 354.48 377.754 353.648C377.754 353.102 378.04 352.582 378.742 351.88L385.19 345.276C386.516 343.924 387.062 342.832 387.062 341.584ZM391.479 338.152C391.479 337.398 392.103 336.8 392.857 336.8H396.419C397.173 336.8 397.771 337.398 397.771 338.152V354.558C397.771 354.792 397.589 355 397.355 355H395.327C395.093 355 394.885 354.792 394.885 354.558V339.53H392.857C392.103 339.53 391.479 338.932 391.479 338.152Z" fill="black"/>
<path d="M449.062 341.584C449.062 340.102 447.814 339.062 446.072 339.062C444.902 339.062 443.81 339.348 442.9 340.154C442.328 340.674 441.834 341.064 441.288 341.064C441.106 341.064 440.898 341.012 440.716 340.908C439.988 340.544 439.78 339.348 440.69 338.412C442.068 337.008 444.148 336.384 446.072 336.384C449.504 336.384 451.948 338.542 451.948 341.662C451.948 343.482 451.116 345.224 448.984 347.33L444.018 352.27H451.116C451.844 352.27 452.442 352.868 452.442 353.648C452.442 354.402 451.844 355 451.116 355H441.132C440.3 355 439.754 354.48 439.754 353.648C439.754 353.102 440.04 352.582 440.742 351.88L447.19 345.276C448.516 343.924 449.062 342.832 449.062 341.584ZM463.281 341.584C463.281 340.102 462.033 339.062 460.291 339.062C459.121 339.062 458.029 339.348 457.119 340.154C456.547 340.674 456.053 341.064 455.507 341.064C455.325 341.064 455.117 341.012 454.935 340.908C454.207 340.544 453.999 339.348 454.909 338.412C456.287 337.008 458.367 336.384 460.291 336.384C463.723 336.384 466.167 338.542 466.167 341.662C466.167 343.482 465.335 345.224 463.203 347.33L458.237 352.27H465.335C466.063 352.27 466.661 352.868 466.661 353.648C466.661 354.402 466.063 355 465.335 355H455.351C454.519 355 453.973 354.48 453.973 353.648C453.973 353.102 454.259 352.582 454.961 351.88L461.409 345.276C462.735 343.924 463.281 342.832 463.281 341.584Z" fill="black"/>
<path d="M59.062 400.584C59.062 399.102 57.814 398.062 56.072 398.062C54.902 398.062 53.81 398.348 52.9 399.154C52.328 399.674 51.834 400.064 51.288 400.064C51.106 400.064 50.898 400.012 50.716 399.908C49.988 399.544 49.78 398.348 50.69 397.412C52.068 396.008 54.148 395.384 56.072 395.384C59.504 395.384 61.948 397.542 61.948 400.662C61.948 402.482 61.116 404.224 58.984 406.33L54.018 411.27H61.116C61.844 411.27 62.442 411.868 62.442 412.648C62.442 413.402 61.844 414 61.116 414H51.132C50.3 414 49.754 413.48 49.754 412.648C49.754 412.102 50.04 411.582 50.742 410.88L57.19 404.276C58.516 402.924 59.062 401.832 59.062 400.584ZM69.0428 403.418H70.0308C71.9288 403.418 73.2808 402.274 73.2808 400.584C73.2808 399.102 72.0068 398.062 70.2128 398.062C69.1728 398.062 68.1328 398.296 67.0148 399.206C66.6768 399.466 66.2608 399.804 65.7408 399.804C65.5848 399.804 65.4028 399.752 65.1948 399.648C64.4668 399.284 64.2328 398.062 65.1428 397.152C66.4168 395.956 68.4448 395.384 70.2128 395.384C73.6968 395.384 76.1408 397.542 76.1408 400.584C76.1408 402.196 75.1528 403.86 73.6188 404.614C75.3348 405.394 76.4528 407.188 76.4528 408.878C76.4528 412.128 73.9048 414.416 70.2908 414.416C68.3408 414.416 66.2088 413.792 64.8308 412.388C63.9468 411.452 64.1548 410.256 64.8828 409.892C65.0908 409.788 65.2728 409.736 65.4548 409.736C65.9748 409.736 66.4168 410.074 66.7808 410.386C67.9768 411.452 69.0948 411.738 70.2908 411.738C72.2668 411.738 73.5928 410.568 73.5928 408.774C73.5928 407.058 72.1888 405.914 70.0308 405.914H69.0428C68.1848 405.914 67.7688 405.29 67.7688 404.64C67.7688 404.042 68.1848 403.418 69.0428 403.418Z" fill="black"/>
<path d="M121.062 400.584C121.062 399.102 119.814 398.062 118.072 398.062C116.902 398.062 115.81 398.348 114.9 399.154C114.328 399.674 113.834 400.064 113.288 400.064C113.106 400.064 112.898 400.012 112.716 399.908C111.988 399.544 111.78 398.348 112.69 397.412C114.068 396.008 116.148 395.384 118.072 395.384C121.504 395.384 123.948 397.542 123.948 400.662C123.948 402.482 123.116 404.224 120.984 406.33L116.018 411.27H123.116C123.844 411.27 124.442 411.868 124.442 412.648C124.442 413.402 123.844 414 123.116 414H113.132C112.3 414 111.754 413.48 111.754 412.648C111.754 412.102 112.04 411.582 112.742 410.88L119.19 404.276C120.516 402.924 121.062 401.832 121.062 400.584ZM134.683 398.01L129.847 406.538H135.775V403.99C135.775 403.21 136.425 402.56 137.231 402.56C138.037 402.56 138.661 403.21 138.661 403.99V413.584C138.661 413.818 138.479 414 138.245 414H136.217C135.983 414 135.775 413.818 135.775 413.584V409.268H127.325C126.597 409.268 126.155 408.774 126.155 407.942C126.155 407.552 126.441 407.006 126.779 406.408L132.265 396.424C132.603 395.852 133.123 395.566 133.669 395.566C133.929 395.566 134.189 395.644 134.423 395.8C135.125 396.242 135.177 397.126 134.683 398.01Z" fill="black"/>
<path d="M190.062 400.584C190.062 399.102 188.814 398.062 187.072 398.062C185.902 398.062 184.81 398.348 183.9 399.154C183.328 399.674 182.834 400.064 182.288 400.064C182.106 400.064 181.898 400.012 181.716 399.908C180.988 399.544 180.78 398.348 181.69 397.412C183.068 396.008 185.148 395.384 187.072 395.384C190.504 395.384 192.948 397.542 192.948 400.662C192.948 402.482 192.116 404.224 189.984 406.33L185.018 411.27H192.116C192.844 411.27 193.442 411.868 193.442 412.648C193.442 413.402 192.844 414 192.116 414H182.132C181.3 414 180.754 413.48 180.754 412.648C180.754 412.102 181.04 411.582 181.742 410.88L188.19 404.276C189.516 402.924 190.062 401.832 190.062 400.584ZM198.977 402.326H200.823C204.957 402.326 207.817 404.432 207.817 408.228C207.817 411.504 205.555 414.416 201.213 414.416C199.315 414.416 197.209 413.792 195.831 412.388C194.947 411.452 195.155 410.256 195.883 409.892C196.091 409.788 196.273 409.736 196.455 409.736C196.975 409.736 197.417 410.074 197.781 410.386C198.951 411.452 200.069 411.738 201.213 411.738C203.813 411.738 204.957 409.996 204.957 408.228C204.957 406.018 203.189 404.822 200.823 404.822H197.105C196.559 404.822 196.091 404.354 196.091 403.782V397.152C196.091 396.398 196.715 395.8 197.469 395.8H205.269C206.023 395.8 206.647 396.398 206.647 397.152C206.647 397.932 206.023 398.53 205.269 398.53H198.977V402.326Z" fill="black"/>
<path d="M252.062 400.584C252.062 399.102 250.814 398.062 249.072 398.062C247.902 398.062 246.81 398.348 245.9 399.154C245.328 399.674 244.834 400.064 244.288 400.064C244.106 400.064 243.898 400.012 243.716 399.908C242.988 399.544 242.78 398.348 243.69 397.412C245.068 396.008 247.148 395.384 249.072 395.384C252.504 395.384 254.948 397.542 254.948 400.662C254.948 402.482 254.116 404.224 251.984 406.33L247.018 411.27H254.116C254.844 411.27 255.442 411.868 255.442 412.648C255.442 413.402 254.844 414 254.116 414H244.132C243.3 414 242.754 413.48 242.754 412.648C242.754 412.102 243.04 411.582 243.742 410.88L250.19 404.276C251.516 402.924 252.062 401.832 252.062 400.584ZM257.259 407.994C257.259 406.33 257.831 404.848 258.741 403.444L263.577 396.112C263.811 395.748 264.253 395.54 264.695 395.54C264.981 395.54 265.267 395.618 265.527 395.8C266.125 396.216 266.255 397.074 265.839 397.672L262.667 402.196C263.239 401.91 263.863 401.728 264.565 401.728C267.607 401.728 270.337 404.042 270.337 407.994C270.337 411.634 267.711 414.39 263.759 414.39C259.859 414.39 257.259 411.634 257.259 407.994ZM260.119 408.02C260.119 410.204 261.523 411.894 263.759 411.894C266.047 411.894 267.477 410.204 267.477 408.02C267.477 405.862 266.047 404.198 263.759 404.198C261.523 404.198 260.119 405.862 260.119 408.02Z" fill="black"/>
<path d="M325.062 400.584C325.062 399.102 323.814 398.062 322.072 398.062C320.902 398.062 319.81 398.348 318.9 399.154C318.328 399.674 317.834 400.064 317.288 400.064C317.106 400.064 316.898 400.012 316.716 399.908C315.988 399.544 315.78 398.348 316.69 397.412C318.068 396.008 320.148 395.384 322.072 395.384C325.504 395.384 327.948 397.542 327.948 400.662C327.948 402.482 327.116 404.224 324.984 406.33L320.018 411.27H327.116C327.844 411.27 328.442 411.868 328.442 412.648C328.442 413.402 327.844 414 327.116 414H317.132C316.3 414 315.754 413.48 315.754 412.648C315.754 412.102 316.04 411.582 316.742 410.88L323.19 404.276C324.516 402.924 325.062 401.832 325.062 400.584ZM332.001 411.816L339.333 398.53H331.169C330.415 398.53 329.791 397.932 329.791 397.152C329.791 396.398 330.415 395.8 331.169 395.8H341.855C342.583 395.8 343.025 396.32 343.025 397.152C343.025 397.542 342.739 398.088 342.401 398.686L334.393 413.402C334.081 413.974 333.561 414.26 333.015 414.26C332.755 414.26 332.495 414.182 332.261 414.026C331.559 413.584 331.507 412.7 332.001 411.816Z" fill="black"/>
<path d="M387.062 400.584C387.062 399.102 385.814 398.062 384.072 398.062C382.902 398.062 381.81 398.348 380.9 399.154C380.328 399.674 379.834 400.064 379.288 400.064C379.106 400.064 378.898 400.012 378.716 399.908C377.988 399.544 377.78 398.348 378.69 397.412C380.068 396.008 382.148 395.384 384.072 395.384C387.504 395.384 389.948 397.542 389.948 400.662C389.948 402.482 389.116 404.224 386.984 406.33L382.018 411.27H389.116C389.844 411.27 390.442 411.868 390.442 412.648C390.442 413.402 389.844 414 389.116 414H379.132C378.3 414 377.754 413.48 377.754 412.648C377.754 412.102 378.04 411.582 378.742 410.88L385.19 404.276C386.516 402.924 387.062 401.832 387.062 400.584ZM398.213 411.53C400.189 411.53 401.593 410.334 401.593 408.644C401.593 406.902 400.163 405.706 398.213 405.706C396.237 405.706 394.833 406.902 394.833 408.644C394.833 410.334 396.211 411.53 398.213 411.53ZM395.353 400.636C395.353 402.326 396.705 403.21 398.265 403.21C399.877 403.21 401.073 402.118 401.073 400.636C401.073 399.154 399.877 398.114 398.213 398.114C396.523 398.114 395.353 399.154 395.353 400.636ZM398.213 395.436C401.567 395.436 403.933 397.542 403.933 400.558C403.933 402.04 403.023 403.678 401.619 404.406C403.335 405.238 404.453 407.084 404.453 408.878C404.453 412.024 401.879 414.208 398.213 414.208C394.521 414.208 391.947 412.024 391.947 408.878C391.947 407.084 393.065 405.238 394.781 404.406C393.377 403.678 392.467 402.04 392.467 400.558C392.467 397.542 394.833 395.436 398.213 395.436Z" fill="black"/>
<path d="M449.062 400.584C449.062 399.102 447.814 398.062 446.072 398.062C444.902 398.062 443.81 398.348 442.9 399.154C442.328 399.674 441.834 400.064 441.288 400.064C441.106 400.064 440.898 400.012 440.716 399.908C439.988 399.544 439.78 398.348 440.69 397.412C442.068 396.008 444.148 395.384 446.072 395.384C449.504 395.384 451.948 397.542 451.948 400.662C451.948 402.482 451.116 404.224 448.984 406.33L444.018 411.27H451.116C451.844 411.27 452.442 411.868 452.442 412.648C452.442 413.402 451.844 414 451.116 414H441.132C440.3 414 439.754 413.48 439.754 412.648C439.754 412.102 440.04 411.582 440.742 410.88L447.19 404.276C448.516 402.924 449.062 401.832 449.062 400.584ZM467.337 401.884C467.337 403.548 466.765 405.03 465.855 406.434L460.993 413.766C460.759 414.156 460.317 414.338 459.875 414.338C459.589 414.338 459.303 414.26 459.069 414.104C458.471 413.662 458.341 412.804 458.757 412.232L461.903 407.708C461.357 407.994 460.733 408.15 460.031 408.15C456.989 408.15 454.259 405.836 454.259 401.884C454.259 398.244 456.885 395.488 460.837 395.488C464.737 395.488 467.337 398.244 467.337 401.884ZM464.477 401.858C464.477 399.7 463.073 397.984 460.837 397.984C458.549 397.984 457.119 399.7 457.119 401.858C457.119 404.016 458.549 405.706 460.837 405.706C463.073 405.706 464.477 404.016 464.477 401.858Z" fill="black"/>
<path d="M54.824 462.418H55.812C57.71 462.418 59.062 461.274 59.062 459.584C59.062 458.102 57.788 457.062 55.994 457.062C54.954 457.062 53.914 457.296 52.796 458.206C52.458 458.466 52.042 458.804 51.522 458.804C51.366 458.804 51.184 458.752 50.976 458.648C50.248 458.284 50.014 457.062 50.924 456.152C52.198 454.956 54.226 454.384 55.994 454.384C59.478 454.384 61.922 456.542 61.922 459.584C61.922 461.196 60.934 462.86 59.4 463.614C61.116 464.394 62.234 466.188 62.234 467.878C62.234 471.128 59.686 473.416 56.072 473.416C54.122 473.416 51.99 472.792 50.612 471.388C49.728 470.452 49.936 469.256 50.664 468.892C50.872 468.788 51.054 468.736 51.236 468.736C51.756 468.736 52.198 469.074 52.562 469.386C53.758 470.452 54.876 470.738 56.072 470.738C58.048 470.738 59.374 469.568 59.374 467.774C59.374 466.058 57.97 464.914 55.812 464.914H54.824C53.966 464.914 53.55 464.29 53.55 463.64C53.55 463.042 53.966 462.418 54.824 462.418ZM72.0575 473.39C67.6375 473.39 64.5695 469.464 64.5695 463.874C64.5695 458.31 67.6375 454.384 72.0575 454.384C76.4775 454.384 79.5715 458.31 79.5715 463.874C79.5715 469.464 76.4775 473.39 72.0575 473.39ZM72.0575 470.712C74.7875 470.712 76.6855 467.878 76.6855 463.874C76.6855 459.896 74.7875 457.062 72.0575 457.062C69.3535 457.062 67.4555 459.896 67.4555 463.874C67.4555 467.878 69.3535 470.712 72.0575 470.712Z" fill="black"/>
<path d="M116.824 462.418H117.812C119.71 462.418 121.062 461.274 121.062 459.584C121.062 458.102 119.788 457.062 117.994 457.062C116.954 457.062 115.914 457.296 114.796 458.206C114.458 458.466 114.042 458.804 113.522 458.804C113.366 458.804 113.184 458.752 112.976 458.648C112.248 458.284 112.014 457.062 112.924 456.152C114.198 454.956 116.226 454.384 117.994 454.384C121.478 454.384 123.922 456.542 123.922 459.584C123.922 461.196 122.934 462.86 121.4 463.614C123.116 464.394 124.234 466.188 124.234 467.878C124.234 471.128 121.686 473.416 118.072 473.416C116.122 473.416 113.99 472.792 112.612 471.388C111.728 470.452 111.936 469.256 112.664 468.892C112.872 468.788 113.054 468.736 113.236 468.736C113.756 468.736 114.198 469.074 114.562 469.386C115.758 470.452 116.876 470.738 118.072 470.738C120.048 470.738 121.374 469.568 121.374 467.774C121.374 466.058 119.97 464.914 117.812 464.914H116.824C115.966 464.914 115.55 464.29 115.55 463.64C115.55 463.042 115.966 462.418 116.824 462.418ZM125.53 456.152C125.53 455.398 126.154 454.8 126.908 454.8H130.47C131.224 454.8 131.822 455.398 131.822 456.152V472.558C131.822 472.792 131.64 473 131.406 473H129.378C129.144 473 128.936 472.792 128.936 472.558V457.53H126.908C126.154 457.53 125.53 456.932 125.53 456.152Z" fill="black"/>
<defs>
<filter id="filter0_d_2011_1340" x="0.5" y="41.5" width="517" height="517" filterUnits="userSpaceOnUse" color-interpolation-filters="sRGB">
<feFlood flood-opacity="0" result="BackgroundImageFix"/>
<feColorMatrix in="SourceAlpha" type="matrix" values="0 0 0 0 0 0 0 0 0 0 0 0 0 0 0 0 0 0 127 0" result="hardAlpha"/>
<feOffset dx="5" dy="4"/>
<feGaussianBlur stdDeviation="9.25"/>
<feComposite in2="hardAlpha" operator="out"/>
<feColorMatrix type="matrix" values="0 0 0 0 0 0 0 0 0 0 0 0 0 0 0 0 0 0 0.25 0"/>
<feBlend mode="normal" in2="BackgroundImageFix" result="effect1_dropShadow_2011_1340"/>
<feBlend mode="normal" in="SourceGraphic" in2="effect1_dropShadow_2011_1340" result="shape"/>
</filter>
</defs>
</svg>
