<svg width="75" height="75" viewBox="0 0 75 75" fill="none" xmlns="http://www.w3.org/2000/svg">
<g clip-path="url(#clip0_2011_1816)">
<path d="M37.5 0C16.7893 0 0 16.7893 0 37.5C0 58.2107 16.7893 75 37.5 75C58.2107 75 75 58.2107 75 37.5C75 16.7893 58.2107 0 37.5 0ZM18.5989 15.8432L25.2731 17.9398C26.1567 18.2299 26.7452 19.0504 26.8478 19.8898L27.2232 23.5656L57.4448 26.9393C58.7424 27.1906 59.6543 28.3623 59.4726 29.5668L57.5958 40.1411C57.3569 41.2471 56.4409 42.0053 55.4214 42.0179H28.5736L28.0472 45.0163H53.5446C54.8779 45.0632 55.8544 46.0784 55.8701 47.2639C55.8148 48.6162 54.7248 49.5014 53.5446 49.5161H25.3464C23.9241 49.3984 22.88 48.2714 23.0987 46.8931L24.2981 40.2921L22.4212 21.8399L17.2485 20.192C16.6485 19.992 16.1981 19.6158 15.8981 19.0658C15.3305 17.8763 15.8607 16.5593 16.8732 15.9896C17.4511 15.6892 18.0154 15.6518 18.5989 15.8432ZM28.7613 50.8117C30.7029 50.8117 32.2769 52.3857 32.2769 54.3274C32.2769 56.269 30.7029 57.843 28.7613 57.843C26.8198 57.843 25.2457 56.2689 25.2457 54.3274C25.2457 52.3858 26.8197 50.8117 28.7613 50.8117ZM49.3973 50.8117C51.3388 50.8117 52.9129 52.3857 52.9129 54.3274C52.9129 56.269 51.3388 57.843 49.3973 57.843C47.4557 57.843 45.8816 56.2689 45.8816 54.3274C45.8816 52.3858 47.4557 50.8117 49.3973 50.8117Z" fill="#5EAAA8"/>
</g>
<defs>
<clipPath id="clip0_2011_1816">
<rect width="75" height="75" fill="white"/>
</clipPath>
</defs>
</svg>
