<svg width="70" height="70" viewBox="0 0 70 70" fill="none" xmlns="http://www.w3.org/2000/svg">
<path d="M34.68 69.36C15.504 69.36 0 53.856 0 34.68C0 15.504 15.504 0 34.68 0C53.856 0 69.36 15.504 69.36 34.68C69.36 53.856 53.856 69.36 34.68 69.36ZM34.68 4.08C17.748 4.08 4.08 17.748 4.08 34.68C4.08 51.612 17.748 65.28 34.68 65.28C51.612 65.28 65.28 51.612 65.28 34.68C65.28 17.748 51.612 4.08 34.68 4.08Z" fill="#FFF5E1"/>
<path fill-rule="evenodd" clip-rule="evenodd" d="M36.72 16.3201H32.64V46.1041L17.748 31.2121L14.892 34.0681L34.68 53.8561L54.468 34.0681L51.612 31.2121L36.72 46.104V16.3201Z" fill="#FFF5E1"/>
</svg>
