<svg width="38" height="38" viewBox="0 0 38 38" fill="none" xmlns="http://www.w3.org/2000/svg">
<path d="M18.3128 34.1414V20.2682C18.7166 20.3046 19.1045 20.3236 19.513 20.3236C21.4494 20.3236 23.2718 19.817 24.8172 18.9097V34.1382C24.8172 35.4397 24.5084 36.4008 23.9068 37.0421C23.3083 37.6801 22.5134 38 21.546 38C20.596 38 19.8408 37.6801 19.2217 37.0215C18.6232 36.3834 18.3128 35.4223 18.3128 34.1414ZM18.3493 0.896142C22.3788 -0.517774 26.9658 -0.441774 30.4127 2.45889C31.0539 3.04314 31.7854 3.77781 32.0768 4.64389C32.4251 5.73956 30.8576 4.52831 30.6423 4.37948C29.5181 3.66223 28.3971 3.06056 27.1399 2.64731C20.3617 0.612726 13.9523 4.28923 9.96708 9.99873C8.30142 12.5226 7.21683 15.1794 6.32542 18.1006C6.23042 18.4205 6.15283 18.8369 5.97708 19.1171C5.79975 19.4386 5.90108 18.2526 5.90108 18.2146C6.03408 17.0066 6.28742 15.8396 6.59934 14.6727C8.43917 8.45023 12.5036 3.27114 18.3508 0.896142M26.1535 12.0729C26.1535 13.3411 25.6497 14.5573 24.753 15.454C23.8562 16.3508 22.64 16.8546 21.3718 16.8546C20.1037 16.8546 18.8874 16.3508 17.9907 15.454C17.0939 14.5573 16.5902 13.3411 16.5902 12.0729C16.5902 10.8047 17.0939 9.58848 17.9907 8.69174C18.8874 7.79501 20.1037 7.29123 21.3718 7.29123C22.64 7.29123 23.8562 7.79501 24.753 8.69174C25.6497 9.58848 26.1535 10.8047 26.1535 12.0729Z" fill="white"/>
</svg>
