<svg width="31" height="45" viewBox="0 0 31 45" fill="none" xmlns="http://www.w3.org/2000/svg">
<path d="M15.4583 21.3959C13.9941 21.3959 12.5899 20.8143 11.5545 19.7789C10.5192 18.7435 9.9375 17.3393 9.9375 15.8751C9.9375 14.4109 10.5192 13.0066 11.5545 11.9713C12.5899 10.9359 13.9941 10.3542 15.4583 10.3542C16.9225 10.3542 18.3268 10.9359 19.3622 11.9713C20.3975 13.0066 20.9792 14.4109 20.9792 15.8751C20.9792 16.6001 20.8364 17.318 20.5589 17.9878C20.2815 18.6576 19.8748 19.2662 19.3622 19.7789C18.8495 20.2916 18.2409 20.6982 17.5711 20.9757C16.9012 21.2531 16.1833 21.3959 15.4583 21.3959ZM15.4583 0.416748C11.3585 0.416748 7.42664 2.04539 4.52764 4.94439C1.62864 7.84339 0 11.7753 0 15.8751C0 27.4688 15.4583 44.5834 15.4583 44.5834C15.4583 44.5834 30.9167 27.4688 30.9167 15.8751C30.9167 11.7753 29.288 7.84339 26.389 4.94439C23.49 2.04539 19.5581 0.416748 15.4583 0.416748Z" fill="white"/>
</svg>
