<svg width="371" height="182" viewBox="0 0 371 182" fill="none" xmlns="http://www.w3.org/2000/svg">
<path d="M167 76.5283H0L9.96227 90.9224L0 105.317H167L157.038 90.9224L167 76.5283Z" fill="#FF6B6B"/>
<path d="M29.9563 83.3071C31.2653 84.1017 31.2842 85.5414 30.5159 86.0817C30.2251 86.2915 29.9342 86.3741 29.6433 86.3741C29.1248 86.3741 28.5842 86.0817 28.0878 85.7067C27.5472 85.3094 26.7789 85.1632 26.0549 85.1632C24.5816 85.1632 23.9366 85.8942 23.9366 86.6665C23.9366 89.2122 31.4929 87.5628 31.4929 92.8863C31.4929 95.2858 29.5422 97.5201 25.9284 97.5201C24.1232 97.5201 22.5645 96.9989 21.2998 96.1217C19.9498 95.3271 19.9498 93.8683 20.7181 93.3471C21.009 93.1373 21.2998 93.0547 21.5907 93.0547C22.1313 93.0547 22.6688 93.3471 23.1683 93.7221C23.9366 94.2656 24.7871 94.5993 25.8462 94.5993C27.3417 94.5993 28.0878 93.7634 28.0878 92.9307C28.0878 90.4072 20.5315 92.2411 20.5315 86.6919C20.5315 84.375 22.359 82.2456 25.9695 82.2456C27.4429 82.2456 28.8751 82.5793 29.9563 83.3103V83.3071Z" fill="white"/>
<path d="M35.8117 92.8418C36.1436 94.094 37.1396 94.8854 38.4263 94.8854C39.1535 94.8854 39.7764 94.7614 40.3581 94.4277C40.7533 94.2179 41.0853 94.1162 41.4172 94.1162C42.1634 94.1162 42.6819 94.6788 42.6819 95.3462C42.6819 97.0783 39.672 97.4533 38.4485 97.4533C35.1477 97.4533 32.8239 95.1587 32.8239 91.8819C32.8239 88.6052 35.0244 86.3105 38.1797 86.3105C41.335 86.3105 43.349 88.5003 43.349 91.4434C43.349 92.5271 42.6028 92.8418 41.9389 92.8418H35.8148H35.8117ZM35.8117 90.8808H40.4814C40.2727 89.6922 39.3811 88.8976 38.1987 88.8976C37.0163 88.8976 36.1436 89.6477 35.8117 90.8808Z" fill="white"/>
<path d="M44.4872 88.3986C44.1773 87.6263 44.5694 86.7301 45.3787 86.4154C45.5463 86.3519 45.7107 86.3105 45.8783 86.3105C46.46 86.3105 47.0418 86.7078 47.2884 87.353L49.3023 92.6129L51.2941 87.353C51.5439 86.7046 52.1256 86.3296 52.8086 86.3296C53.4093 86.3296 53.972 86.7046 54.2408 87.353L56.2547 92.6129L58.2465 87.353C58.4963 86.7046 59.0781 86.3105 59.6566 86.3105C59.8242 86.3105 59.9886 86.3519 60.1562 86.4154C60.9655 86.7269 61.3607 87.6263 61.0288 88.3986L57.6237 96.4331C57.415 96.9544 57.0641 97.1832 56.5646 97.1832H55.9196C55.4011 97.1832 55.0691 96.9544 54.8415 96.4331L52.7643 91.3194L50.6681 96.4331C50.4595 96.9544 50.1085 97.1832 49.609 97.1832H48.964C48.4455 97.1832 48.1135 96.9544 47.8859 96.4331L44.4808 88.3986H44.4872Z" fill="white"/>
<path d="M64.1651 81.7627C65.1199 81.7627 65.9103 82.5541 65.9103 83.5171C65.9103 84.4801 65.1199 85.2714 64.1651 85.2714C63.2103 85.2714 62.3788 84.4801 62.3788 83.5171C62.3788 82.5541 63.1692 81.7627 64.1651 81.7627ZM62.6286 87.8553C62.6286 87.0194 63.3146 86.333 64.1651 86.333C65.0156 86.333 65.6606 87.0226 65.6606 87.8553V96.7257C65.6606 96.9768 65.4519 97.1834 65.2243 97.1834H63.0649C62.8372 97.1834 62.6286 96.9736 62.6286 96.7257V87.8553Z" fill="white"/>
<path d="M74.7723 91.1923C74.7723 89.8765 73.9219 88.958 72.7394 88.958C71.557 88.958 70.6622 89.8765 70.6622 91.1923V96.7224C70.6622 96.9734 70.4536 97.18 70.2259 97.18H68.0665C67.8389 97.18 67.6302 96.9703 67.6302 96.7224V87.852C67.6302 87.0161 68.3163 86.3296 69.1668 86.3296C69.8529 86.3296 70.4536 86.8095 70.6211 87.4579C71.3673 86.7269 72.4074 86.3105 73.612 86.3105C76.0813 86.3105 77.8265 88.1889 77.8265 90.8999V96.7224C77.8265 96.9734 77.6178 97.18 77.3712 97.18H75.2339C75.0063 97.18 74.7787 96.9703 74.7787 96.7224V91.1923H74.7723Z" fill="white"/>
<path d="M84.2161 86.3105C85.5661 86.3105 86.7264 86.8127 87.5579 87.6867V87.6645C87.5579 86.9144 88.2219 86.3296 89.0123 86.3296C89.8628 86.3296 90.5267 87.0193 90.5267 87.8329V96.5762C90.5267 100.104 88.1175 101.938 84.9844 101.938C83.7166 101.938 80.2293 101.582 80.2293 99.7258C80.2293 99.0361 80.7699 98.4513 81.4939 98.4513C81.848 98.4513 82.2211 98.5753 82.5942 98.766C83.3214 99.141 84.1086 99.2872 85.0033 99.2872C86.3122 99.2872 87.4947 98.5784 87.4947 96.6175V96.0136C86.6632 96.8686 85.5218 97.3485 84.2161 97.3485C81.3517 97.3485 79.3156 95.0729 79.3156 91.8597C79.3156 88.6465 81.3928 86.3105 84.2161 86.3105ZM84.9433 89.0247C83.3878 89.0247 82.2875 90.1943 82.2875 91.8819C82.2875 93.5696 83.3878 94.7423 84.9433 94.7423C86.4988 94.7423 87.5579 93.5728 87.5579 91.8819C87.5579 90.1911 86.4798 89.0247 84.9433 89.0247Z" fill="white"/>
<path d="M105.576 91.4243H99.806V96.6842C99.806 96.9544 99.5784 97.1864 99.3065 97.1864H96.9827C96.714 97.1864 96.4832 96.9576 96.4832 96.6842V84.2257C96.4832 83.3072 97.2104 82.5762 98.143 82.5762C99.0757 82.5762 99.8029 83.3072 99.8029 84.2257V88.5671H105.573V84.2257C105.573 83.3072 106.3 82.5762 107.233 82.5762C108.165 82.5762 108.893 83.3072 108.893 84.2257V96.6842C108.893 96.9544 108.665 97.1864 108.393 97.1864H106.069C105.8 97.1864 105.57 96.9576 105.57 96.6842V91.4243H105.576Z" fill="white"/>
<path d="M110.704 91.8819C110.704 88.6275 113.028 86.3105 116.288 86.3105C119.547 86.3105 121.912 88.6275 121.912 91.8819C121.912 95.1364 119.588 97.4947 116.288 97.4947C112.987 97.4947 110.704 95.1778 110.704 91.8819ZM118.943 91.8819C118.943 90.1911 117.865 89.0247 116.288 89.0247C114.71 89.0247 113.673 90.1943 113.673 91.8819C113.673 93.5696 114.773 94.7837 116.288 94.7837C117.802 94.7837 118.943 93.6141 118.943 91.8819Z" fill="white"/>
<path d="M123.509 91.9233C123.509 88.6275 125.814 86.3105 129.092 86.3105C132.371 86.3105 134.717 88.6275 134.717 91.9233C134.717 95.2191 132.639 97.4947 129.715 97.4947C128.45 97.4947 127.369 97.0783 126.541 96.306V100.126C126.541 100.962 125.855 101.649 125.045 101.649C124.195 101.649 123.509 100.959 123.509 100.126V91.9264V91.9233ZM126.477 91.9233C126.477 93.6141 127.578 94.7837 129.092 94.7837C130.607 94.7837 131.748 93.6141 131.748 91.9233C131.748 90.2325 130.648 89.0216 129.092 89.0216C127.537 89.0216 126.477 90.1911 126.477 91.9233Z" fill="white"/>
<path d="M139.225 92.8418C139.557 94.094 140.553 94.8854 141.84 94.8854C142.567 94.8854 143.19 94.7614 143.772 94.4277C144.167 94.2179 144.499 94.1162 144.831 94.1162C145.577 94.1162 146.095 94.6788 146.095 95.3462C146.095 97.0783 143.085 97.4533 141.862 97.4533C138.561 97.4533 136.237 95.1587 136.237 91.8819C136.237 88.6052 138.438 86.3105 141.593 86.3105C144.748 86.3105 146.762 88.5003 146.762 91.4434C146.762 92.5271 146.016 92.8418 145.352 92.8418H139.228H139.225ZM139.225 90.8808H143.895C143.686 89.6922 142.795 88.8976 141.612 88.8976C140.43 88.8976 139.557 89.6477 139.225 90.8808Z" fill="white"/>
<mask id="mask0_2116_3025" style="mask-type:luminance" maskUnits="userSpaceOnUse" x="21" y="0" width="129" height="74">
<path d="M149.801 0H21.9512V73.9124H149.801V0Z" fill="white"/>
</mask>
<g mask="url(#mask0_2116_3025)">
<path d="M147.509 100.015C148.049 98.9441 148.922 98.0701 149.984 97.5266C150.62 97.1993 151.265 96.7321 151.859 96.1378C153.272 94.7171 153.971 92.9977 153.731 91.809C153.614 91.2274 153.614 90.6236 153.731 90.0419C153.971 88.8533 153.272 87.1339 151.859 85.7132C151.268 85.1189 150.623 84.6485 149.984 84.3244C148.919 83.7809 148.049 82.9037 147.509 81.8358C147.183 81.197 146.718 80.5486 146.127 79.9511C145.536 79.3536 144.891 78.8864 144.252 78.5623C143.187 78.0188 142.317 77.1416 141.777 76.0737C141.451 75.4349 140.986 74.7865 140.395 74.189C139.804 73.5915 139.159 73.1243 138.52 72.8002C137.455 72.2567 136.585 71.3795 136.045 70.3116C135.719 69.6728 135.254 69.0245 134.663 68.4269C134.072 67.8294 133.427 67.3622 132.788 67.0381C131.723 66.4946 130.853 65.6174 130.313 64.5495C129.987 63.9107 129.522 63.2624 128.931 62.6649C128.34 62.0705 127.695 61.6002 127.056 61.276C125.991 60.7325 125.121 59.8553 124.581 58.7874C124.255 58.1486 123.79 57.5003 123.199 56.9028C122.608 56.3084 121.963 55.8381 121.324 55.5139C120.259 54.9704 119.389 54.0932 118.849 53.0253C118.523 52.3865 118.058 51.7382 117.467 51.1407C116.876 50.5463 116.231 50.076 115.592 49.7518C114.527 49.2083 113.657 48.3311 113.117 47.2633C112.791 46.6244 112.326 45.9761 111.735 45.3786C111.144 44.7811 110.499 44.3139 109.86 43.9897C108.795 43.4462 107.925 42.569 107.384 41.5012C107.059 40.8623 106.594 40.214 106.003 39.6165C105.412 39.019 104.767 38.5518 104.128 38.2276C103.063 37.6841 102.193 36.8069 101.652 35.7391C101.327 35.1002 100.862 34.4519 100.271 33.8544C99.6796 33.2569 99.0346 32.7897 98.396 32.4655C97.3305 31.922 96.4611 31.0448 95.9205 29.977C95.5948 29.3381 95.13 28.6898 94.5388 28.0923C93.9476 27.4948 93.3026 27.0276 92.664 26.7034C91.5985 26.1599 90.7291 25.2828 90.1884 24.2149C89.8628 23.5761 89.398 22.9277 88.8068 22.3302C87.3936 20.9095 85.6831 20.2072 84.5007 20.4487C83.9221 20.5663 83.3214 20.5663 82.7428 20.4487C81.5604 20.2072 79.8499 20.9095 78.4367 22.3302C77.8455 22.9245 77.3775 23.5729 77.0551 24.2149C76.5144 25.2859 75.6418 26.1599 74.5795 26.7034C73.944 27.0308 73.2991 27.498 72.7047 28.0923C72.1103 28.6866 71.6455 29.335 71.323 29.977C70.7824 31.048 69.9098 31.922 68.8475 32.4655C68.212 32.7929 67.567 33.2601 66.9726 33.8544C66.3783 34.4487 65.9135 35.0971 65.591 35.7391C65.0504 36.8101 64.1778 37.6841 63.1155 38.2276C62.48 38.555 61.835 39.0222 61.2406 39.6165C60.6494 40.2108 60.1815 40.8592 59.859 41.5012C59.3184 42.5722 58.4458 43.4462 57.3835 43.9897C56.748 44.317 56.103 44.7842 55.5086 45.3786C54.9142 45.9729 54.4495 46.6213 54.127 47.2633C53.5863 48.3343 52.7137 49.2083 51.6514 49.7518C51.0159 50.0791 50.371 50.5463 49.7766 51.1407C49.1854 51.735 48.7175 52.3833 48.395 53.0253C47.8543 54.0964 46.9817 54.9704 45.9194 55.5139C45.2839 55.8412 44.639 56.3084 44.0446 56.9028C43.4502 57.4971 42.9854 58.1454 42.6629 58.7874C42.1223 59.8585 41.2497 60.7325 40.1874 61.276C39.5519 61.6033 38.9069 62.0705 38.3126 62.6649C37.7182 63.2592 37.2534 63.9075 36.9309 64.5495C36.3903 65.6206 35.5177 66.4946 34.4554 67.0381C33.8199 67.3654 33.1749 67.8326 32.5805 68.4269C31.9862 69.0213 31.5214 69.6696 31.1989 70.3116C30.6583 71.3827 29.7857 72.2567 28.7234 72.8002C28.0879 73.1275 27.4429 73.5947 26.8485 74.189C26.2541 74.7834 25.7894 75.4317 25.4669 76.0737C24.9263 77.1448 24.0536 78.0188 22.9913 78.5623C22.3559 78.8896 21.7109 79.3568 21.1165 79.9511C20.5221 80.5455 20.0574 81.1938 19.7349 81.8358C19.1942 82.9069 18.3216 83.7809 17.2593 84.3244C16.6238 84.6517 15.9789 85.1189 15.3845 85.7132C13.9712 87.1339 13.2725 88.8533 13.5128 90.0419C13.6298 90.6236 13.6298 91.2274 13.5128 91.809C13.2725 92.9977 13.9712 94.7171 15.3845 96.1378C15.9757 96.7321 16.6207 97.2025 17.2593 97.5266C18.3248 98.0701 19.1942 98.9473 19.7349 100.015C20.0605 100.654 20.5253 101.302 21.1165 101.9C21.7077 102.497 22.3527 102.965 22.9913 103.289C24.0568 103.832 24.9263 104.709 25.4669 105.777C25.7925 106.416 26.2573 107.064 26.8485 107.662C27.4397 108.259 28.0847 108.727 28.7234 109.051C29.7888 109.594 30.6583 110.471 31.1989 111.539C31.5246 112.178 31.9893 112.827 32.5805 113.424C33.1718 114.022 33.8167 114.489 34.4554 114.813C35.5208 115.356 36.3903 116.234 36.9309 117.301C37.2566 117.94 37.7213 118.589 38.3126 119.186C38.9038 119.784 39.5487 120.251 40.1874 120.575C41.2529 121.118 42.1223 121.996 42.6629 123.064C42.9886 123.702 43.4533 124.351 44.0446 124.948C44.6358 125.546 45.2808 126.013 45.9194 126.337C46.9849 126.881 47.8543 127.758 48.395 128.826C48.7206 129.464 49.1854 130.113 49.7766 130.71C50.3678 131.305 51.0128 131.775 51.6514 132.099C52.7169 132.643 53.5863 133.52 54.127 134.588C54.4526 135.227 54.9174 135.875 55.5086 136.472C56.0998 137.07 56.7448 137.537 57.3835 137.861C58.4489 138.405 59.3184 139.282 59.859 140.35C60.1846 140.989 60.6494 141.637 61.2406 142.234C61.8319 142.832 62.4768 143.299 63.1155 143.623C64.1809 144.167 65.0504 145.044 65.591 146.112C65.9167 146.751 66.3814 147.399 66.9726 147.997C67.5639 148.591 68.2088 149.061 68.8475 149.385C69.913 149.929 70.7824 150.806 71.323 151.874C71.6487 152.513 72.1134 153.161 72.7047 153.759C73.2959 154.356 73.9409 154.823 74.5795 155.148C75.645 155.691 76.5144 156.568 77.0551 157.636C77.3807 158.275 77.8455 158.923 78.4367 159.521C79.8499 160.941 81.5604 161.644 82.7428 161.402C83.3214 161.285 83.9221 161.285 84.5007 161.402C85.6831 161.644 87.3936 160.941 88.8068 159.521C89.398 158.926 89.8659 158.278 90.1884 157.636C90.7291 156.565 91.6017 155.691 92.664 155.148C93.2995 154.82 93.9444 154.353 94.5388 153.759C95.1332 153.164 95.598 152.516 95.9205 151.874C96.4611 150.803 97.3337 149.929 98.396 149.385C99.0315 149.058 99.6765 148.591 100.271 147.997C100.865 147.402 101.33 146.754 101.652 146.112C102.193 145.041 103.066 144.167 104.128 143.623C104.764 143.296 105.408 142.829 106.003 142.234C106.597 141.64 107.062 140.992 107.384 140.35C107.925 139.279 108.798 138.405 109.86 137.861C110.496 137.534 111.14 137.067 111.735 136.472C112.326 135.878 112.794 135.23 113.117 134.588C113.657 133.517 114.53 132.643 115.592 132.099C116.228 131.772 116.873 131.305 117.467 130.71C118.061 130.116 118.526 129.468 118.849 128.826C119.389 127.755 120.262 126.881 121.324 126.337C121.96 126.01 122.605 125.543 123.199 124.948C123.79 124.354 124.258 123.706 124.581 123.064C125.121 121.992 125.994 121.118 127.056 120.575C127.692 120.248 128.337 119.78 128.931 119.186C129.522 118.592 129.99 117.943 130.313 117.301C130.853 116.23 131.726 115.356 132.788 114.813C133.424 114.486 134.069 114.018 134.663 113.424C135.257 112.83 135.722 112.181 136.045 111.539C136.585 110.468 137.458 109.594 138.52 109.051C139.156 108.723 139.801 108.256 140.395 107.662C140.986 107.068 141.454 106.419 141.777 105.777C142.317 104.706 143.19 103.832 144.252 103.289C144.888 102.961 145.533 102.494 146.127 101.9C146.718 101.306 147.186 100.657 147.509 100.015Z" fill="#FFD3B5"/>
<path d="M83.6044 21.2187L48.9346 56.0703L83.6044 90.922L118.274 56.0703L83.6044 21.2187Z" fill="#FFF5E1"/>
<path d="M83.6091 91.6151L83.2645 91.2687L48.2495 56.07L83.6059 20.5281L118.962 56.07L83.6059 91.6119L83.6091 91.6151ZM49.6248 56.07L83.6091 90.2294L117.593 56.07L83.6091 21.9106L49.6248 56.07Z" fill="#FFD3B5"/>
<path d="M118.276 56.0707L83.6058 90.9224L118.276 125.774L152.945 90.9224L118.276 56.0707Z" fill="#5EAAA8"/>
<path d="M118.276 126.467L117.932 126.121L82.9167 90.9223L118.273 55.3804L153.63 90.9223L153.285 91.2687L118.27 126.467H118.276ZM84.2952 90.9223L118.276 125.085L152.261 90.9223L118.279 56.7629L84.2952 90.9223Z" fill="#FFD3B5"/>
<path d="M48.9372 56.0712L14.2674 90.9229L48.9372 125.775L83.6069 90.9229L48.9372 56.0712Z" fill="#5EAAA8"/>
<path d="M48.9387 126.467L13.5823 90.9252L48.9387 55.3833L84.2951 90.9252L83.9505 91.2716L48.9356 126.47L48.9387 126.467ZM14.9545 90.922L48.9356 125.085L82.9198 90.922L48.9356 56.7626L14.9545 90.922Z" fill="#FFD3B5"/>
<path d="M50.2161 116.069C50.0928 116.069 49.9663 116.021 49.8746 115.926C49.6849 115.735 49.6817 115.43 49.8714 115.239L52.7896 112.306C52.9793 112.115 53.286 112.115 53.4757 112.306C53.6654 112.496 53.6654 112.805 53.4757 112.995L50.5638 115.922C50.469 116.018 50.3425 116.069 50.2161 116.069ZM46.9691 115.379C46.8458 115.379 46.7193 115.331 46.6245 115.236L43.7063 112.302C43.5166 112.112 43.5166 111.803 43.7063 111.613C43.896 111.422 44.2027 111.422 44.3923 111.613L47.3105 114.546C47.5002 114.737 47.5002 115.045 47.3105 115.236C47.2157 115.331 47.0924 115.379 46.9659 115.379H46.9691ZM55.8279 110.43C55.7046 110.43 55.5782 110.383 55.4833 110.287C55.2936 110.097 55.2936 109.788 55.4833 109.598L58.4015 106.664C58.5912 106.474 58.8979 106.474 59.0876 106.664C59.2773 106.855 59.2773 107.163 59.0876 107.354L56.1694 110.287C56.0745 110.383 55.9512 110.43 55.8248 110.43H55.8279ZM41.3572 109.738C41.2339 109.738 41.1074 109.69 41.0126 109.595L38.0944 106.661C37.9047 106.47 37.9047 106.162 38.0944 105.971C38.2841 105.781 38.5908 105.781 38.7805 105.971L41.6986 108.905C41.8883 109.096 41.8883 109.404 41.6986 109.595C41.6038 109.69 41.4805 109.738 41.354 109.738H41.3572ZM61.4398 104.789C61.3165 104.789 61.19 104.742 61.0952 104.646C60.9055 104.455 60.9055 104.147 61.0952 103.956L64.0134 101.023C64.2031 100.832 64.5097 100.832 64.6994 101.023C64.8891 101.214 64.8891 101.522 64.6994 101.713L61.7813 104.646C61.6864 104.742 61.5631 104.789 61.4366 104.789H61.4398ZM35.7453 104.096C35.622 104.096 35.4955 104.049 35.4007 103.953L32.4825 101.02C32.2928 100.829 32.2928 100.521 32.4825 100.33C32.6722 100.139 32.9789 100.139 33.1686 100.33L36.0868 103.264C36.2765 103.454 36.2765 103.763 36.0868 103.953C35.9919 104.049 35.8686 104.096 35.7422 104.096H35.7453ZM67.0517 99.1478C66.9284 99.1478 66.8019 99.1002 66.7071 99.0048C66.5174 98.8141 66.5174 98.5059 66.7071 98.3152L69.6252 95.3817C69.8149 95.191 70.1216 95.191 70.3113 95.3817C70.501 95.5724 70.501 95.8807 70.3113 96.0713L67.3931 99.0048C67.2983 99.1002 67.175 99.1478 67.0485 99.1478H67.0517ZM30.1334 98.455C30.0101 98.455 29.8837 98.4073 29.7888 98.312L26.8706 95.3785C26.6809 95.1878 26.6809 94.8795 26.8706 94.6888C27.0603 94.4981 27.367 94.4981 27.5567 94.6888L30.4749 97.6223C30.6646 97.813 30.6646 98.1213 30.4749 98.312C30.38 98.4073 30.2567 98.455 30.1303 98.455H30.1334ZM72.6636 93.5065C72.5403 93.5065 72.4138 93.4589 72.319 93.3635C72.1293 93.1728 72.1293 92.8645 72.319 92.6738L73.1188 91.8698C73.3686 91.6187 73.5077 91.2818 73.5077 90.9258C73.5077 90.5699 73.3686 90.233 73.1188 89.9819L73.0177 89.8802C72.828 89.6895 72.828 89.3812 73.0177 89.1905C73.2074 88.9998 73.514 88.9998 73.7037 89.1905L73.8049 89.2922C74.2412 89.7308 74.4783 90.3093 74.4783 90.929C74.4783 91.5488 74.2381 92.1272 73.8049 92.5658L73.005 93.3699C72.9102 93.4652 72.7869 93.5129 72.6604 93.5129L72.6636 93.5065ZM24.5216 92.8105C24.3983 92.8105 24.2718 92.7628 24.1769 92.6675L24.0694 92.5594C23.6331 92.124 23.396 91.5424 23.396 90.9226C23.396 90.3029 23.6363 89.7245 24.0694 89.2859L24.863 88.4881C25.0527 88.2974 25.3594 88.2974 25.5491 88.4881C25.7388 88.6788 25.7388 88.9871 25.5491 89.1778L24.7555 89.9755C24.5057 90.2266 24.3666 90.5635 24.3666 90.9195C24.3666 91.2754 24.5057 91.6123 24.7555 91.8634L24.863 91.9715C25.0527 92.1621 25.0527 92.4704 24.863 92.6611C24.7682 92.7565 24.6449 92.8041 24.5184 92.8041L24.5216 92.8105ZM70.6654 87.3122C70.5421 87.3122 70.4157 87.2645 70.3208 87.1692L67.4026 84.2357C67.2129 84.045 67.2129 83.7367 67.4026 83.546C67.5923 83.3553 67.899 83.3553 68.0887 83.546L71.0069 86.4795C71.1966 86.6702 71.1966 86.9785 71.0069 87.1692C70.912 87.2645 70.7887 87.3122 70.6623 87.3122H70.6654ZM27.8982 86.6162C27.7749 86.6162 27.6484 86.5685 27.5536 86.4731C27.3639 86.2825 27.3639 85.9742 27.5536 85.7835L30.4717 82.85C30.6614 82.6593 30.9681 82.6593 31.1578 82.85C31.3475 83.0407 31.3475 83.349 31.1578 83.5397L28.2396 86.4731C28.1448 86.5685 28.0215 86.6162 27.895 86.6162H27.8982ZM65.0535 81.6677C64.9302 81.6677 64.8038 81.62 64.7089 81.5247L61.7907 78.5912C61.6011 78.4005 61.6011 78.0922 61.7907 77.9015C61.9804 77.7108 62.2871 77.7108 62.4768 77.9015L65.395 80.835C65.5847 81.0257 65.5847 81.334 65.395 81.5247C65.3001 81.62 65.1768 81.6677 65.0504 81.6677H65.0535ZM33.51 80.9748C33.3867 80.9748 33.2603 80.9272 33.1654 80.8318C32.9757 80.6411 32.9757 80.3329 33.1654 80.1422L36.0836 77.2087C36.2733 77.018 36.58 77.018 36.7697 77.2087C36.9594 77.3994 36.9594 77.7076 36.7697 77.8983L33.8515 80.8318C33.7567 80.9272 33.6334 80.9748 33.5069 80.9748H33.51ZM59.4417 76.0264C59.3184 76.0264 59.1919 75.9787 59.097 75.8834L56.1789 72.9499C55.9892 72.7592 55.9892 72.4509 56.1789 72.2602C56.3686 72.0695 56.6752 72.0695 56.8649 72.2602L59.7831 75.1937C59.9728 75.3844 59.9728 75.6927 59.7831 75.8834C59.6883 75.9787 59.565 76.0264 59.4385 76.0264H59.4417ZM39.1219 75.3335C38.9986 75.3335 38.8722 75.2859 38.7773 75.1905C38.5876 74.9998 38.5876 74.6915 38.7773 74.5008L41.6955 71.5673C41.8852 71.3767 42.1919 71.3767 42.3816 71.5673C42.5713 71.758 42.5713 72.0663 42.3816 72.257L39.4634 75.1905C39.3685 75.2859 39.2452 75.3335 39.1188 75.3335H39.1219ZM53.8298 70.3851C53.7065 70.3851 53.58 70.3374 53.4852 70.242L50.567 67.3085C50.3773 67.1179 50.3773 66.8096 50.567 66.6189C50.7567 66.4282 51.0634 66.4282 51.2531 66.6189L54.1712 69.5524C54.3609 69.7431 54.3609 70.0513 54.1712 70.242C54.0764 70.3374 53.9531 70.3851 53.8266 70.3851H53.8298ZM44.737 69.6922C44.6137 69.6922 44.4872 69.6445 44.3923 69.5492C44.2027 69.3585 44.2027 69.0502 44.3923 68.8595L47.3105 65.926C47.5002 65.7353 47.8164 65.729 48.0061 65.9197C48.1958 66.1104 48.2021 66.4123 48.0124 66.603L47.6678 66.2566L48.0092 66.603L45.0784 69.5492C44.9836 69.6445 44.8603 69.6922 44.7338 69.6922H44.737Z" fill="#FFF5E1"/>
<path d="M119.557 116.069C119.433 116.069 119.31 116.021 119.215 115.926C119.026 115.735 119.022 115.43 119.215 115.239L122.133 112.306C122.323 112.115 122.63 112.115 122.82 112.306C123.009 112.496 123.009 112.805 122.82 112.995L119.908 115.922C119.813 116.018 119.686 116.069 119.56 116.069H119.557ZM116.31 115.379C116.186 115.379 116.06 115.331 115.965 115.236L113.047 112.302C112.857 112.112 112.857 111.803 113.047 111.613C113.237 111.422 113.543 111.422 113.733 111.613L116.651 114.546C116.841 114.737 116.841 115.045 116.651 115.236C116.556 115.331 116.433 115.379 116.307 115.379H116.31ZM125.169 110.43C125.045 110.43 124.919 110.383 124.824 110.287C124.634 110.097 124.634 109.788 124.824 109.598L127.742 106.664C127.932 106.474 128.239 106.474 128.428 106.664C128.618 106.855 128.618 107.163 128.428 107.354L125.51 110.287C125.415 110.383 125.292 110.43 125.165 110.43H125.169ZM110.698 109.738C110.575 109.738 110.448 109.69 110.353 109.595L107.435 106.661C107.245 106.47 107.245 106.162 107.435 105.971C107.625 105.781 107.931 105.781 108.121 105.971L111.039 108.905C111.229 109.096 111.229 109.404 111.039 109.595C110.944 109.69 110.821 109.738 110.695 109.738H110.698ZM130.78 104.789C130.657 104.789 130.531 104.742 130.436 104.646C130.246 104.455 130.246 104.147 130.436 103.956L133.354 101.023C133.544 100.832 133.85 100.832 134.04 101.023C134.23 101.214 134.23 101.522 134.04 101.713L131.122 104.646C131.027 104.742 130.904 104.789 130.777 104.789H130.78ZM105.086 104.096C104.963 104.096 104.836 104.049 104.741 103.953L101.823 101.02C101.634 100.829 101.634 100.521 101.823 100.33C102.013 100.139 102.32 100.139 102.509 100.33L105.427 103.264C105.617 103.454 105.617 103.763 105.427 103.953C105.333 104.049 105.209 104.096 105.083 104.096H105.086ZM136.392 99.1478C136.269 99.1478 136.143 99.1002 136.048 99.0048C135.858 98.8141 135.858 98.5059 136.048 98.3152L138.966 95.3817C139.156 95.191 139.462 95.191 139.652 95.3817C139.842 95.5724 139.842 95.8807 139.652 96.0713L136.734 99.0048C136.639 99.1002 136.516 99.1478 136.389 99.1478H136.392ZM99.4741 98.455C99.3508 98.455 99.2243 98.4073 99.1295 98.312L96.2113 95.3785C96.0216 95.1878 96.0216 94.8795 96.2113 94.6888C96.401 94.4981 96.7077 94.4981 96.8974 94.6888L99.8156 97.6223C100.005 97.813 100.005 98.1213 99.8156 98.312C99.7207 98.4073 99.5974 98.455 99.471 98.455H99.4741ZM142.004 93.5065C141.881 93.5065 141.754 93.4589 141.66 93.3635C141.47 93.1728 141.47 92.8645 141.66 92.6738L142.46 91.8698C142.709 91.6187 142.848 91.2818 142.848 90.9258C142.848 90.5699 142.709 90.233 142.46 89.9819L142.358 89.8802C142.169 89.6895 142.169 89.3812 142.358 89.1905C142.548 88.9998 142.855 88.9998 143.044 89.1905L143.146 89.2922C143.582 89.7308 143.819 90.3093 143.819 90.929C143.819 91.5488 143.579 92.1272 143.146 92.5658L142.346 93.3699C142.251 93.4652 142.128 93.5129 142.001 93.5129L142.004 93.5065ZM93.8622 92.8137C93.7389 92.8137 93.6125 92.766 93.5176 92.6707L93.4101 92.5626C92.9738 92.1272 92.7367 91.5456 92.7367 90.9258C92.7367 90.3061 92.977 89.7276 93.4101 89.289L94.2037 88.4913C94.3934 88.3006 94.7001 88.3006 94.8898 88.4913C95.0795 88.682 95.0795 88.9903 94.8898 89.181L94.0962 89.9787C93.8464 90.2298 93.7073 90.5667 93.7073 90.9226C93.7073 91.2786 93.8464 91.6155 94.0962 91.8666L94.2037 91.9746C94.3934 92.1653 94.3934 92.4736 94.2037 92.6643C94.1088 92.7596 93.9855 92.8073 93.8591 92.8073L93.8622 92.8137ZM140.006 87.3122C139.883 87.3122 139.756 87.2645 139.661 87.1692L136.743 84.2357C136.554 84.045 136.554 83.7367 136.743 83.546C136.933 83.3553 137.24 83.3553 137.429 83.546L140.348 86.4795C140.537 86.6702 140.537 86.9785 140.348 87.1692C140.253 87.2645 140.129 87.3122 140.003 87.3122H140.006ZM97.2388 86.6162C97.1155 86.6162 96.9891 86.5685 96.8942 86.4731C96.7045 86.2825 96.7045 85.9742 96.8942 85.7835L99.8124 82.85C100.002 82.6593 100.309 82.6593 100.498 82.85C100.688 83.0407 100.688 83.349 100.498 83.5397L97.5803 86.4731C97.4855 86.5685 97.3621 86.6162 97.2357 86.6162H97.2388ZM134.394 81.6677C134.271 81.6677 134.144 81.62 134.05 81.5247L131.131 78.5912C130.942 78.4005 130.942 78.0922 131.131 77.9015C131.321 77.7108 131.628 77.7108 131.817 77.9015L134.736 80.835C134.925 81.0257 134.925 81.334 134.736 81.5247C134.641 81.62 134.518 81.6677 134.391 81.6677H134.394ZM102.851 80.9748C102.727 80.9748 102.601 80.9272 102.506 80.8318C102.316 80.6411 102.316 80.3329 102.506 80.1422L105.424 77.2087C105.614 77.018 105.921 77.018 106.11 77.2087C106.3 77.3994 106.3 77.7076 106.11 77.8983L103.192 80.8318C103.097 80.9272 102.974 80.9748 102.848 80.9748H102.851ZM128.782 76.0264C128.659 76.0264 128.533 75.9787 128.438 75.8834L125.52 72.9499C125.33 72.7592 125.33 72.4509 125.52 72.2602C125.709 72.0695 126.016 72.0695 126.206 72.2602L129.124 75.1937C129.313 75.3844 129.313 75.6927 129.124 75.8834C129.029 75.9787 128.906 76.0264 128.779 76.0264H128.782ZM108.463 75.3335C108.339 75.3335 108.213 75.2859 108.118 75.1905C107.928 74.9998 107.928 74.6915 108.118 74.5008L111.036 71.5673C111.226 71.3767 111.533 71.3767 111.722 71.5673C111.912 71.758 111.912 72.0663 111.722 72.257L108.804 75.1905C108.709 75.2859 108.586 75.3335 108.459 75.3335H108.463ZM123.17 70.3851C123.047 70.3851 122.921 70.3374 122.826 70.242L119.908 67.3085C119.718 67.1179 119.718 66.8096 119.908 66.6189C120.097 66.4282 120.404 66.4282 120.594 66.6189L123.512 69.5524C123.702 69.7431 123.702 70.0513 123.512 70.242C123.417 70.3374 123.294 70.3851 123.167 70.3851H123.17ZM114.074 69.6922C113.951 69.6922 113.825 69.6445 113.73 69.5492C113.54 69.3585 113.54 69.0502 113.73 68.8595L116.648 65.926C116.838 65.7353 117.154 65.729 117.344 65.9197C117.533 66.1104 117.54 66.4123 117.35 66.603L117.005 66.2566L117.347 66.603L114.416 69.5492C114.321 69.6445 114.198 69.6922 114.071 69.6922H114.074Z" fill="#FFF5E1"/>
<path d="M83.6091 81.7471C82.9926 81.7471 82.4172 81.5055 81.9809 81.0701L81.181 80.266C80.9913 80.0753 80.9913 79.767 81.181 79.5763C81.3707 79.3857 81.6805 79.3857 81.867 79.5763L82.6669 80.3804C82.9167 80.6315 83.2518 80.7713 83.6059 80.7713C83.96 80.7713 84.2952 80.6315 84.5449 80.3804L84.6461 80.2787C84.8358 80.088 85.1425 80.088 85.3322 80.2787C85.5219 80.4694 85.5219 80.7777 85.3322 80.9684L85.231 81.0701C84.7979 81.5087 84.2193 81.7471 83.6028 81.7471H83.6091ZM87.6876 78.4036C87.5643 78.4036 87.4378 78.3559 87.343 78.2606C87.1533 78.0699 87.1533 77.7616 87.343 77.5709L90.2611 74.6374C90.4508 74.4467 90.7575 74.4467 90.9472 74.6374C91.1369 74.8281 91.1369 75.1364 90.9472 75.3271L88.029 78.2606C87.9342 78.3559 87.8109 78.4036 87.6844 78.4036H87.6876ZM78.8319 77.7012C78.7086 77.7012 78.5821 77.6535 78.4873 77.5582L75.5691 74.6247C75.3794 74.434 75.3794 74.1257 75.5691 73.935C75.7588 73.7443 76.0655 73.7443 76.2552 73.935L79.1733 76.8685C79.363 77.0592 79.363 77.3675 79.1733 77.5582C79.0785 77.6535 78.9552 77.7012 78.8287 77.7012H78.8319ZM93.2995 72.7623C93.1762 72.7623 93.0497 72.7146 92.9549 72.6192C92.7652 72.4285 92.7652 72.1203 92.9549 71.9296L95.873 68.9961C96.0627 68.8054 96.3694 68.8054 96.5591 68.9961C96.7488 69.1868 96.7488 69.4951 96.5591 69.6858L93.6409 72.6192C93.5461 72.7146 93.4228 72.7623 93.2963 72.7623H93.2995ZM73.2168 72.0599C73.0935 72.0599 72.9671 72.0122 72.8722 71.9169L69.9541 68.9834C69.7644 68.7927 69.7644 68.4844 69.9541 68.2937C70.1437 68.103 70.4504 68.103 70.6401 68.2937L73.5583 71.2272C73.748 71.4179 73.748 71.7262 73.5583 71.9169C73.4635 72.0122 73.3402 72.0599 73.2137 72.0599H73.2168ZM98.9113 67.1209C98.788 67.1209 98.6616 67.0733 98.5667 66.9779C98.377 66.7872 98.377 66.4789 98.5667 66.2883L101.485 63.3548C101.675 63.1641 101.981 63.1641 102.171 63.3548C102.361 63.5455 102.361 63.8537 102.171 64.0444L99.2528 66.9779C99.1579 67.0733 99.0346 67.1209 98.9082 67.1209H98.9113ZM67.605 66.4186C67.4817 66.4186 67.3552 66.3709 67.2604 66.2755L64.3422 63.342C64.1525 63.1514 64.1525 62.8431 64.3422 62.6524C64.5319 62.4617 64.8385 62.4617 65.0282 62.6524L67.9464 65.5859C68.1361 65.7766 68.1361 66.0848 67.9464 66.2755C67.8516 66.3709 67.7283 66.4186 67.6018 66.4186H67.605ZM104.523 61.4764C104.4 61.4764 104.273 61.4288 104.179 61.3334C103.989 61.1427 103.989 60.8344 104.179 60.6437L107.097 57.7103C107.286 57.5196 107.593 57.5196 107.783 57.7103C107.973 57.901 107.973 58.2092 107.783 58.3999L104.865 61.3334C104.77 61.4288 104.647 61.4764 104.52 61.4764H104.523ZM61.9931 60.7772C61.8698 60.7772 61.7433 60.7296 61.6485 60.6342L58.7177 57.688C58.5343 57.491 58.5438 57.1827 58.7429 56.9983C58.9326 56.8204 59.2298 56.8235 59.4132 57.0047C59.4132 57.0047 59.4132 57.0111 59.4164 57.0111L59.4227 57.0174L62.3345 59.9445C62.5242 60.1352 62.5242 60.4435 62.3345 60.6342C62.2397 60.7296 62.1164 60.7772 61.9899 60.7772H61.9931ZM107.796 55.1327L108.146 54.7927L107.792 55.1296L104.871 52.1929C104.681 52.0022 104.681 51.6939 104.871 51.5032C105.061 51.3125 105.367 51.3125 105.557 51.5032L108.475 54.4367L108.146 54.7958L107.796 55.1359V55.1327ZM59.7673 54.5829C59.644 54.5829 59.5175 54.5352 59.4227 54.4399C59.233 54.2492 59.233 53.9409 59.4227 53.7502L62.3409 50.8167C62.5306 50.626 62.8372 50.626 63.0269 50.8167C63.2166 51.0074 63.2166 51.3157 63.0269 51.5064L60.1088 54.4399C60.0139 54.5352 59.8906 54.5829 59.7641 54.5829H59.7673ZM102.522 49.6281C102.399 49.6281 102.272 49.5804 102.177 49.4851L99.2591 46.5516C99.0694 46.3609 99.0694 46.0526 99.2591 45.8619C99.4488 45.6712 99.7555 45.6712 99.9452 45.8619L102.863 48.7954C103.053 48.9861 103.053 49.2944 102.863 49.4851C102.769 49.5804 102.645 49.6281 102.519 49.6281H102.522ZM65.3792 48.9416C65.2559 48.9416 65.1294 48.8939 65.0346 48.7986C64.8449 48.6079 64.8449 48.2996 65.0346 48.1089L67.9527 45.1754C68.1424 44.9847 68.4491 44.9847 68.6388 45.1754C68.8285 45.3661 68.8285 45.6744 68.6388 45.8651L65.7206 48.7986C65.6258 48.8939 65.5025 48.9416 65.376 48.9416H65.3792ZM96.9069 43.9867C96.7836 43.9867 96.6571 43.9391 96.5623 43.8437L93.6441 40.9102C93.4544 40.7195 93.4544 40.4113 93.6441 40.2206C93.8338 40.0299 94.1405 40.0299 94.3301 40.2206L97.2483 43.1541C97.438 43.3448 97.438 43.653 97.2483 43.8437C97.1535 43.9391 97.0302 43.9867 96.9037 43.9867H96.9069ZM70.9911 43.2971C70.8678 43.2971 70.7413 43.2494 70.6464 43.1541C70.4568 42.9634 70.4568 42.6551 70.6464 42.4644L73.5646 39.5309C73.7543 39.3402 74.061 39.3402 74.2507 39.5309C74.4404 39.7216 74.4404 40.0299 74.2507 40.2206L71.3325 43.1541C71.2377 43.2494 71.1144 43.2971 70.9879 43.2971H70.9911ZM91.295 38.3454C91.1717 38.3454 91.0452 38.2978 90.9504 38.2024L88.0322 35.2689C87.8425 35.0782 87.8425 34.7699 88.0322 34.5792C88.2219 34.3886 88.5286 34.3886 88.7183 34.5792L91.6364 37.5127C91.8261 37.7034 91.8261 38.0117 91.6364 38.2024C91.5416 38.2978 91.4183 38.3454 91.2918 38.3454H91.295ZM76.6029 37.6558C76.4796 37.6558 76.3532 37.6081 76.2583 37.5127C76.0686 37.322 76.0686 37.0138 76.2583 36.8231L79.1765 33.8896C79.3662 33.6989 79.6729 33.6989 79.8626 33.8896C80.0523 34.0803 80.0523 34.3886 79.8626 34.5792L76.9444 37.5127C76.8495 37.6081 76.7262 37.6558 76.5998 37.6558H76.6029ZM85.6831 32.7041C85.5598 32.7041 85.4334 32.6564 85.3385 32.5611L84.5449 31.7634C84.2952 31.5123 83.96 31.3724 83.6059 31.3724C83.2518 31.3724 82.9167 31.5123 82.6669 31.7634L82.5594 31.8746C82.3697 32.0653 82.0599 32.0653 81.8734 31.8746C81.6837 31.6839 81.6837 31.3756 81.8734 31.1849L81.9809 31.0769C82.414 30.6414 82.9926 30.3999 83.6091 30.3999C84.2256 30.3999 84.801 30.6414 85.2373 31.0769L86.0309 31.8746C86.2206 32.0653 86.2206 32.3736 86.0309 32.5643C85.936 32.6596 85.8127 32.7073 85.6863 32.7073L85.6831 32.7041Z" fill="#5EAAA8"/>
<path d="M93.6314 59.2071C93.622 59.1181 93.584 59.0291 93.5176 58.9623L83.4605 48.8524L82.5152 47.9022C79.6982 45.0704 75.1328 45.0704 72.3158 47.9022C69.4988 50.7339 69.4988 55.3233 72.3158 58.1551L77.1752 63.04L83.4036 69.3011C84.0928 69.9939 85.212 69.9939 85.9013 69.3011L85.974 69.228C86.5937 68.605 86.6537 67.6325 86.1574 66.9396C86.8466 67.4354 87.8141 67.3751 88.4337 66.7521L88.5065 66.679C89.0661 66.1165 89.0028 65.0963 88.6519 64.4257C89.319 64.7753 90.3275 64.8452 90.8872 64.2827L90.9599 64.2096C91.5796 63.5866 91.6396 62.6141 91.1432 61.9212C91.8325 62.4202 92.8442 62.3153 93.4639 61.6924L93.5366 61.6193C94.1942 60.9582 94.2227 59.9063 93.6251 59.2102L93.6314 59.2071Z" fill="#FF6B6B"/>
<path d="M84.6524 70.0639C84.115 70.0639 83.6123 69.8541 83.2329 69.4728L72.1451 58.3268C69.2395 55.406 69.2395 50.6514 72.1451 47.7306C75.0506 44.8098 79.7804 44.8098 82.6859 47.7306L93.6883 58.7908C93.7737 58.8766 93.8338 58.9847 93.8591 59.1023C94.4946 59.8968 94.4345 61.0632 93.7136 61.791L93.6409 61.8641C93.1066 62.4012 92.3383 62.5983 91.6523 62.4203C91.842 63.1036 91.6618 63.8537 91.1369 64.3813L91.0642 64.4544C90.5615 64.9597 89.7553 65.0264 89.0755 64.8453C89.2557 65.5318 89.1862 66.3422 88.6803 66.8507L88.6076 66.9238C88.0828 67.4514 87.3398 67.6326 86.6601 67.4451C86.8466 68.1252 86.6664 68.8753 86.1416 69.3997L86.0688 69.4728C85.6894 69.8541 85.1867 70.0639 84.6493 70.0639H84.6524ZM77.4155 46.0271C75.6292 46.0271 73.846 46.7104 72.4865 48.077C71.1713 49.3992 70.4441 51.1599 70.4441 53.0319C70.4441 54.9038 71.1681 56.6614 72.4865 57.9867L83.5743 69.1327C83.862 69.4219 84.2446 69.5808 84.6524 69.5808C85.0603 69.5808 85.4428 69.4219 85.7305 69.1327L85.8033 69.0596C86.3344 68.5256 86.4008 67.6961 85.9613 67.0827L85.8412 66.9143L86.1321 66.6219L86.3028 66.7395C86.9098 67.1813 87.7382 67.1145 88.2693 66.5806L88.342 66.5075C88.8068 66.0403 88.7594 65.1409 88.4464 64.5402L88.0859 63.8505L88.772 64.2128C89.3696 64.5275 90.2643 64.5751 90.7259 64.1143L90.7986 64.0412C91.3298 63.5073 91.3962 62.6777 90.9567 62.0643L90.0873 60.8503L91.295 61.7243C91.8831 62.1502 92.7651 62.0612 93.3026 61.5209L93.3753 61.4478C93.935 60.8852 93.9697 59.9699 93.4512 59.3692L93.4006 59.312L93.3943 59.2357C93.3943 59.2071 93.3817 59.169 93.3501 59.1372L82.3476 48.077C80.9881 46.7104 79.205 46.0271 77.4186 46.0271H77.4155Z" fill="#FFF5E1"/>
<path d="M94.8993 47.9275C92.0822 45.0958 87.5169 45.0958 84.6999 47.9275L80.2483 52.4025C82.9673 52.8252 85.6009 50.8483 86.2617 50.3112C86.3154 50.2667 86.366 50.2254 86.4198 50.1777C86.4198 50.1777 86.366 50.2286 86.2617 50.3112C85.9898 50.5432 85.7242 50.753 85.465 50.9437L93.78 59.3024L94.8961 58.1805C97.7131 55.3487 97.7131 50.7593 94.8961 47.9275H94.8993Z" fill="#FF6B6B"/>
<path d="M93.7832 59.6423L85.4081 51.2232C84.2003 52.0019 82.2433 52.9521 80.2135 52.6375L79.7424 52.5644L84.5291 47.7526C87.4347 44.8318 92.1644 44.8318 95.07 47.7526C97.9755 50.6734 97.9755 55.428 95.07 58.3487L93.7832 59.6423ZM85.8349 50.9658L93.7832 58.9558L94.7285 58.0055C97.4444 55.2754 97.4444 50.8291 94.7285 48.099C92.0127 45.3689 87.5896 45.3689 84.8738 48.099L80.7826 52.2116C83.1949 52.3324 85.446 50.6638 86.1099 50.1204L86.2617 49.9932L86.581 50.3587C86.581 50.3587 86.5241 50.4096 86.4166 50.4986C86.2269 50.6607 86.0309 50.8196 85.8349 50.9689V50.9658Z" fill="#FFF5E1"/>
<path d="M74.1257 61.0842L73.1242 60.0774C72.6927 59.6437 72.6904 58.9358 73.1242 58.4998L73.5333 58.0885C74.242 57.3761 75.3933 57.3739 76.1042 58.0885C76.8129 58.8009 76.8151 59.9583 76.1042 60.673L75.6951 61.0842C75.2636 61.518 74.5594 61.5202 74.1257 61.0842Z" fill="#FF6B6B"/>
<path d="M74.9083 61.6544C74.5637 61.6544 74.2159 61.5209 73.9535 61.2571L72.9513 60.2497C72.4233 59.7189 72.4233 58.8576 72.9513 58.33L73.3591 57.92C73.748 57.5291 74.2634 57.313 74.8135 57.313C75.3636 57.313 75.879 57.5291 76.2678 57.92C77.0709 58.7273 77.0709 60.0399 76.2678 60.8472L75.86 61.2571C75.5976 61.5209 75.2498 61.6544 74.9052 61.6544H74.9083ZM74.8167 57.7993C74.3962 57.7993 74.001 57.9645 73.7038 58.2633L73.2959 58.6733C72.9576 59.0133 72.9576 59.5663 73.2959 59.9064L74.2981 60.9139C74.6238 61.2413 75.196 61.2444 75.5249 60.9139L75.9327 60.5039C76.5461 59.8873 76.5461 58.883 75.9327 58.2665C75.6355 57.9677 75.2403 57.8024 74.8198 57.8024L74.8167 57.7993Z" fill="#FFF5E1"/>
<path d="M76.734 63.7073L75.7325 62.7005C75.301 62.2667 75.2988 61.5588 75.7325 61.1228L76.1416 60.7116C76.8503 59.9992 78.0016 59.9969 78.7126 60.7116C79.4212 61.424 79.4235 62.5814 78.7126 63.296L78.3034 63.7073C77.872 64.141 77.1678 64.1433 76.734 63.7073Z" fill="#FF6B6B"/>
<path d="M77.5167 64.277C77.172 64.277 76.8243 64.1435 76.5619 63.8797L75.5596 62.8722C75.3035 62.6148 75.1644 62.2747 75.1644 61.9124C75.1644 61.5501 75.3035 61.21 75.5596 60.9526L75.9675 60.5426C76.3564 60.1517 76.8717 59.9355 77.4218 59.9355C77.9719 59.9355 78.4873 60.1517 78.8762 60.5426C79.6792 61.3499 79.6792 62.6624 78.8762 63.4697L78.4683 63.8797C78.2059 64.1435 77.8581 64.277 77.5135 64.277H77.5167ZM77.425 60.4218C77.0045 60.4218 76.6093 60.5871 76.3121 60.8858L75.9042 61.2958C75.7398 61.4611 75.6513 61.6804 75.6513 61.9124C75.6513 62.1444 75.743 62.3637 75.9042 62.529L76.9065 63.5365C77.2448 63.8765 77.7949 63.8765 78.1332 63.5365L78.541 63.1265C79.1544 62.5099 79.1544 61.5056 78.541 60.889C78.2438 60.5903 77.8486 60.425 77.4281 60.425L77.425 60.4218Z" fill="#FFF5E1"/>
<path d="M79.3686 66.3572L78.3671 65.3504C77.9356 64.9166 77.9334 64.2087 78.3671 63.7727L78.7762 63.3615C79.4849 62.6491 80.6362 62.6468 81.3471 63.3615C82.0558 64.0739 82.058 65.2313 81.3471 65.9459L80.938 66.3572C80.5065 66.7909 79.8023 66.7932 79.3686 66.3572Z" fill="#FF6B6B"/>
<path d="M80.1535 66.9274C79.8088 66.9274 79.4611 66.7939 79.1986 66.5301L78.1964 65.5226C77.9403 65.2652 77.8012 64.9251 77.8012 64.5628C77.8012 64.2005 77.9403 63.8604 78.1964 63.603L78.6043 63.193C78.9931 62.8021 79.5085 62.5859 80.0586 62.5859C80.6087 62.5859 81.1241 62.8021 81.513 63.193C82.316 64.0002 82.316 65.3128 81.513 66.1201L81.1051 66.5301C80.8427 66.7939 80.4949 66.9274 80.1503 66.9274H80.1535ZM80.0618 63.0754C79.6413 63.0754 79.2461 63.2406 78.9489 63.5394L78.541 63.9494C78.3766 64.1147 78.2881 64.334 78.2881 64.566C78.2881 64.798 78.3798 65.0173 78.541 65.1825L79.5433 66.19C79.8816 66.5301 80.4317 66.5301 80.77 66.19L81.1778 65.78C81.7912 65.1635 81.7912 64.1591 81.1778 63.5426C80.8806 63.2438 80.4854 63.0786 80.0649 63.0786L80.0618 63.0754Z" fill="#FFF5E1"/>
<path d="M81.9991 69.0007L80.9975 67.9939C80.566 67.5602 80.5638 66.8523 80.9975 66.4163L81.4066 66.005C82.1153 65.2926 83.2666 65.2904 83.9776 66.005C84.6863 66.7174 84.6885 67.8748 83.9776 68.5895L83.5685 69.0007C83.137 69.4345 82.4328 69.4367 81.9991 69.0007Z" fill="#FF6B6B"/>
<path d="M82.7808 69.5685C82.4203 69.5685 82.082 69.4286 81.826 69.1712L80.8237 68.1637C80.5676 67.9063 80.4285 67.5662 80.4285 67.2039C80.4285 66.8416 80.5676 66.5015 80.8237 66.2441L81.2316 65.8341C81.6204 65.4432 82.139 65.2271 82.6859 65.2271C83.2329 65.2271 83.7514 65.4432 84.1403 65.8341C84.5291 66.225 84.7441 66.7431 84.7441 67.2961C84.7441 67.8491 84.5291 68.3671 84.1403 68.758L83.7324 69.168C83.4763 69.4255 83.138 69.5653 82.7776 69.5653L82.7808 69.5685ZM82.6891 65.7165C82.2686 65.7165 81.8734 65.8818 81.5762 66.1805L81.1683 66.5905C81.0039 66.7558 80.9154 66.9751 80.9154 67.2071C80.9154 67.4391 81.0071 67.6584 81.1683 67.8236L82.1706 68.8311C82.4962 69.1585 83.0685 69.1617 83.3973 68.8311L83.8051 68.4212C84.1023 68.1224 84.2667 67.7251 84.2667 67.3024C84.2667 66.8797 84.1023 66.4824 83.8051 66.1837C83.5079 65.8849 83.1127 65.7197 82.6922 65.7197L82.6891 65.7165Z" fill="#FFF5E1"/>
<path d="M86.3356 56.7392L85.9935 57.083L90.9789 62.0946L91.321 61.7507L86.3356 56.7392Z" fill="#FFF5E1"/>
<path d="M83.8442 59.2416L83.5022 59.5854L88.4876 64.597L88.8296 64.2532L83.8442 59.2416Z" fill="#FFF5E1"/>
<path d="M81.3506 61.7499L81.0086 62.0938L85.994 67.1053L86.336 66.7615L81.3506 61.7499Z" fill="#FFF5E1"/>
</g>
<mask id="mask1_2116_3025" style="mask-type:luminance" maskUnits="userSpaceOnUse" x="19" y="107" width="129" height="75">
<path d="M147.426 107.935H19.5768V181.848H147.426V107.935Z" fill="white"/>
</mask>
<g mask="url(#mask1_2116_3025)">
<path d="M147.509 100.015C148.049 98.9441 148.922 98.0701 149.984 97.5266C150.62 97.1993 151.265 96.7321 151.859 96.1378C153.272 94.7171 153.971 92.9977 153.731 91.809C153.614 91.2274 153.614 90.6236 153.731 90.0419C153.971 88.8533 153.272 87.1339 151.859 85.7132C151.268 85.1189 150.623 84.6485 149.984 84.3244C148.919 83.7809 148.049 82.9037 147.509 81.8358C147.183 81.197 146.718 80.5486 146.127 79.9511C145.536 79.3536 144.891 78.8864 144.252 78.5623C143.187 78.0188 142.317 77.1416 141.777 76.0737C141.451 75.4349 140.986 74.7865 140.395 74.189C139.804 73.5915 139.159 73.1243 138.52 72.8002C137.455 72.2567 136.585 71.3795 136.045 70.3116C135.719 69.6728 135.254 69.0245 134.663 68.4269C134.072 67.8294 133.427 67.3622 132.788 67.0381C131.723 66.4946 130.853 65.6174 130.313 64.5495C129.987 63.9107 129.522 63.2624 128.931 62.6649C128.34 62.0705 127.695 61.6002 127.056 61.276C125.991 60.7325 125.121 59.8553 124.581 58.7874C124.255 58.1486 123.79 57.5003 123.199 56.9028C122.608 56.3084 121.963 55.8381 121.324 55.5139C120.259 54.9704 119.389 54.0932 118.848 53.0253C118.523 52.3865 118.058 51.7382 117.467 51.1407C116.876 50.5463 116.231 50.076 115.592 49.7518C114.527 49.2083 113.657 48.3311 113.116 47.2633C112.791 46.6244 112.326 45.9761 111.735 45.3786C111.144 44.7811 110.499 44.3139 109.86 43.9897C108.795 43.4462 107.925 42.569 107.384 41.5012C107.059 40.8623 106.594 40.214 106.003 39.6165C105.412 39.019 104.767 38.5518 104.128 38.2276C103.063 37.6841 102.193 36.8069 101.652 35.7391C101.327 35.1002 100.862 34.4519 100.271 33.8544C99.6796 33.2569 99.0346 32.7897 98.396 32.4655C97.3305 31.922 96.4611 31.0448 95.9204 29.977C95.5948 29.3381 95.13 28.6898 94.5388 28.0923C93.9476 27.4948 93.3026 27.0276 92.6639 26.7034C91.5985 26.1599 90.729 25.2828 90.1884 24.2149C89.8628 23.5761 89.398 22.9277 88.8068 22.3302C87.3935 20.9095 85.6831 20.2072 84.5006 20.4487C83.9221 20.5663 83.3214 20.5663 82.7428 20.4487C81.5603 20.2072 79.8499 20.9095 78.4367 22.3302C77.8454 22.9245 77.3775 23.5729 77.055 24.2149C76.5144 25.2859 75.6418 26.1599 74.5795 26.7034C73.944 27.0308 73.299 27.498 72.7046 28.0923C72.1103 28.6866 71.6455 29.335 71.323 29.977C70.7824 31.048 69.9098 31.922 68.8475 32.4655C68.212 32.7929 67.567 33.2601 66.9726 33.8544C66.3782 34.4487 65.9135 35.0971 65.591 35.7391C65.0504 36.8101 64.1777 37.6841 63.1154 38.2276C62.48 38.555 61.835 39.0222 61.2406 39.6165C60.6494 40.2108 60.1815 40.8592 59.859 41.5012C59.3183 42.5722 58.4457 43.4462 57.3834 43.9897C56.7479 44.317 56.103 44.7842 55.5086 45.3786C54.9142 45.9729 54.4494 46.6213 54.127 47.2633C53.5863 48.3343 52.7137 49.2083 51.6514 49.7518C51.0159 50.0791 50.3709 50.5463 49.7766 51.1407C49.1853 51.735 48.7174 52.3833 48.3949 53.0253C47.8543 54.0964 46.9817 54.9704 45.9194 55.5139C45.2839 55.8412 44.6389 56.3084 44.0445 56.9028C43.4502 57.4971 42.9854 58.1454 42.6629 58.7874C42.1223 59.8585 41.2497 60.7325 40.1874 61.276C39.5519 61.6033 38.9069 62.0705 38.3125 62.6649C37.7181 63.2592 37.2534 63.9075 36.9309 64.5495C36.3903 65.6206 35.5177 66.4946 34.4553 67.0381C33.8199 67.3654 33.1749 67.8326 32.5805 68.4269C31.9861 69.0213 31.5214 69.6696 31.1989 70.3116C30.6582 71.3827 29.7856 72.2567 28.7233 72.8002C28.0878 73.1275 27.4429 73.5947 26.8485 74.189C26.2541 74.7834 25.7893 75.4317 25.4669 76.0737C24.9262 77.1448 24.0536 78.0188 22.9913 78.5623C22.3558 78.8896 21.7109 79.3568 21.1165 79.9511C20.5221 80.5455 20.0573 81.1938 19.7348 81.8358C19.1942 82.9069 18.3216 83.7809 17.2593 84.3244C16.6238 84.6517 15.9788 85.1189 15.3844 85.7132C13.9712 87.1339 13.2725 88.8533 13.5128 90.0419C13.6297 90.6236 13.6297 91.2274 13.5128 91.809C13.2725 92.9977 13.9712 94.7171 15.3844 96.1378C15.9757 96.7321 16.6206 97.2025 17.2593 97.5266C18.3248 98.0701 19.1942 98.9473 19.7348 100.015C20.0605 100.654 20.5252 101.302 21.1165 101.9C21.7077 102.497 22.3527 102.965 22.9913 103.289C24.0568 103.832 24.9262 104.709 25.4669 105.777C25.7925 106.416 26.2573 107.064 26.8485 107.662C27.4397 108.259 28.0847 108.727 28.7233 109.051C29.7888 109.594 30.6582 110.471 31.1989 111.539C31.5245 112.178 31.9893 112.827 32.5805 113.424C33.1717 114.022 33.8167 114.489 34.4553 114.813C35.5208 115.356 36.3903 116.234 36.9309 117.301C37.2565 117.94 37.7213 118.589 38.3125 119.186C38.9037 119.784 39.5487 120.251 40.1874 120.575C41.2528 121.118 42.1223 121.996 42.6629 123.064C42.9886 123.702 43.4533 124.351 44.0445 124.948C44.6358 125.546 45.2807 126.013 45.9194 126.337C46.9849 126.881 47.8543 127.758 48.3949 128.826C48.7206 129.464 49.1853 130.113 49.7766 130.71C50.3678 131.305 51.0128 131.775 51.6514 132.099C52.7169 132.643 53.5863 133.52 54.127 134.588C54.4526 135.227 54.9174 135.875 55.5086 136.472C56.0998 137.07 56.7448 137.537 57.3834 137.861C58.4489 138.405 59.3183 139.282 59.859 140.35C60.1846 140.989 60.6494 141.637 61.2406 142.234C61.8318 142.832 62.4768 143.299 63.1154 143.623C64.1809 144.167 65.0504 145.044 65.591 146.112C65.9166 146.751 66.3814 147.399 66.9726 147.997C67.5638 148.591 68.2088 149.061 68.8475 149.385C69.9129 149.929 70.7824 150.806 71.323 151.874C71.6487 152.513 72.1134 153.161 72.7046 153.759C73.2959 154.356 73.9408 154.823 74.5795 155.148C75.6449 155.691 76.5144 156.568 77.055 157.636C77.3807 158.275 77.8454 158.923 78.4367 159.521C79.8499 160.941 81.5603 161.644 82.7428 161.402C83.3214 161.285 83.9221 161.285 84.5006 161.402C85.6831 161.644 87.3935 160.941 88.8068 159.521C89.398 158.926 89.8659 158.278 90.1884 157.636C90.729 156.565 91.6016 155.691 92.6639 155.148C93.2994 154.82 93.9444 154.353 94.5388 153.759C95.1332 153.164 95.5979 152.516 95.9204 151.874C96.4611 150.803 97.3337 149.929 98.396 149.385C99.0315 149.058 99.6764 148.591 100.271 147.997C100.865 147.402 101.33 146.754 101.652 146.112C102.193 145.041 103.066 144.167 104.128 143.623C104.763 143.296 105.408 142.829 106.003 142.234C106.597 141.64 107.062 140.992 107.384 140.35C107.925 139.279 108.798 138.405 109.86 137.861C110.495 137.534 111.14 137.067 111.735 136.472C112.326 135.878 112.794 135.23 113.116 134.588C113.657 133.517 114.53 132.643 115.592 132.099C116.228 131.772 116.872 131.305 117.467 130.71C118.061 130.116 118.526 129.468 118.848 128.826C119.389 127.755 120.262 126.881 121.324 126.337C121.96 126.01 122.605 125.543 123.199 124.948C123.79 124.354 124.258 123.706 124.581 123.064C125.121 121.992 125.994 121.118 127.056 120.575C127.692 120.248 128.337 119.78 128.931 119.186C129.522 118.592 129.99 117.943 130.313 117.301C130.853 116.23 131.726 115.356 132.788 114.813C133.424 114.486 134.069 114.018 134.663 113.424C135.257 112.83 135.722 112.181 136.045 111.539C136.585 110.468 137.458 109.594 138.52 109.051C139.156 108.723 139.801 108.256 140.395 107.662C140.986 107.068 141.454 106.419 141.777 105.777C142.317 104.706 143.19 103.832 144.252 103.289C144.888 102.961 145.533 102.494 146.127 101.9C146.718 101.306 147.186 100.657 147.509 100.015Z" fill="#FFD3B5"/>
<path d="M83.6052 90.9237L48.9354 125.775L83.6052 160.627L118.275 125.775L83.6052 90.9237Z" fill="#FFF5E1"/>
<path d="M83.609 161.32L83.2644 160.973L48.2495 125.775L48.5941 125.428L83.609 90.2295L118.965 125.771L118.621 126.118L83.6059 161.317L83.609 161.32ZM49.6248 125.775L83.609 159.934L117.59 125.775L83.609 91.612L49.6248 125.775Z" fill="#FFD3B5"/>
<path d="M118.276 56.0712L83.6058 90.9229L118.276 125.775L152.945 90.9229L118.276 56.0712Z" fill="#5EAAA8"/>
<path d="M118.276 126.467L117.932 126.121L82.9167 90.9223L118.273 55.3804L153.629 90.9223L153.285 91.2687L118.27 126.467H118.276ZM84.2951 90.9223L118.276 125.085L152.26 90.9223L118.279 56.7629L84.2951 90.9223Z" fill="#FFD3B5"/>
<path d="M48.9371 56.0712L14.2674 90.9229L48.9371 125.775L83.6069 90.9229L48.9371 56.0712Z" fill="#5EAAA8"/>
<path d="M48.9387 126.467L13.5823 90.9252L48.9387 55.3833L84.2951 90.9252L83.9505 91.2716L48.9356 126.47L48.9387 126.467ZM14.9545 90.922L48.9356 125.085L82.9198 90.922L48.9356 56.7626L14.9545 90.922Z" fill="#FFD3B5"/>
<path d="M50.216 116.069C50.0927 116.069 49.9663 116.021 49.8746 115.926C49.6849 115.735 49.6817 115.43 49.8714 115.239L52.7896 112.306C52.9793 112.115 53.286 112.115 53.4757 112.306C53.6654 112.496 53.6654 112.805 53.4757 112.995L50.5638 115.922C50.469 116.018 50.3425 116.069 50.216 116.069ZM46.969 115.379C46.8457 115.379 46.7193 115.331 46.6244 115.236L43.7063 112.302C43.5166 112.112 43.5166 111.803 43.7063 111.613C43.896 111.422 44.2026 111.422 44.3923 111.613L47.3105 114.546C47.5002 114.737 47.5002 115.045 47.3105 115.236C47.2157 115.331 47.0923 115.379 46.9659 115.379H46.969ZM55.8279 110.43C55.7046 110.43 55.5781 110.383 55.4833 110.287C55.2936 110.097 55.2936 109.788 55.4833 109.598L58.4015 106.664C58.5912 106.474 58.8978 106.474 59.0875 106.664C59.2772 106.855 59.2772 107.163 59.0875 107.354L56.1694 110.287C56.0745 110.383 55.9512 110.43 55.8247 110.43H55.8279ZM41.3572 109.738C41.2339 109.738 41.1074 109.69 41.0126 109.595L38.0944 106.661C37.9047 106.47 37.9047 106.162 38.0944 105.971C38.2841 105.781 38.5907 105.781 38.7804 105.971L41.6986 108.905C41.8883 109.096 41.8883 109.404 41.6986 109.595C41.6038 109.69 41.4805 109.738 41.354 109.738H41.3572ZM61.4398 104.789C61.3165 104.789 61.19 104.742 61.0952 104.646C60.9055 104.455 60.9055 104.147 61.0952 103.956L64.0133 101.023C64.203 100.832 64.5097 100.832 64.6994 101.023C64.8891 101.214 64.8891 101.522 64.6994 101.713L61.7812 104.646C61.6864 104.742 61.5631 104.789 61.4366 104.789H61.4398ZM35.7453 104.096C35.622 104.096 35.4955 104.049 35.4007 103.953L32.4825 101.02C32.2928 100.829 32.2928 100.521 32.4825 100.33C32.6722 100.139 32.9789 100.139 33.1686 100.33L36.0867 103.264C36.2764 103.454 36.2764 103.763 36.0867 103.953C35.9919 104.049 35.8686 104.096 35.7421 104.096H35.7453ZM67.0517 99.1478C66.9284 99.1478 66.8019 99.1002 66.707 99.0048C66.5174 98.8141 66.5174 98.5059 66.707 98.3152L69.6252 95.3817C69.8149 95.191 70.1216 95.191 70.3113 95.3817C70.501 95.5724 70.501 95.8807 70.3113 96.0713L67.3931 99.0048C67.2983 99.1002 67.175 99.1478 67.0485 99.1478H67.0517ZM30.1334 98.455C30.0101 98.455 29.8836 98.4073 29.7888 98.312L26.8706 95.3785C26.6809 95.1878 26.6809 94.8795 26.8706 94.6888C27.0603 94.4981 27.367 94.4981 27.5567 94.6888L30.4749 97.6223C30.6646 97.813 30.6646 98.1213 30.4749 98.312C30.38 98.4073 30.2567 98.455 30.1303 98.455H30.1334ZM72.6635 93.5065C72.5402 93.5065 72.4138 93.4589 72.3189 93.3635C72.1292 93.1728 72.1292 92.8645 72.3189 92.6738L73.1188 91.8698C73.3686 91.6187 73.5077 91.2818 73.5077 90.9258C73.5077 90.5699 73.3686 90.233 73.1188 89.9819L73.0176 89.8802C72.8279 89.6895 72.8279 89.3812 73.0176 89.1905C73.2073 88.9998 73.514 88.9998 73.7037 89.1905L73.8049 89.2922C74.2412 89.7308 74.4783 90.3093 74.4783 90.929C74.4783 91.5488 74.238 92.1272 73.8049 92.5658L73.005 93.3699C72.9101 93.4652 72.7868 93.5129 72.6604 93.5129L72.6635 93.5065ZM24.5215 92.8105C24.3982 92.8105 24.2718 92.7628 24.1769 92.6675L24.0694 92.5594C23.6331 92.124 23.396 91.5424 23.396 90.9226C23.396 90.3029 23.6363 89.7245 24.0694 89.2859L24.863 88.4881C25.0527 88.2974 25.3594 88.2974 25.5491 88.4881C25.7388 88.6788 25.7388 88.9871 25.5491 89.1778L24.7555 89.9755C24.5057 90.2266 24.3666 90.5635 24.3666 90.9195C24.3666 91.2754 24.5057 91.6123 24.7555 91.8634L24.863 91.9715C25.0527 92.1621 25.0527 92.4704 24.863 92.6611C24.7681 92.7565 24.6448 92.8041 24.5184 92.8041L24.5215 92.8105ZM70.6654 87.3122C70.5421 87.3122 70.4156 87.2645 70.3208 87.1692L67.4026 84.2357C67.2129 84.045 67.2129 83.7367 67.4026 83.546C67.5923 83.3553 67.899 83.3553 68.0887 83.546L71.0069 86.4795C71.1965 86.6702 71.1965 86.9785 71.0069 87.1692C70.912 87.2645 70.7887 87.3122 70.6622 87.3122H70.6654ZM27.8981 86.6162C27.7748 86.6162 27.6484 86.5685 27.5535 86.4731C27.3638 86.2825 27.3638 85.9742 27.5535 85.7835L30.4717 82.85C30.6614 82.6593 30.9681 82.6593 31.1578 82.85C31.3475 83.0407 31.3475 83.349 31.1578 83.5397L28.2396 86.4731C28.1448 86.5685 28.0214 86.6162 27.895 86.6162H27.8981ZM65.0535 81.6677C64.9302 81.6677 64.8038 81.62 64.7089 81.5247L61.7907 78.5912C61.601 78.4005 61.601 78.0922 61.7907 77.9015C61.9804 77.7108 62.2871 77.7108 62.4768 77.9015L65.395 80.835C65.5847 81.0257 65.5847 81.334 65.395 81.5247C65.3001 81.62 65.1768 81.6677 65.0504 81.6677H65.0535ZM33.51 80.9748C33.3867 80.9748 33.2603 80.9272 33.1654 80.8318C32.9757 80.6411 32.9757 80.3329 33.1654 80.1422L36.0836 77.2087C36.2733 77.018 36.58 77.018 36.7697 77.2087C36.9594 77.3994 36.9594 77.7076 36.7697 77.8983L33.8515 80.8318C33.7566 80.9272 33.6333 80.9748 33.5069 80.9748H33.51ZM59.4416 76.0264C59.3183 76.0264 59.1919 75.9787 59.097 75.8834L56.1788 72.9499C55.9892 72.7592 55.9892 72.4509 56.1788 72.2602C56.3685 72.0695 56.6752 72.0695 56.8649 72.2602L59.7831 75.1937C59.9728 75.3844 59.9728 75.6927 59.7831 75.8834C59.6882 75.9787 59.5649 76.0264 59.4385 76.0264H59.4416ZM39.1219 75.3335C38.9986 75.3335 38.8721 75.2859 38.7773 75.1905C38.5876 74.9998 38.5876 74.6915 38.7773 74.5008L41.6955 71.5673C41.8852 71.3767 42.1918 71.3767 42.3815 71.5673C42.5712 71.758 42.5712 72.0663 42.3815 72.257L39.4634 75.1905C39.3685 75.2859 39.2452 75.3335 39.1187 75.3335H39.1219ZM53.8298 70.3851C53.7065 70.3851 53.58 70.3374 53.4851 70.242L50.567 67.3085C50.3773 67.1179 50.3773 66.8096 50.567 66.6189C50.7567 66.4282 51.0633 66.4282 51.253 66.6189L54.1712 69.5524C54.3609 69.7431 54.3609 70.0513 54.1712 70.242C54.0764 70.3374 53.9531 70.3851 53.8266 70.3851H53.8298ZM44.7369 69.6922C44.6136 69.6922 44.4872 69.6445 44.3923 69.5492C44.2026 69.3585 44.2026 69.0502 44.3923 68.8595L47.3105 65.926C47.5002 65.7353 47.8164 65.729 48.0061 65.9197C48.1958 66.1104 48.2021 66.4123 48.0124 66.603L47.6678 66.2566L48.0092 66.603L45.0784 69.5492C44.9835 69.6445 44.8602 69.6922 44.7338 69.6922H44.7369Z" fill="#FFF5E1"/>
<path d="M119.557 116.069C119.433 116.069 119.31 116.021 119.215 115.926C119.026 115.735 119.022 115.43 119.215 115.239L122.133 112.306C122.323 112.115 122.63 112.115 122.819 112.306C123.009 112.496 123.009 112.805 122.819 112.995L119.908 115.922C119.813 116.018 119.686 116.069 119.56 116.069H119.557ZM116.31 115.379C116.186 115.379 116.06 115.331 115.965 115.236L113.047 112.302C112.857 112.112 112.857 111.803 113.047 111.613C113.237 111.422 113.543 111.422 113.733 111.613L116.651 114.546C116.841 114.737 116.841 115.045 116.651 115.236C116.556 115.331 116.433 115.379 116.307 115.379H116.31ZM125.169 110.43C125.045 110.43 124.919 110.383 124.824 110.287C124.634 110.097 124.634 109.788 124.824 109.598L127.742 106.664C127.932 106.474 128.239 106.474 128.428 106.664C128.618 106.855 128.618 107.163 128.428 107.354L125.51 110.287C125.415 110.383 125.292 110.43 125.165 110.43H125.169ZM110.698 109.738C110.575 109.738 110.448 109.69 110.353 109.595L107.435 106.661C107.245 106.47 107.245 106.162 107.435 105.971C107.625 105.781 107.931 105.781 108.121 105.971L111.039 108.905C111.229 109.096 111.229 109.404 111.039 109.595C110.944 109.69 110.821 109.738 110.695 109.738H110.698ZM130.78 104.789C130.657 104.789 130.531 104.742 130.436 104.646C130.246 104.455 130.246 104.147 130.436 103.956L133.354 101.023C133.544 100.832 133.85 100.832 134.04 101.023C134.23 101.214 134.23 101.522 134.04 101.713L131.122 104.646C131.027 104.742 130.904 104.789 130.777 104.789H130.78ZM105.086 104.096C104.963 104.096 104.836 104.049 104.741 103.953L101.823 101.02C101.633 100.829 101.633 100.521 101.823 100.33C102.013 100.139 102.32 100.139 102.509 100.33L105.427 103.264C105.617 103.454 105.617 103.763 105.427 103.953C105.333 104.049 105.209 104.096 105.083 104.096H105.086ZM136.392 99.1478C136.269 99.1478 136.143 99.1002 136.048 99.0048C135.858 98.8141 135.858 98.5059 136.048 98.3152L138.966 95.3817C139.156 95.191 139.462 95.191 139.652 95.3817C139.842 95.5724 139.842 95.8807 139.652 96.0713L136.734 99.0048C136.639 99.1002 136.516 99.1478 136.389 99.1478H136.392ZM99.4741 98.455C99.3508 98.455 99.2243 98.4073 99.1295 98.312L96.2113 95.3785C96.0216 95.1878 96.0216 94.8795 96.2113 94.6888C96.401 94.4981 96.7077 94.4981 96.8974 94.6888L99.8155 97.6223C100.005 97.813 100.005 98.1213 99.8155 98.312C99.7207 98.4073 99.5974 98.455 99.4709 98.455H99.4741ZM142.004 93.5065C141.881 93.5065 141.754 93.4589 141.66 93.3635C141.47 93.1728 141.47 92.8645 141.66 92.6738L142.459 91.8698C142.709 91.6187 142.848 91.2818 142.848 90.9258C142.848 90.5699 142.709 90.233 142.459 89.9819L142.358 89.8802C142.169 89.6895 142.169 89.3812 142.358 89.1905C142.548 88.9998 142.855 88.9998 143.044 89.1905L143.146 89.2922C143.582 89.7308 143.819 90.3093 143.819 90.929C143.819 91.5488 143.579 92.1272 143.146 92.5658L142.346 93.3699C142.251 93.4652 142.128 93.5129 142.001 93.5129L142.004 93.5065ZM93.8622 92.8137C93.7389 92.8137 93.6124 92.766 93.5176 92.6707L93.4101 92.5626C92.9738 92.1272 92.7367 91.5456 92.7367 90.9258C92.7367 90.3061 92.977 89.7276 93.4101 89.289L94.2037 88.4913C94.3934 88.3006 94.7 88.3006 94.8897 88.4913C95.0794 88.682 95.0794 88.9903 94.8897 89.181L94.0962 89.9787C93.8464 90.2298 93.7073 90.5667 93.7073 90.9226C93.7073 91.2786 93.8464 91.6155 94.0962 91.8666L94.2037 91.9746C94.3934 92.1653 94.3934 92.4736 94.2037 92.6643C94.1088 92.7596 93.9855 92.8073 93.859 92.8073L93.8622 92.8137ZM140.006 87.3122C139.883 87.3122 139.756 87.2645 139.661 87.1692L136.743 84.2357C136.554 84.045 136.554 83.7367 136.743 83.546C136.933 83.3553 137.24 83.3553 137.429 83.546L140.348 86.4795C140.537 86.6702 140.537 86.9785 140.348 87.1692C140.253 87.2645 140.129 87.3122 140.003 87.3122H140.006ZM97.2388 86.6162C97.1155 86.6162 96.9891 86.5685 96.8942 86.4731C96.7045 86.2825 96.7045 85.9742 96.8942 85.7835L99.8124 82.85C100.002 82.6593 100.309 82.6593 100.498 82.85C100.688 83.0407 100.688 83.349 100.498 83.5397L97.5803 86.4731C97.4854 86.5685 97.3621 86.6162 97.2357 86.6162H97.2388ZM134.394 81.6677C134.271 81.6677 134.144 81.62 134.05 81.5247L131.131 78.5912C130.942 78.4005 130.942 78.0922 131.131 77.9015C131.321 77.7108 131.628 77.7108 131.817 77.9015L134.736 80.835C134.925 81.0257 134.925 81.334 134.736 81.5247C134.641 81.62 134.517 81.6677 134.391 81.6677H134.394ZM102.851 80.9748C102.727 80.9748 102.601 80.9272 102.506 80.8318C102.316 80.6411 102.316 80.3329 102.506 80.1422L105.424 77.2087C105.614 77.018 105.921 77.018 106.11 77.2087C106.3 77.3994 106.3 77.7076 106.11 77.8983L103.192 80.8318C103.097 80.9272 102.974 80.9748 102.848 80.9748H102.851ZM128.782 76.0264C128.659 76.0264 128.533 75.9787 128.438 75.8834L125.52 72.9499C125.33 72.7592 125.33 72.4509 125.52 72.2602C125.709 72.0695 126.016 72.0695 126.206 72.2602L129.124 75.1937C129.313 75.3844 129.313 75.6927 129.124 75.8834C129.029 75.9787 128.906 76.0264 128.779 76.0264H128.782ZM108.463 75.3335C108.339 75.3335 108.213 75.2859 108.118 75.1905C107.928 74.9998 107.928 74.6915 108.118 74.5008L111.036 71.5673C111.226 71.3767 111.533 71.3767 111.722 71.5673C111.912 71.758 111.912 72.0663 111.722 72.257L108.804 75.1905C108.709 75.2859 108.586 75.3335 108.459 75.3335H108.463ZM123.17 70.3851C123.047 70.3851 122.921 70.3374 122.826 70.242L119.908 67.3085C119.718 67.1179 119.718 66.8096 119.908 66.6189C120.097 66.4282 120.404 66.4282 120.594 66.6189L123.512 69.5524C123.702 69.7431 123.702 70.0513 123.512 70.242C123.417 70.3374 123.294 70.3851 123.167 70.3851H123.17ZM114.074 69.6922C113.951 69.6922 113.825 69.6445 113.73 69.5492C113.54 69.3585 113.54 69.0502 113.73 68.8595L116.648 65.926C116.838 65.7353 117.154 65.729 117.344 65.9197C117.533 66.1104 117.54 66.4123 117.35 66.603L117.005 66.2566L117.347 66.603L114.416 69.5492C114.321 69.6445 114.198 69.6922 114.071 69.6922H114.074Z" fill="#FFF5E1"/>
<path d="M83.6091 151.451C82.9957 151.451 82.4171 151.21 81.9808 150.774L81.1809 149.97C80.9912 149.78 80.9912 149.471 81.1809 149.281C81.3706 149.09 81.6773 149.09 81.867 149.281L82.6669 150.085C82.9167 150.336 83.2518 150.476 83.6059 150.476C83.96 150.476 84.2951 150.336 84.5449 150.085L84.6461 149.983C84.8358 149.792 85.1425 149.792 85.3321 149.983C85.5218 150.174 85.5218 150.482 85.3321 150.673L85.231 150.774C84.7978 151.213 84.2193 151.451 83.6027 151.451H83.6091ZM87.6876 148.108C87.5643 148.108 87.4378 148.06 87.3429 147.965C87.1532 147.774 87.1532 147.466 87.3429 147.275L90.2611 144.342C90.4508 144.151 90.7575 144.151 90.9472 144.342C91.1369 144.532 91.1369 144.841 90.9472 145.031L88.029 147.965C87.9342 148.06 87.8109 148.108 87.6844 148.108H87.6876ZM78.8319 147.406C78.7086 147.406 78.5821 147.358 78.4872 147.263L75.5691 144.329C75.3794 144.138 75.3794 143.83 75.5691 143.639C75.7588 143.449 76.0654 143.449 76.2551 143.639L79.1733 146.573C79.363 146.764 79.363 147.072 79.1733 147.263C79.0785 147.358 78.9552 147.406 78.8287 147.406H78.8319ZM93.2994 142.467C93.1761 142.467 93.0497 142.419 92.9548 142.324C92.7651 142.133 92.7651 141.825 92.9548 141.634L95.873 138.7C96.0627 138.51 96.3694 138.51 96.5591 138.7C96.7488 138.891 96.7488 139.199 96.5591 139.39L93.6409 142.324C93.546 142.419 93.4227 142.467 93.2963 142.467H93.2994ZM73.22 141.764C73.0967 141.764 72.9702 141.717 72.8754 141.621L69.9572 138.688C69.7675 138.497 69.7675 138.189 69.9572 137.998C70.1469 137.807 70.4536 137.807 70.6433 137.998L73.5614 140.932C73.7511 141.122 73.7511 141.431 73.5614 141.621C73.4666 141.717 73.3433 141.764 73.2168 141.764H73.22ZM98.9113 136.822C98.788 136.822 98.6615 136.774 98.5667 136.679C98.377 136.488 98.377 136.18 98.5667 135.989L101.485 133.056C101.675 132.865 101.981 132.865 102.171 133.056C102.361 133.247 102.361 133.555 102.171 133.746L99.2528 136.679C99.1579 136.774 99.0346 136.822 98.9081 136.822H98.9113ZM67.6049 136.123C67.4816 136.123 67.3552 136.075 67.2603 135.98L64.3421 133.046C64.1524 132.856 64.1524 132.547 64.3421 132.357C64.5318 132.166 64.8385 132.166 65.0282 132.357L67.9464 135.29C68.1361 135.481 68.1361 135.789 67.9464 135.98C67.8515 136.075 67.7282 136.123 67.6018 136.123H67.6049ZM104.523 131.181C104.4 131.181 104.273 131.133 104.179 131.038C103.989 130.847 103.989 130.539 104.179 130.348L107.097 127.415C107.286 127.224 107.593 127.224 107.783 127.415C107.973 127.605 107.973 127.914 107.783 128.104L104.865 131.038C104.77 131.133 104.646 131.181 104.52 131.181H104.523ZM61.9931 130.482C61.8698 130.482 61.7433 130.434 61.6484 130.339L58.7366 127.411C58.5469 127.221 58.5437 126.909 58.7334 126.719C58.9231 126.528 59.2266 126.525 59.4163 126.719L62.3345 129.652C62.5242 129.843 62.5242 130.151 62.3345 130.342C62.2397 130.437 62.1164 130.485 61.9899 130.485L61.9931 130.482ZM108.137 124.983C108.017 124.983 107.897 124.939 107.802 124.843L104.871 121.897C104.681 121.707 104.681 121.398 104.871 121.208C105.061 121.017 105.367 121.017 105.557 121.208L108.475 124.141C108.665 124.332 108.671 124.646 108.482 124.84C108.384 124.939 108.26 124.986 108.134 124.986L108.137 124.983ZM59.7673 124.287C59.644 124.287 59.5175 124.24 59.4227 124.144C59.233 123.954 59.233 123.645 59.4227 123.455L62.3408 120.521C62.5305 120.33 62.8372 120.33 63.0269 120.521C63.2166 120.712 63.2166 121.02 63.0269 121.211L60.1087 124.144C60.0139 124.24 59.8906 124.287 59.7641 124.287H59.7673ZM102.522 119.332C102.399 119.332 102.272 119.285 102.177 119.189L99.2591 116.256C99.0694 116.065 99.0694 115.757 99.2591 115.566C99.4488 115.376 99.7555 115.376 99.9452 115.566L102.863 118.5C103.053 118.69 103.053 118.999 102.863 119.189C102.768 119.285 102.645 119.332 102.519 119.332H102.522ZM65.3792 118.646C65.2559 118.646 65.1294 118.598 65.0345 118.503C64.8448 118.312 64.8448 118.004 65.0345 117.813L67.9527 114.88C68.1424 114.689 68.4491 114.689 68.6388 114.88C68.8285 115.07 68.8285 115.379 68.6388 115.569L65.7206 118.503C65.6258 118.598 65.5025 118.646 65.376 118.646H65.3792ZM96.9068 113.691C96.7835 113.691 96.6571 113.643 96.5622 113.548L93.6441 110.615C93.4544 110.424 93.4544 110.116 93.6441 109.925C93.8337 109.734 94.1404 109.734 94.3301 109.925L97.2483 112.858C97.438 113.049 97.438 113.357 97.2483 113.548C97.1535 113.643 97.0301 113.691 96.9037 113.691H96.9068ZM70.991 113.005C70.8677 113.005 70.7413 112.957 70.6464 112.862C70.4567 112.671 70.4567 112.363 70.6464 112.172L73.5646 109.238C73.7543 109.048 74.061 109.048 74.2507 109.238C74.4404 109.429 74.4404 109.737 74.2507 109.928L71.3325 112.862C71.2376 112.957 71.1143 113.005 70.9879 113.005H70.991ZM91.295 108.05C91.1717 108.05 91.0452 108.002 90.9504 107.907L88.0322 104.973C87.8425 104.783 87.8425 104.474 88.0322 104.284C88.2219 104.093 88.5285 104.093 88.7182 104.284L91.6364 107.217C91.8261 107.408 91.8261 107.716 91.6364 107.907C91.5416 108.002 91.4183 108.05 91.2918 108.05H91.295ZM76.6029 107.36C76.4796 107.36 76.3531 107.312 76.2583 107.217C76.0686 107.026 76.0686 106.718 76.2583 106.527L79.1765 103.594C79.3662 103.403 79.6729 103.403 79.8625 103.594C80.0522 103.785 80.0522 104.093 79.8625 104.284L76.9444 107.217C76.8495 107.312 76.7262 107.36 76.5998 107.36H76.6029ZM85.6831 102.408C85.5598 102.408 85.4333 102.361 85.3385 102.265L84.5449 101.468C84.2951 101.217 83.96 101.077 83.6059 101.077C83.2518 101.077 82.9167 101.217 82.6669 101.468L82.5594 101.576C82.3697 101.766 82.063 101.766 81.8733 101.576C81.6836 101.385 81.6836 101.077 81.8733 100.886L81.9808 100.778C82.414 100.339 82.9926 100.101 83.6091 100.101C84.2256 100.101 84.801 100.343 85.2373 100.778L86.0309 101.576C86.2206 101.766 86.2206 102.075 86.0309 102.265C85.936 102.361 85.8127 102.408 85.6862 102.408H85.6831Z" fill="#5EAAA8"/>
<path d="M84.4722 113.014L85.6009 112.569C86.5652 112.188 87.6654 112.537 88.2345 113.408L88.6424 114.031C88.9807 114.546 89.5181 114.896 90.122 114.994L90.9251 115.124C92.1075 115.318 92.9169 116.431 92.743 117.623C92.6355 118.354 92.9011 119.088 93.4449 119.584L93.4607 119.596C94.4281 120.473 94.4281 121.999 93.4607 122.876L93.4449 122.889C92.8979 123.381 92.6355 124.119 92.743 124.85C92.9169 126.042 92.1075 127.154 90.9251 127.348L90.122 127.478C89.515 127.577 88.9807 127.926 88.6424 128.441L88.2345 129.064C87.6654 129.935 86.5652 130.285 85.6009 129.903L84.4722 129.458C83.9568 129.255 83.3846 129.255 82.8692 129.458L81.7406 129.903C80.7763 130.285 79.676 129.935 79.1069 129.064L78.6991 128.441C78.3608 127.926 77.8233 127.577 77.2194 127.478L76.4164 127.348C75.2339 127.154 74.4246 126.042 74.5985 124.85C74.7059 124.119 74.4404 123.385 73.8966 122.889L73.8808 122.876C72.9133 121.999 72.9133 120.473 73.8808 119.596L73.8966 119.584C74.4435 119.091 74.7059 118.354 74.5985 117.623C74.4246 116.431 75.2339 115.318 76.4164 115.124L77.2194 114.994C77.8265 114.896 78.3608 114.546 78.6991 114.031L79.1069 113.408C79.676 112.537 80.7763 112.188 81.7406 112.569L82.8692 113.014C83.3846 113.218 83.9568 113.218 84.4722 113.014Z" fill="#FF6B6B"/>
<path d="M80.2261 124.876C80.2261 124.876 83.9126 137.668 77.6526 142.133C77.6526 142.133 83.8652 140.802 84.371 139.788C84.371 139.788 86.5399 141.727 87.6528 142.133C87.6528 142.133 83.6122 137.668 87.2481 122.238C87.2481 122.238 83.9063 125.813 83.6027 128.251C83.6027 128.251 83.6628 128.734 80.2293 124.876H80.2261Z" fill="#FF6B6B"/>
<path d="M88.478 142.699L87.5643 142.365C86.6063 142.015 84.9528 140.62 84.3932 140.137C83.2929 141.135 78.6801 142.165 77.7 142.375L76.5429 142.623L77.5071 141.936C83.5553 137.623 80.0238 125.072 79.989 124.945L79.6918 123.912L80.4064 124.713C82.2844 126.824 83.0842 127.596 83.4162 127.876C83.9568 125.422 86.9351 122.212 87.0647 122.069L87.6907 121.398L87.4789 122.292C83.9284 137.366 87.7856 141.923 87.8267 141.968L88.4748 142.696L88.478 142.699ZM80.7035 125.775C80.9881 127.014 81.437 129.303 81.5319 131.82C81.6963 136.285 80.6846 139.66 78.5947 141.669C81.0039 141.097 83.8778 140.226 84.1529 139.679L84.2951 139.393L84.5323 139.606C84.5481 139.622 85.8633 140.792 86.9383 141.482C85.974 139.651 84.273 134.477 86.7928 123.131C85.8285 124.281 84.0738 126.569 83.8494 128.254L83.8683 128.403L83.6944 128.495C83.5079 128.581 83.315 128.67 80.7067 125.781L80.7035 125.775Z" fill="#FFF5E1"/>
</g>
<path d="M197.976 49.632C201.336 49.632 204.504 50.304 207 51.744C210.744 53.616 210.792 57.456 208.68 58.896C207.96 59.424 207.192 59.616 206.472 59.616C205.08 59.616 203.736 58.896 202.632 58.128C201.48 57.312 199.896 57.024 198.36 57.024C195.48 57.024 194.232 58.464 194.232 59.904C194.232 65.136 211.08 61.968 211.08 74.016C211.08 79.776 206.232 84.768 197.832 84.768C193.896 84.768 190.44 83.76 187.56 82.08C183.72 80.208 183.624 76.32 185.784 74.88C186.552 74.352 187.32 74.16 188.088 74.16C189.528 74.16 190.872 74.928 192.024 75.696C193.56 76.752 195.336 77.376 197.448 77.376C200.328 77.376 201.768 75.792 201.768 74.16C201.768 69.024 184.968 72.528 184.968 60.096C184.968 54.432 189.624 49.632 197.976 49.632ZM214.553 80.304V54.096C214.553 52.032 216.233 50.4 218.249 50.4H235.337C237.737 50.4 239.225 52.224 239.225 54.24C239.225 56.256 237.737 58.08 235.337 58.08H223.433V63.84H234.281C236.585 63.84 237.833 65.232 237.833 67.152C237.833 69.072 236.585 70.512 234.281 70.512H223.433V76.32H235.337C237.737 76.32 239.225 78.144 239.225 80.112C239.225 82.176 237.737 84 235.337 84H218.249C216.233 84 214.553 82.368 214.553 80.304ZM248.965 82.128L241.285 55.584C240.613 53.328 241.669 51.168 243.925 50.4C244.357 50.256 244.789 50.16 245.221 50.16C246.997 50.16 248.677 51.408 249.157 53.28L254.005 71.808L258.805 53.28C259.333 51.216 260.101 50.208 263.221 50.208C266.341 50.208 267.109 51.216 267.637 53.28L272.437 71.808L277.285 53.28C277.765 51.408 279.445 50.16 281.221 50.16C281.653 50.16 282.085 50.256 282.517 50.4C284.773 51.168 285.829 53.328 285.157 55.584L277.477 82.128C277.141 83.28 276.325 84 275.365 84H270.229C269.173 84 268.261 83.232 267.925 82.08L263.221 64.944L258.517 82.08C258.181 83.232 257.269 84 256.213 84H251.077C250.117 84 249.301 83.28 248.965 82.128ZM288.334 82.656V54.816C288.334 52.368 290.302 50.4 292.798 50.4C295.246 50.4 297.214 52.368 297.214 54.816V82.656C297.214 83.424 296.59 84 295.87 84H289.678C288.958 84 288.334 83.424 288.334 82.656ZM301.74 82.656V54.816C301.74 52.368 303.564 50.4 306.204 50.4C308.748 50.4 310.14 52.176 311.436 54.096L322.956 69.936V54.816C322.956 52.08 324.972 50.4 327.18 50.4C329.388 50.4 331.404 52.08 331.404 54.816V82.656C331.404 83.424 330.828 84 330.108 84H324.684C323.724 84 323.052 83.472 322.668 82.896L310.236 65.808V82.656C310.236 83.424 309.612 84 308.892 84H303.084C302.364 84 301.74 83.424 301.74 82.656ZM334.911 67.152C334.911 56.88 342.303 49.632 352.863 49.632C356.607 49.632 359.919 50.592 362.607 52.32C366.447 54.336 366.207 58.368 364.431 59.76C363.663 60.384 362.847 60.624 362.079 60.624C360.783 60.624 359.535 59.952 358.335 59.088C356.799 58.032 354.927 57.408 352.767 57.408C347.295 57.408 343.407 61.44 343.407 67.152C343.407 72.864 347.343 76.896 352.863 76.896C356.463 76.896 359.247 74.784 360.255 71.568H354.399C352.191 71.568 350.799 69.888 350.799 68.016C350.799 66.24 352.191 64.512 354.399 64.56L364.815 64.704C366.975 64.704 368.847 66.144 368.847 68.688C368.847 77.664 362.319 84.672 352.479 84.672C342.159 84.672 334.911 77.424 334.911 67.152ZM205.8 130.656V119.424H194.136V130.656C194.136 131.424 193.512 132 192.792 132H186.6C185.88 132 185.256 131.424 185.256 130.656V102.816C185.256 100.368 187.224 98.4 189.72 98.4C192.168 98.4 194.136 100.368 194.136 102.816V112.08H205.8V102.816C205.8 100.368 207.72 98.4 210.216 98.4C212.664 98.4 214.632 100.368 214.632 102.816V130.656C214.632 131.424 214.056 132 213.336 132H207.096C206.376 132 205.8 131.424 205.8 130.656ZM236.187 132.72C225.819 132.72 218.523 125.472 218.523 115.152C218.523 104.88 225.819 97.632 236.187 97.632C246.603 97.632 253.947 104.88 253.947 115.152C253.947 125.472 246.603 132.72 236.187 132.72ZM236.187 124.272C241.275 124.272 244.875 120.48 244.875 115.152C244.875 109.872 241.275 106.08 236.187 106.08C231.147 106.08 227.595 109.872 227.595 115.152C227.595 120.48 231.147 124.272 236.187 124.272ZM257.819 130.656V102.816C257.819 100.368 259.739 98.4 262.235 98.4H272.987C281.195 98.4 285.323 104.352 285.323 110.256C285.323 116.256 281.195 122.208 272.987 122.208H266.699V130.656C266.699 131.424 266.075 132 265.355 132H259.163C258.443 132 257.819 131.424 257.819 130.656ZM266.699 105.888V114.768H271.883C275.051 114.768 276.635 112.512 276.635 110.256C276.635 108.096 275.051 105.888 271.883 105.888H266.699ZM288.756 128.304V102.096C288.756 100.032 290.436 98.4 292.452 98.4H309.54C311.94 98.4 313.428 100.224 313.428 102.24C313.428 104.256 311.94 106.08 309.54 106.08H297.636V111.84H308.484C310.788 111.84 312.036 113.232 312.036 115.152C312.036 117.072 310.788 118.512 308.484 118.512H297.636V124.32H309.54C311.94 124.32 313.428 126.144 313.428 128.112C313.428 130.176 311.94 132 309.54 132H292.452C290.436 132 288.756 130.368 288.756 128.304Z" fill="white"/>
</svg>
