<svg width="185" height="215" viewBox="0 0 185 215" fill="none" xmlns="http://www.w3.org/2000/svg">
<g filter="url(#filter0_d_2116_1950)">
<path d="M9 4H176V200.5L93 162L9 200.5L9 4Z" fill="#82C7C5"/>
</g>
<path d="M166 67.363H19L27.7692 80.0333L19 92.7036H166L157.231 80.0333L166 67.363Z" fill="#FF6B6B"/>
<path d="M45.3688 73.3303C46.5209 74.0297 46.5376 75.297 45.8613 75.7726C45.6053 75.9572 45.3493 76.0299 45.0932 76.0299C44.6368 76.0299 44.1609 75.7726 43.724 75.4424C43.2481 75.0928 42.5719 74.9641 41.9346 74.9641C40.6377 74.9641 40.07 75.6075 40.07 76.2873C40.07 78.5282 46.7213 77.0762 46.7213 81.7622C46.7213 83.8744 45.0042 85.8411 41.8232 85.8411C40.2342 85.8411 38.8621 85.3823 37.7489 84.6101C36.5606 83.9107 36.5606 82.6266 37.2369 82.1678C37.4929 81.9832 37.7489 81.9105 38.005 81.9105C38.4809 81.9105 38.954 82.1678 39.3937 82.498C40.07 82.9763 40.8186 83.2701 41.7509 83.2701C43.0672 83.2701 43.724 82.5343 43.724 81.8014C43.724 79.5801 37.0727 81.1943 37.0727 76.3097C37.0727 74.2703 38.6812 72.3959 41.8594 72.3959C43.1563 72.3959 44.417 72.6896 45.3688 73.3331V73.3303Z" fill="white"/>
<path d="M50.5228 81.723C50.8151 82.8253 51.6917 83.5219 52.8244 83.5219C53.4645 83.5219 54.0127 83.4128 54.5248 83.119C54.8727 82.9344 55.1649 82.8449 55.4571 82.8449C56.1139 82.8449 56.5703 83.34 56.5703 83.9275C56.5703 85.4522 53.9209 85.7823 52.8439 85.7823C49.9384 85.7823 47.8929 83.7625 47.8929 80.8782C47.8929 77.9939 49.8299 75.974 52.6073 75.974C55.3847 75.974 57.1575 77.9015 57.1575 80.4921C57.1575 81.4461 56.5007 81.723 55.9163 81.723H50.5256H50.5228ZM50.5228 79.9969H54.6333C54.4496 78.9506 53.6648 78.2512 52.624 78.2512C51.5832 78.2512 50.8151 78.9115 50.5228 79.9969Z" fill="white"/>
<path d="M58.1594 77.812C57.8866 77.1322 58.2317 76.3433 58.9442 76.0663C59.0917 76.0104 59.2364 75.974 59.3839 75.974C59.8959 75.974 60.408 76.3237 60.6251 76.8916L62.3978 81.5216L64.1511 76.8916C64.371 76.3209 64.8831 75.9908 65.4842 75.9908C66.0129 75.9908 66.5083 76.3209 66.7449 76.8916L68.5176 81.5216L70.2709 76.8916C70.4908 76.3209 71.0028 75.974 71.5121 75.974C71.6596 75.974 71.8043 76.0104 71.9518 76.0663C72.6643 76.3405 73.0122 77.1322 72.7199 77.812L69.7227 84.8843C69.539 85.3431 69.2301 85.5445 68.7904 85.5445H68.2226C67.7662 85.5445 67.474 85.3431 67.2736 84.8843L65.4452 80.383L63.6001 84.8843C63.4164 85.3431 63.1075 85.5445 62.6678 85.5445H62.1001C61.6437 85.5445 61.3514 85.3431 61.1511 84.8843L58.1538 77.812H58.1594Z" fill="white"/>
<path d="M75.4807 71.9706C76.3211 71.9706 77.0169 72.6672 77.0169 73.5149C77.0169 74.3626 76.3211 75.0592 75.4807 75.0592C74.6402 75.0592 73.9083 74.3626 73.9083 73.5149C73.9083 72.6672 74.604 71.9706 75.4807 71.9706ZM74.1281 77.3336C74.1281 76.5978 74.732 75.9936 75.4807 75.9936C76.2293 75.9936 76.797 76.6006 76.797 77.3336V85.1417C76.797 85.3627 76.6133 85.5445 76.413 85.5445H74.5122C74.3118 85.5445 74.1281 85.3599 74.1281 85.1417V77.3336Z" fill="white"/>
<path d="M84.8176 80.2711C84.8176 79.1129 84.0689 78.3044 83.0281 78.3044C81.9873 78.3044 81.1997 79.1129 81.1997 80.2711V85.1389C81.1997 85.3599 81.016 85.5417 80.8156 85.5417H78.9149C78.7145 85.5417 78.5308 85.3571 78.5308 85.1389V77.3308C78.5308 76.5951 79.1347 75.9908 79.8833 75.9908C80.4872 75.9908 81.016 76.4132 81.1635 76.9839C81.8203 76.3405 82.7359 75.974 83.7962 75.974C85.9697 75.974 87.5059 77.6274 87.5059 80.0137V85.1389C87.5059 85.3599 87.3223 85.5417 87.1052 85.5417H85.2239C85.0235 85.5417 84.8231 85.3571 84.8231 85.1389V80.2711H84.8176Z" fill="white"/>
<path d="M93.1303 75.974C94.3187 75.974 95.34 76.416 96.072 77.1853V77.1658C96.072 76.5055 96.6564 75.9908 97.3521 75.9908C98.1007 75.9908 98.6852 76.5979 98.6852 77.314V85.0102C98.6852 88.1155 96.5645 89.7297 93.8066 89.7297C92.6906 89.7297 89.621 89.4164 89.621 87.7826C89.621 87.1755 90.0969 86.6608 90.7342 86.6608C91.0459 86.6608 91.3743 86.7699 91.7027 86.9377C92.3428 87.2679 93.0357 87.3965 93.8233 87.3965C94.9755 87.3965 96.0163 86.7727 96.0163 85.0466V84.515C95.2844 85.2676 94.2797 85.69 93.1303 85.69C90.609 85.69 88.8167 83.6869 88.8167 80.8586C88.8167 78.0302 90.6451 75.974 93.1303 75.974ZM93.7704 78.3631C92.4012 78.3631 91.4327 79.3926 91.4327 80.8782C91.4327 82.3637 92.4012 83.396 93.7704 83.396C95.1397 83.396 96.072 82.3665 96.072 80.8782C96.072 79.3899 95.123 78.3631 93.7704 78.3631Z" fill="white"/>
<path d="M111.932 80.4753H106.853V85.1053C106.853 85.3431 106.653 85.5473 106.414 85.5473H104.368C104.131 85.5473 103.928 85.3459 103.928 85.1053V74.1388C103.928 73.3303 104.568 72.6868 105.389 72.6868C106.21 72.6868 106.85 73.3303 106.85 74.1388V77.9603H111.929V74.1388C111.929 73.3303 112.569 72.6868 113.39 72.6868C114.211 72.6868 114.852 73.3303 114.852 74.1388V85.1053C114.852 85.3431 114.651 85.5473 114.412 85.5473H112.366C112.13 85.5473 111.927 85.3459 111.927 85.1053V80.4753H111.932Z" fill="white"/>
<path d="M116.446 80.8782C116.446 78.0134 118.492 75.974 121.361 75.974C124.23 75.974 126.312 78.0134 126.312 80.8782C126.312 83.7429 124.266 85.8187 121.361 85.8187C118.455 85.8187 116.446 83.7793 116.446 80.8782ZM123.699 80.8782C123.699 79.3899 122.75 78.3631 121.361 78.3631C119.972 78.3631 119.059 79.3926 119.059 80.8782C119.059 82.3637 120.028 83.4324 121.361 83.4324C122.694 83.4324 123.699 82.4029 123.699 80.8782Z" fill="white"/>
<path d="M127.717 80.9145C127.717 78.0134 129.746 75.974 132.632 75.974C135.518 75.974 137.583 78.0134 137.583 80.9145C137.583 83.8156 135.755 85.8187 133.18 85.8187C132.067 85.8187 131.115 85.4522 130.386 84.7724V88.1351C130.386 88.8709 129.782 89.4751 129.07 89.4751C128.321 89.4751 127.717 88.8681 127.717 88.1351V80.9173V80.9145ZM130.33 80.9145C130.33 82.4029 131.299 83.4324 132.632 83.4324C133.965 83.4324 134.97 82.4029 134.97 80.9145C134.97 79.4262 134.001 78.3603 132.632 78.3603C131.263 78.3603 130.33 79.3899 130.33 80.9145Z" fill="white"/>
<path d="M141.551 81.723C141.844 82.8253 142.72 83.5219 143.853 83.5219C144.493 83.5219 145.041 83.4128 145.553 83.119C145.901 82.9344 146.193 82.8449 146.486 82.8449C147.142 82.8449 147.599 83.34 147.599 83.9275C147.599 85.4522 144.949 85.7823 143.872 85.7823C140.967 85.7823 138.922 83.7625 138.922 80.8782C138.922 77.9939 140.858 75.974 143.636 75.974C146.413 75.974 148.186 77.9015 148.186 80.4921C148.186 81.4461 147.529 81.723 146.945 81.723H141.554H141.551ZM141.551 79.9969H145.662C145.478 78.9506 144.693 78.2512 143.653 78.2512C142.612 78.2512 141.844 78.9115 141.551 79.9969Z" fill="white"/>
<mask id="mask0_2116_1950" style="mask-type:luminance" maskUnits="userSpaceOnUse" x="38" y="0" width="113" height="66">
<path d="M150.861 0H38.3223V65.0607H150.861V0Z" fill="white"/>
</mask>
<g mask="url(#mask0_2116_1950)">
<path d="M148.843 88.0372C149.319 87.0944 150.087 86.3251 151.022 85.8467C151.581 85.5586 152.149 85.1473 152.672 84.6242C153.916 83.3736 154.531 81.8602 154.32 80.8139C154.217 80.3019 154.217 79.7704 154.32 79.2584C154.531 78.2121 153.916 76.6986 152.672 75.4481C152.152 74.9249 151.584 74.5109 151.022 74.2255C150.084 73.7472 149.319 72.975 148.843 72.035C148.556 71.4727 148.147 70.902 147.627 70.3761C147.106 69.8501 146.539 69.4389 145.976 69.1535C145.039 68.6751 144.273 67.903 143.797 66.963C143.511 66.4007 143.102 65.83 142.581 65.304C142.061 64.7781 141.493 64.3669 140.931 64.0815C139.993 63.6031 139.228 62.831 138.752 61.891C138.465 61.3287 138.056 60.758 137.536 60.232C137.015 59.7061 136.448 59.2948 135.885 59.0095C134.947 58.5311 134.182 57.759 133.706 56.819C133.42 56.2567 133.011 55.6859 132.49 55.16C131.97 54.6368 131.402 54.2228 130.84 53.9375C129.902 53.4591 129.137 52.6869 128.661 51.7469C128.374 51.1846 127.965 50.6139 127.445 50.088C126.924 49.5648 126.356 49.1508 125.794 48.8654C124.856 48.387 124.091 47.6149 123.615 46.6749C123.329 46.1126 122.919 45.5419 122.399 45.016C121.879 44.4928 121.311 44.0788 120.749 43.7934C119.811 43.315 119.046 42.5429 118.57 41.6029C118.283 41.0406 117.874 40.4699 117.353 39.9439C116.833 39.418 116.265 39.0067 115.703 38.7214C114.765 38.243 114 37.4709 113.524 36.5309C113.237 35.9686 112.828 35.3979 112.308 34.8719C111.787 34.346 111.22 33.9347 110.658 33.6494C109.72 33.171 108.954 32.3988 108.479 31.4589C108.192 30.8965 107.783 30.3258 107.262 29.7999C106.742 29.2739 106.174 28.8627 105.612 28.5773C104.674 28.099 103.909 27.3268 103.433 26.3868C103.146 25.8245 102.737 25.2538 102.217 24.7279C101.696 24.2019 101.129 23.7907 100.566 23.5053C99.6286 23.0269 98.8633 22.2548 98.3874 21.3148C98.1008 20.7525 97.6917 20.1818 97.1713 19.6558C95.9273 18.4053 94.4217 17.787 93.3808 17.9997C92.8715 18.1032 92.3428 18.1032 91.8335 17.9997C90.7927 17.787 89.2871 18.4053 88.0431 19.6558C87.5227 20.179 87.1108 20.7497 86.8269 21.3148C86.351 22.2576 85.5829 23.0269 84.6478 23.5053C84.0885 23.7935 83.5207 24.2047 82.9975 24.7279C82.4743 25.251 82.0652 25.8217 81.7814 26.3868C81.3055 27.3296 80.5374 28.099 79.6023 28.5773C79.0429 28.8655 78.4752 29.2767 77.952 29.7999C77.4288 30.323 77.0197 30.8937 76.7358 31.4589C76.2599 32.4016 75.4918 33.171 74.5567 33.6494C73.9974 33.9375 73.4296 34.3488 72.9064 34.8719C72.386 35.3951 71.9741 35.9658 71.6903 36.5309C71.2144 37.4737 70.4463 38.243 69.5112 38.7214C68.9518 39.0095 68.3841 39.4208 67.8609 39.9439C67.3377 40.4671 66.9286 41.0378 66.6447 41.6029C66.1688 42.5457 65.4007 43.315 64.4656 43.7934C63.9063 44.0816 63.3385 44.4928 62.8153 45.016C62.2949 45.5391 61.883 46.1098 61.5992 46.6749C61.1233 47.6177 60.3552 48.387 59.4201 48.8654C58.8607 49.1536 58.293 49.5648 57.7698 50.088C57.2466 50.6111 56.8375 51.1818 56.5536 51.7469C56.0777 52.6897 55.3096 53.4591 54.3745 53.9375C53.8152 54.2256 53.2474 54.6368 52.7242 55.16C52.201 55.6831 51.7919 56.2539 51.5081 56.819C51.0322 57.7618 50.2641 58.5311 49.329 59.0095C48.7696 59.2976 48.2019 59.7089 47.6787 60.232C47.1555 60.7552 46.7464 61.3259 46.4625 61.891C45.9866 62.8338 45.2185 63.6031 44.2834 64.0815C43.7241 64.3697 43.1563 64.7809 42.6331 65.304C42.1099 65.8272 41.7008 66.3979 41.417 66.963C40.9411 67.9058 40.173 68.6751 39.2379 69.1535C38.6785 69.4417 38.1108 69.8529 37.5876 70.3761C37.0644 70.8992 36.6553 71.4699 36.3714 72.035C35.8955 72.9778 35.1274 73.7472 34.1923 74.2255C33.633 74.5137 33.0652 74.9249 32.542 75.4481C31.298 76.6986 30.683 78.2121 30.8945 79.2584C30.9975 79.7704 30.9975 80.3019 30.8945 80.8139C30.683 81.8602 31.298 83.3736 32.542 84.6242C33.0624 85.1473 33.6302 85.5614 34.1923 85.8467C35.1302 86.3251 35.8955 87.0972 36.3714 88.0372C36.6581 88.5995 37.0672 89.1702 37.5876 89.6962C38.108 90.2221 38.6757 90.6334 39.2379 90.9187C40.1758 91.3971 40.9411 92.1693 41.417 93.1092C41.7036 93.6716 42.1127 94.2423 42.6331 94.7682C43.1535 95.2942 43.7213 95.7054 44.2834 95.9908C45.2213 96.4691 45.9866 97.2413 46.4625 98.1813C46.7492 98.7436 47.1583 99.3143 47.6787 99.8402C48.1991 100.366 48.7668 100.777 49.329 101.063C50.2669 101.541 51.0322 102.313 51.5081 103.253C51.7947 103.816 52.2038 104.386 52.7242 104.912C53.2446 105.438 53.8124 105.849 54.3745 106.135C55.3124 106.613 56.0777 107.385 56.5536 108.325C56.8403 108.888 57.2494 109.458 57.7698 109.984C58.2902 110.51 58.8579 110.921 59.4201 111.207C60.358 111.685 61.1233 112.457 61.5992 113.397C61.8858 113.96 62.2949 114.53 62.8153 115.056C63.3357 115.579 63.9035 115.993 64.4656 116.279C65.4035 116.757 66.1688 117.529 66.6447 118.469C66.9314 119.032 67.3405 119.602 67.8609 120.128C68.3813 120.654 68.949 121.066 69.5112 121.351C70.449 121.829 71.2144 122.601 71.6903 123.541C71.9769 124.104 72.386 124.674 72.9064 125.2C73.4268 125.726 73.9946 126.138 74.5567 126.423C75.4946 126.901 76.2599 127.673 76.7358 128.613C77.0225 129.176 77.4316 129.746 77.952 130.272C78.4724 130.796 79.0401 131.21 79.6023 131.495C80.5401 131.973 81.3055 132.745 81.7814 133.685C82.068 134.248 82.4771 134.818 82.9975 135.344C83.5179 135.87 84.0857 136.282 84.6478 136.567C85.5857 137.045 86.351 137.817 86.8269 138.757C87.1136 139.32 87.5227 139.89 88.0431 140.416C89.2871 141.667 90.7927 142.285 91.8335 142.073C92.3428 141.969 92.8715 141.969 93.3808 142.073C94.4217 142.285 95.9273 141.667 97.1713 140.416C97.6917 139.893 98.1036 139.323 98.3874 138.757C98.8633 137.815 99.6314 137.045 100.566 136.567C101.126 136.279 101.694 135.868 102.217 135.344C102.74 134.821 103.149 134.251 103.433 133.685C103.909 132.743 104.677 131.973 105.612 131.495C106.171 131.207 106.739 130.796 107.262 130.272C107.786 129.749 108.195 129.179 108.479 128.613C108.954 127.671 109.723 126.901 110.658 126.423C111.217 126.135 111.785 125.724 112.308 125.2C112.831 124.677 113.24 124.106 113.524 123.541C114 122.599 114.768 121.829 115.703 121.351C116.263 121.063 116.83 120.651 117.353 120.128C117.874 119.605 118.286 119.034 118.57 118.469C119.046 117.527 119.814 116.757 120.749 116.279C121.308 115.991 121.876 115.579 122.399 115.056C122.922 114.533 123.331 113.962 123.615 113.397C124.091 112.455 124.859 111.685 125.794 111.207C126.354 110.919 126.921 110.507 127.445 109.984C127.965 109.461 128.377 108.89 128.661 108.325C129.137 107.383 129.905 106.613 130.84 106.135C131.399 105.847 131.967 105.435 132.49 104.912C133.011 104.389 133.422 103.818 133.706 103.253C134.182 102.311 134.95 101.541 135.885 101.063C136.445 100.775 137.012 100.363 137.536 99.8402C138.059 99.3171 138.468 98.7464 138.752 98.1813C139.228 97.2385 139.996 96.4691 140.931 95.9908C141.49 95.7026 142.058 95.2914 142.581 94.7682C143.102 94.2451 143.514 93.6744 143.797 93.1092C144.273 92.1665 145.041 91.3971 145.976 90.9187C146.536 90.6306 147.104 90.2193 147.627 89.6962C148.147 89.173 148.559 88.6023 148.843 88.0372Z" fill="#FFD3B5"/>
<path d="M92.5919 18.6774L62.0742 49.3552L92.5919 80.033L123.11 49.3552L92.5919 18.6774Z" fill="#FFF5E1"/>
<path d="M92.596 80.6432L92.2927 80.3382L61.4711 49.355L92.5932 18.0696L123.715 49.355L92.5932 80.6404L92.596 80.6432ZM62.6817 49.355L92.596 79.4234L122.51 49.355L92.596 19.2865L62.6817 49.355Z" fill="#FFD3B5"/>
<path d="M123.111 49.3556L92.5931 80.0334L123.111 110.711L153.628 80.0334L123.111 49.3556Z" fill="#5EAAA8"/>
<path d="M123.111 111.322L122.808 111.017L91.9866 80.0333L123.109 48.7479L154.231 80.0333L153.927 80.3383L123.106 111.322H123.111ZM93.1999 80.0333L123.111 110.105L153.026 80.0333L123.114 49.9649L93.1999 80.0333Z" fill="#FFD3B5"/>
<path d="M62.0764 49.3564L31.5588 80.0342L62.0764 110.712L92.5941 80.0342L62.0764 49.3564Z" fill="#5EAAA8"/>
<path d="M62.0778 111.321L30.9557 80.0361L62.0778 48.7507L93.1999 80.0361L92.8966 80.341L62.075 111.324L62.0778 111.321ZM32.1635 80.0333L62.075 110.105L91.9893 80.0333L62.075 49.9648L32.1635 80.0333Z" fill="#FFD3B5"/>
<path d="M63.2022 102.168C63.0936 102.168 62.9823 102.126 62.9016 102.042C62.7346 101.874 62.7318 101.606 62.8988 101.438L65.4675 98.8555C65.6345 98.6876 65.9044 98.6876 66.0714 98.8555C66.2384 99.0234 66.2384 99.2947 66.0714 99.4626L63.5083 102.039C63.4248 102.123 63.3135 102.168 63.2022 102.168ZM60.344 101.561C60.2355 101.561 60.1242 101.519 60.0407 101.435L57.472 98.8527C57.305 98.6849 57.305 98.4135 57.472 98.2456C57.639 98.0778 57.9089 98.0778 58.0759 98.2456L60.6446 100.828C60.8116 100.996 60.8116 101.267 60.6446 101.435C60.5611 101.519 60.4526 101.561 60.3412 101.561H60.344ZM68.142 97.2049C68.0334 97.2049 67.9221 97.163 67.8386 97.079C67.6716 96.9112 67.6716 96.6398 67.8386 96.472L70.4073 93.8898C70.5743 93.7219 70.8442 93.7219 71.0112 93.8898C71.1782 94.0576 71.1782 94.329 71.0112 94.4969L68.4425 97.079C68.359 97.163 68.2505 97.2049 68.1392 97.2049H68.142ZM55.4042 96.5951C55.2957 96.5951 55.1844 96.5531 55.1009 96.4692L52.5322 93.887C52.3652 93.7191 52.3652 93.4478 52.5322 93.2799C52.6992 93.1121 52.9691 93.1121 53.1361 93.2799L55.7048 95.8621C55.8718 96.0299 55.8718 96.3013 55.7048 96.4692C55.6213 96.5531 55.5128 96.5951 55.4015 96.5951H55.4042ZM73.0817 92.2392C72.9732 92.2392 72.8619 92.1973 72.7784 92.1133C72.6114 91.9455 72.6114 91.6741 72.7784 91.5062L75.3471 88.9241C75.5141 88.7562 75.784 88.7562 75.951 88.9241C76.118 89.0919 76.118 89.3633 75.951 89.5312L73.3823 92.1133C73.2988 92.1973 73.1903 92.2392 73.079 92.2392H73.0817ZM50.4644 91.6293C50.3559 91.6293 50.2446 91.5874 50.1611 91.5034L47.5924 88.9213C47.4254 88.7534 47.4254 88.4821 47.5924 88.3142C47.7594 88.1463 48.0293 88.1463 48.1963 88.3142L50.765 90.8964C50.932 91.0642 50.932 91.3356 50.765 91.5034C50.6815 91.5874 50.573 91.6293 50.4617 91.6293H50.4644ZM78.0215 87.2735C77.913 87.2735 77.8017 87.2315 77.7182 87.1476C77.5512 86.9798 77.5512 86.7084 77.7182 86.5405L80.2869 83.9584C80.4539 83.7905 80.7238 83.7905 80.8908 83.9584C81.0578 84.1262 81.0578 84.3976 80.8908 84.5654L78.3221 87.1476C78.2386 87.2315 78.1301 87.2735 78.0188 87.2735H78.0215ZM45.5246 86.6636C45.4161 86.6636 45.3048 86.6217 45.2213 86.5377L42.6526 83.9556C42.4856 83.7877 42.4856 83.5163 42.6526 83.3485C42.8196 83.1806 43.0895 83.1806 43.2565 83.3485L45.8252 85.9307C45.9922 86.0985 45.9922 86.3699 45.8252 86.5377C45.7417 86.6217 45.6332 86.6636 45.5219 86.6636H45.5246ZM82.9613 82.3078C82.8528 82.3078 82.7415 82.2658 82.658 82.1819C82.491 82.014 82.491 81.7427 82.658 81.5748L83.3621 80.867C83.5819 80.646 83.7044 80.3495 83.7044 80.0361C83.7044 79.7228 83.5819 79.4263 83.3621 79.2053L83.273 79.1157C83.1061 78.9479 83.1061 78.6765 83.273 78.5087C83.44 78.3408 83.71 78.3408 83.8769 78.5087L83.966 78.5982C84.3501 78.9843 84.5588 79.4934 84.5588 80.0389C84.5588 80.5845 84.3473 81.0936 83.966 81.4797L83.2619 82.1875C83.1784 82.2714 83.0699 82.3134 82.9586 82.3134L82.9613 82.3078ZM40.5848 81.6951C40.4763 81.6951 40.365 81.6532 40.2815 81.5692L40.1869 81.4741C39.8028 81.0908 39.5941 80.5789 39.5941 80.0333C39.5941 79.4878 39.8056 78.9787 40.1869 78.5926L40.8854 77.8904C41.0524 77.7225 41.3223 77.7225 41.4893 77.8904C41.6563 78.0583 41.6563 78.3296 41.4893 78.4975L40.7908 79.1997C40.5709 79.4207 40.4485 79.7172 40.4485 80.0306C40.4485 80.3439 40.5709 80.6404 40.7908 80.8614L40.8854 80.9566C41.0524 81.1244 41.0524 81.3958 40.8854 81.5636C40.8019 81.6476 40.6934 81.6895 40.5821 81.6895L40.5848 81.6951ZM81.2025 76.8553C81.094 76.8553 80.9826 76.8133 80.8992 76.7294L78.3305 74.1472C78.1635 73.9794 78.1635 73.708 78.3305 73.5402C78.4974 73.3723 78.7674 73.3723 78.9344 73.5402L81.5031 76.1223C81.67 76.2902 81.67 76.5615 81.5031 76.7294C81.4196 76.8133 81.311 76.8553 81.1997 76.8553H81.2025ZM43.5571 76.2426C43.4485 76.2426 43.3372 76.2007 43.2537 76.1167C43.0867 75.9489 43.0867 75.6775 43.2537 75.5097L45.8224 72.9275C45.9894 72.7596 46.2593 72.7596 46.4263 72.9275C46.5933 73.0953 46.5933 73.3667 46.4263 73.5346L43.8576 76.1167C43.7741 76.2007 43.6656 76.2426 43.5543 76.2426H43.5571ZM76.2627 71.8868C76.1542 71.8868 76.0428 71.8448 75.9594 71.7609L73.3907 69.1787C73.2237 69.0109 73.2237 68.7395 73.3907 68.5716C73.5576 68.4038 73.8276 68.4038 73.9946 68.5716L76.5633 71.1538C76.7302 71.3217 76.7302 71.593 76.5633 71.7609C76.4798 71.8448 76.3712 71.8868 76.2599 71.8868H76.2627ZM48.4969 71.2769C48.3883 71.2769 48.277 71.2349 48.1935 71.151C48.0265 70.9832 48.0265 70.7118 48.1935 70.5439L50.7622 67.9618C50.9292 67.7939 51.1991 67.7939 51.3661 67.9618C51.5331 68.1296 51.5331 68.401 51.3661 68.5688L48.7974 71.151C48.7139 71.2349 48.6054 71.2769 48.4941 71.2769H48.4969ZM71.3229 66.9211C71.2144 66.9211 71.103 66.8791 71.0196 66.7952L68.4509 64.213C68.2839 64.0451 68.2839 63.7738 68.4509 63.6059C68.6178 63.4381 68.8878 63.4381 69.0548 63.6059L71.6235 66.1881C71.7904 66.356 71.7904 66.6273 71.6235 66.7952C71.54 66.8791 71.4314 66.9211 71.3201 66.9211H71.3229ZM53.4367 66.3112C53.3281 66.3112 53.2168 66.2692 53.1333 66.1853C52.9663 66.0174 52.9663 65.7461 53.1333 65.5782L55.702 62.996C55.869 62.8282 56.1389 62.8282 56.3059 62.996C56.4729 63.1639 56.4729 63.4353 56.3059 63.6031L53.7372 66.1853C53.6537 66.2692 53.5452 66.3112 53.4339 66.3112H53.4367ZM66.3831 61.9554C66.2746 61.9554 66.1632 61.9134 66.0798 61.8295L63.5111 59.2473C63.3441 59.0794 63.3441 58.8081 63.5111 58.6402C63.678 58.4724 63.948 58.4724 64.115 58.6402L66.6837 61.2224C66.8506 61.3902 66.8506 61.6616 66.6837 61.8295C66.6002 61.9134 66.4916 61.9554 66.3803 61.9554H66.3831ZM58.3792 61.3455C58.2707 61.3455 58.1594 61.3035 58.0759 61.2196C57.9089 61.0517 57.9089 60.7804 58.0759 60.6125L60.6446 58.0303C60.8116 57.8625 61.0899 57.8569 61.2568 58.0247C61.4238 58.1926 61.4294 58.4584 61.2624 58.6262L60.9591 58.3213L61.2596 58.6262L58.6798 61.2196C58.5963 61.3035 58.4878 61.3455 58.3765 61.3455H58.3792Z" fill="#FFF5E1"/>
<path d="M124.239 102.168C124.13 102.168 124.021 102.126 123.938 102.042C123.771 101.874 123.768 101.606 123.938 101.438L126.507 98.8555C126.674 98.6876 126.944 98.6876 127.111 98.8555C127.278 99.0234 127.278 99.2947 127.111 99.4626L124.547 102.039C124.464 102.123 124.353 102.168 124.241 102.168H124.239ZM121.38 101.561C121.272 101.561 121.161 101.519 121.077 101.435L118.508 98.8527C118.341 98.6849 118.341 98.4135 118.508 98.2456C118.675 98.0778 118.945 98.0778 119.112 98.2456L121.681 100.828C121.848 100.996 121.848 101.267 121.681 101.435C121.598 101.519 121.489 101.561 121.378 101.561H121.38ZM129.178 97.2049C129.07 97.2049 128.958 97.163 128.875 97.079C128.708 96.9112 128.708 96.6398 128.875 96.472L131.444 93.8898C131.611 93.7219 131.881 93.7219 132.048 93.8898C132.215 94.0576 132.215 94.329 132.048 94.4969L129.479 97.079C129.395 97.163 129.287 97.2049 129.176 97.2049H129.178ZM116.441 96.5951C116.332 96.5951 116.221 96.5531 116.137 96.4692L113.569 93.887C113.402 93.7191 113.402 93.4478 113.569 93.2799C113.736 93.1121 114.006 93.1121 114.173 93.2799L116.741 95.8621C116.908 96.0299 116.908 96.3013 116.741 96.4692C116.658 96.5531 116.549 96.5951 116.438 96.5951H116.441ZM134.118 92.2392C134.01 92.2392 133.898 92.1973 133.815 92.1133C133.648 91.9455 133.648 91.6741 133.815 91.5062L136.384 88.9241C136.55 88.7562 136.82 88.7562 136.987 88.9241C137.154 89.0919 137.154 89.3633 136.987 89.5312L134.419 92.1133C134.335 92.1973 134.227 92.2392 134.115 92.2392H134.118ZM111.501 91.6293C111.392 91.6293 111.281 91.5874 111.197 91.5034L108.629 88.9213C108.462 88.7534 108.462 88.4821 108.629 88.3142C108.796 88.1463 109.066 88.1463 109.233 88.3142L111.801 90.8964C111.968 91.0642 111.968 91.3356 111.801 91.5034C111.718 91.5874 111.609 91.6293 111.498 91.6293H111.501ZM139.058 87.2735C138.949 87.2735 138.838 87.2315 138.755 87.1476C138.588 86.9798 138.588 86.7084 138.755 86.5405L141.323 83.9584C141.49 83.7905 141.76 83.7905 141.927 83.9584C142.094 84.1262 142.094 84.3976 141.927 84.5654L139.359 87.1476C139.275 87.2315 139.166 87.2735 139.055 87.2735H139.058ZM106.561 86.6636C106.453 86.6636 106.341 86.6217 106.258 86.5377L103.689 83.9556C103.522 83.7877 103.522 83.5163 103.689 83.3485C103.856 83.1806 104.126 83.1806 104.293 83.3485L106.862 85.9307C107.029 86.0985 107.029 86.3699 106.862 86.5377C106.778 86.6217 106.67 86.6636 106.558 86.6636H106.561ZM143.998 82.3078C143.889 82.3078 143.778 82.2658 143.694 82.1819C143.527 82.014 143.527 81.7427 143.694 81.5748L144.398 80.867C144.618 80.646 144.741 80.3495 144.741 80.0361C144.741 79.7228 144.618 79.4263 144.398 79.2053L144.309 79.1157C144.142 78.9479 144.142 78.6765 144.309 78.5087C144.476 78.3408 144.746 78.3408 144.913 78.5087L145.002 78.5982C145.386 78.9843 145.595 79.4934 145.595 80.0389C145.595 80.5845 145.384 81.0936 145.002 81.4797L144.298 82.1875C144.215 82.2714 144.106 82.3134 143.995 82.3134L143.998 82.3078ZM101.621 81.6979C101.513 81.6979 101.401 81.6559 101.318 81.572L101.223 81.4769C100.839 81.0936 100.631 80.5817 100.631 80.0361C100.631 79.4906 100.842 78.9815 101.223 78.5954L101.922 77.8932C102.089 77.7253 102.359 77.7253 102.526 77.8932C102.693 78.0611 102.693 78.3324 102.526 78.5003L101.827 79.2025C101.607 79.4235 101.485 79.72 101.485 80.0333C101.485 80.3467 101.607 80.6432 101.827 80.8642L101.922 80.9594C102.089 81.1272 102.089 81.3986 101.922 81.5664C101.838 81.6504 101.73 81.6923 101.618 81.6923L101.621 81.6979ZM142.239 76.8553C142.13 76.8553 142.019 76.8133 141.936 76.7294L139.367 74.1472C139.2 73.9794 139.2 73.708 139.367 73.5402C139.534 73.3723 139.804 73.3723 139.971 73.5402L142.539 76.1223C142.706 76.2902 142.706 76.5615 142.539 76.7294C142.456 76.8133 142.347 76.8553 142.236 76.8553H142.239ZM104.593 76.2426C104.485 76.2426 104.374 76.2007 104.29 76.1167C104.123 75.9489 104.123 75.6775 104.29 75.5097L106.859 72.9275C107.026 72.7596 107.296 72.7596 107.463 72.9275C107.63 73.0953 107.63 73.3667 107.463 73.5346L104.894 76.1167C104.811 76.2007 104.702 76.2426 104.591 76.2426H104.593ZM137.299 71.8868C137.191 71.8868 137.079 71.8448 136.996 71.7609L134.427 69.1787C134.26 69.0109 134.26 68.7395 134.427 68.5716C134.594 68.4038 134.864 68.4038 135.031 68.5716L137.6 71.1538C137.767 71.3217 137.767 71.593 137.6 71.7609C137.516 71.8448 137.408 71.8868 137.296 71.8868H137.299ZM109.533 71.2769C109.425 71.2769 109.313 71.2349 109.23 71.151C109.063 70.9832 109.063 70.7118 109.23 70.5439L111.799 67.9618C111.966 67.7939 112.236 67.7939 112.403 67.9618C112.57 68.1296 112.57 68.401 112.403 68.5688L109.834 71.151C109.75 71.2349 109.642 71.2769 109.53 71.2769H109.533ZM132.359 66.9211C132.251 66.9211 132.139 66.8791 132.056 66.7952L129.487 64.213C129.32 64.0451 129.32 63.7738 129.487 63.6059C129.654 63.4381 129.924 63.4381 130.091 63.6059L132.66 66.1881C132.827 66.356 132.827 66.6273 132.66 66.7952C132.576 66.8791 132.468 66.9211 132.357 66.9211H132.359ZM114.473 66.3112C114.365 66.3112 114.253 66.2692 114.17 66.1853C114.003 66.0174 114.003 65.7461 114.17 65.5782L116.738 62.996C116.905 62.8282 117.175 62.8282 117.342 62.996C117.509 63.1639 117.509 63.4353 117.342 63.6031L114.774 66.1853C114.69 66.2692 114.582 66.3112 114.47 66.3112H114.473ZM127.42 61.9554C127.311 61.9554 127.2 61.9134 127.116 61.8295L124.547 59.2473C124.38 59.0794 124.38 58.8081 124.547 58.6402C124.714 58.4724 124.984 58.4724 125.151 58.6402L127.72 61.2224C127.887 61.3902 127.887 61.6616 127.72 61.8295C127.637 61.9134 127.528 61.9554 127.417 61.9554H127.42ZM119.413 61.3455C119.304 61.3455 119.193 61.3035 119.11 61.2196C118.943 61.0517 118.943 60.7804 119.11 60.6125L121.678 58.0303C121.845 57.8625 122.123 57.8569 122.29 58.0247C122.457 58.1926 122.463 58.4584 122.296 58.6262L121.993 58.3213L122.293 58.6262L119.713 61.2196C119.63 61.3035 119.521 61.3455 119.41 61.3455H119.413Z" fill="#FFF5E1"/>
<path d="M92.596 71.9567C92.0534 71.9567 91.5468 71.7441 91.1628 71.3608L90.4587 70.653C90.2917 70.4852 90.2917 70.2138 90.4587 70.046C90.6257 69.8781 90.8984 69.8781 91.0626 70.046L91.7667 70.7537C91.9866 70.9748 92.2816 71.0979 92.5932 71.0979C92.9049 71.0979 93.1999 70.9748 93.4198 70.7537L93.5089 70.6642C93.6758 70.4964 93.9458 70.4964 94.1128 70.6642C94.2797 70.8321 94.2797 71.1034 94.1128 71.2713L94.0237 71.3608C93.6424 71.7469 93.1331 71.9567 92.5905 71.9567H92.596ZM96.1861 69.0137C96.0775 69.0137 95.9662 68.9717 95.8827 68.8878C95.7158 68.7199 95.7158 68.4485 95.8827 68.2807L98.4514 65.6985C98.6184 65.5307 98.8884 65.5307 99.0553 65.6985C99.2223 65.8664 99.2223 66.1377 99.0553 66.3056L96.4866 68.8878C96.4031 68.9717 96.2946 69.0137 96.1833 69.0137H96.1861ZM88.3909 68.3954C88.2824 68.3954 88.1711 68.3534 88.0876 68.2695L85.5189 65.6873C85.3519 65.5195 85.3519 65.2481 85.5189 65.0802C85.6859 64.9124 85.9558 64.9124 86.1228 65.0802L88.6915 67.6624C88.8585 67.8303 88.8585 68.1016 88.6915 68.2695C88.608 68.3534 88.4995 68.3954 88.3882 68.3954H88.3909ZM101.126 64.0479C101.017 64.0479 100.906 64.006 100.823 63.922C100.656 63.7542 100.656 63.4828 100.823 63.315L103.391 60.7328C103.558 60.5649 103.828 60.5649 103.995 60.7328C104.162 60.9007 104.162 61.172 103.995 61.3399L101.426 63.922C101.343 64.006 101.234 64.0479 101.123 64.0479H101.126ZM83.4484 63.4297C83.3398 63.4297 83.2285 63.3877 83.145 63.3038L80.5763 60.7216C80.4093 60.5537 80.4093 60.2824 80.5763 60.1145C80.7433 59.9467 81.0132 59.9467 81.1802 60.1145L83.7489 62.6967C83.9159 62.8646 83.9159 63.1359 83.7489 63.3038C83.6654 63.3877 83.5569 63.4297 83.4456 63.4297H83.4484ZM106.066 59.0822C105.957 59.0822 105.846 59.0403 105.762 58.9563C105.595 58.7885 105.595 58.5171 105.762 58.3493L108.331 55.7671C108.498 55.5992 108.768 55.5992 108.935 55.7671C109.102 55.9349 109.102 56.2063 108.935 56.3742L106.366 58.9563C106.283 59.0403 106.174 59.0822 106.063 59.0822H106.066ZM78.5086 58.464C78.4 58.464 78.2887 58.422 78.2052 58.3381L75.6365 55.7559C75.4695 55.588 75.4695 55.3167 75.6365 55.1488C75.8035 54.981 76.0735 54.981 76.2404 55.1488L78.8091 57.731C78.9761 57.8988 78.9761 58.1702 78.8091 58.3381C78.7256 58.422 78.6171 58.464 78.5058 58.464H78.5086ZM111.005 54.1137C110.897 54.1137 110.786 54.0717 110.702 53.9878C110.535 53.82 110.535 53.5486 110.702 53.3807L113.271 50.7986C113.438 50.6307 113.708 50.6307 113.875 50.7986C114.042 50.9664 114.042 51.2378 113.875 51.4056L111.306 53.9878C111.223 54.0717 111.114 54.1137 111.003 54.1137H111.005ZM73.5688 53.4982C73.4602 53.4982 73.3489 53.4563 73.2654 53.3723L70.6856 50.779C70.5242 50.6055 70.5325 50.3342 70.7079 50.1719C70.8748 50.0152 71.1364 50.018 71.2979 50.1775C71.2979 50.1775 71.2979 50.1831 71.3006 50.1831L71.3062 50.1887L73.8693 52.7653C74.0363 52.9331 74.0363 53.2045 73.8693 53.3723C73.7858 53.4563 73.6773 53.4982 73.566 53.4982H73.5688ZM113.886 48.5297L114.195 48.2304L113.883 48.5269L111.312 45.942C111.145 45.7741 111.145 45.5027 111.312 45.3349C111.479 45.167 111.749 45.167 111.916 45.3349L114.484 47.9171L114.195 48.2332L113.886 48.5325V48.5297ZM71.6095 48.0457C71.501 48.0457 71.3897 48.0038 71.3062 47.9198C71.1392 47.752 71.1392 47.4806 71.3062 47.3128L73.8749 44.7306C74.0419 44.5627 74.3118 44.5627 74.4788 44.7306C74.6458 44.8985 74.6458 45.1698 74.4788 45.3377L71.9101 47.9198C71.8266 48.0038 71.7181 48.0457 71.6068 48.0457H71.6095ZM109.244 43.6843C109.135 43.6843 109.024 43.6423 108.94 43.5584L106.372 40.9762C106.205 40.8084 106.205 40.537 106.372 40.3692C106.539 40.2013 106.809 40.2013 106.976 40.3692L109.544 42.9513C109.711 43.1192 109.711 43.3906 109.544 43.5584C109.461 43.6423 109.352 43.6843 109.241 43.6843H109.244ZM76.5493 43.08C76.4408 43.08 76.3295 43.0381 76.246 42.9541C76.079 42.7863 76.079 42.5149 76.246 42.3471L78.8147 39.7649C78.9817 39.597 79.2516 39.597 79.4186 39.7649C79.5856 39.9327 79.5856 40.2041 79.4186 40.372L76.8499 42.9541C76.7664 43.0381 76.6579 43.08 76.5466 43.08H76.5493ZM104.301 38.7186C104.193 38.7186 104.081 38.6766 103.998 38.5927L101.429 36.0105C101.262 35.8427 101.262 35.5713 101.429 35.4035C101.596 35.2356 101.866 35.2356 102.033 35.4035L104.602 37.9856C104.769 38.1535 104.769 38.4248 104.602 38.5927C104.518 38.6766 104.41 38.7186 104.298 38.7186H104.301ZM81.4891 38.1115C81.3806 38.1115 81.2693 38.0696 81.1858 37.9856C81.0188 37.8178 81.0188 37.5464 81.1858 37.3785L83.7545 34.7964C83.9215 34.6285 84.1914 34.6285 84.3584 34.7964C84.5254 34.9642 84.5254 35.2356 84.3584 35.4035L81.7897 37.9856C81.7062 38.0696 81.5977 38.1115 81.4864 38.1115H81.4891ZM99.3615 33.7529C99.2529 33.7529 99.1416 33.7109 99.0581 33.627L96.4894 31.0448C96.3224 30.877 96.3224 30.6056 96.4894 30.4377C96.6564 30.2699 96.9263 30.2699 97.0933 30.4377L99.662 33.0199C99.829 33.1878 99.829 33.4591 99.662 33.627C99.5785 33.7109 99.47 33.7529 99.3587 33.7529H99.3615ZM86.4289 33.1458C86.3204 33.1458 86.2091 33.1038 86.1256 33.0199C85.9586 32.8521 85.9586 32.5807 86.1256 32.4128L88.6943 29.8307C88.8613 29.6628 89.1312 29.6628 89.2982 29.8307C89.4652 29.9985 89.4652 30.2699 89.2982 30.4377L86.7295 33.0199C86.646 33.1038 86.5375 33.1458 86.4262 33.1458H86.4289ZM94.4217 28.7872C94.3131 28.7872 94.2018 28.7452 94.1183 28.6613L93.4198 27.9591C93.1999 27.7381 92.9049 27.615 92.5932 27.615C92.2816 27.615 91.9866 27.7381 91.7667 27.9591L91.6721 28.057C91.5051 28.2248 91.2324 28.2248 91.0682 28.057C90.9012 27.8891 90.9012 27.6178 91.0682 27.4499L91.1628 27.3548C91.5441 26.9715 92.0534 26.7589 92.596 26.7589C93.1387 26.7589 93.6452 26.9715 94.0293 27.3548L94.7278 28.057C94.8948 28.2248 94.8948 28.4962 94.7278 28.6641C94.6443 28.748 94.5358 28.79 94.4244 28.79L94.4217 28.7872Z" fill="#5EAAA8"/>
<path d="M101.418 52.1162C101.41 52.0379 101.376 51.9596 101.318 51.9008L92.4653 43.0017L91.6331 42.1652C89.1535 39.6726 85.1349 39.6726 82.6552 42.1652C80.1756 44.6579 80.1756 48.6976 82.6552 51.1902L86.9327 55.4901L92.4152 61.0014C93.0218 61.6112 94.007 61.6112 94.6137 61.0014L94.6777 60.937C95.2232 60.3887 95.2761 59.5326 94.8391 58.9227C95.4458 59.3592 96.2974 59.306 96.8429 58.7577L96.9069 58.6933C97.3995 58.1982 97.3438 57.3001 97.0349 56.7099C97.6221 57.0176 98.5099 57.0791 99.0025 56.584L99.0665 56.5196C99.612 55.9713 99.6648 55.1152 99.2279 54.5054C99.8346 54.9446 100.725 54.8523 101.271 54.3039L101.335 54.2396C101.913 53.6577 101.939 52.7317 101.413 52.119L101.418 52.1162Z" fill="#FF6B6B"/>
<path d="M93.5144 61.6728C93.0413 61.6728 92.5988 61.4882 92.2649 61.1525L82.5049 51.3413C79.9474 48.7703 79.9474 44.5852 82.5049 42.0142C85.0625 39.4432 89.2258 39.4432 91.7834 42.0142L101.468 51.7498C101.543 51.8253 101.596 51.9204 101.618 52.0239C102.178 52.7233 102.125 53.75 101.49 54.3907L101.426 54.455C100.956 54.9278 100.28 55.1013 99.6759 54.9446C99.8429 55.5461 99.6843 56.2063 99.2223 56.6707L99.1583 56.7351C98.7158 57.1799 98.0062 57.2386 97.4078 57.0792C97.5664 57.6835 97.5052 58.3968 97.0599 58.8445L96.9959 58.9088C96.534 59.3732 95.88 59.5327 95.2816 59.3676C95.4458 59.9663 95.2872 60.6265 94.8252 61.0881L94.7612 61.1525C94.4272 61.4882 93.9847 61.6728 93.5116 61.6728H93.5144ZM87.1442 40.5147C85.5718 40.5147 84.0022 41.1162 82.8055 42.3191C81.6478 43.4829 81.0077 45.0328 81.0077 46.6805C81.0077 48.3283 81.645 49.8754 82.8055 51.042L92.5654 60.8531C92.8187 61.1077 93.1554 61.2476 93.5144 61.2476C93.8734 61.2476 94.2102 61.1077 94.4634 60.8531L94.5274 60.7888C94.995 60.3188 95.0534 59.5886 94.6666 59.0487L94.5608 58.9004L94.8169 58.643L94.9671 58.7465C95.5015 59.1354 96.2306 59.0767 96.6982 58.6067L96.7622 58.5423C97.1713 58.1311 97.1295 57.3394 96.854 56.8106L96.5367 56.2035L97.1406 56.5225C97.6666 56.7994 98.4542 56.8414 98.8605 56.4357L98.9245 56.3714C99.3921 55.9014 99.4505 55.1712 99.0637 54.6313L98.2984 53.5626L99.3615 54.3319C99.8791 54.7068 100.656 54.6285 101.129 54.1529L101.193 54.0886C101.685 53.5934 101.716 52.7877 101.259 52.2589L101.215 52.2086L101.209 52.1414C101.209 52.1163 101.198 52.0827 101.17 52.0547L91.4856 42.3191C90.2889 41.1162 88.7193 40.5147 87.1469 40.5147H87.1442Z" fill="#FFF5E1"/>
<path d="M102.534 42.1877C100.054 39.695 96.0358 39.695 93.5562 42.1877L89.6377 46.1267C92.0311 46.4987 94.3493 44.7586 94.931 44.2859C94.9783 44.2467 95.0228 44.2103 95.0701 44.1684C95.0701 44.1684 95.0228 44.2131 94.931 44.2859C94.6916 44.4901 94.4579 44.6747 94.2297 44.8426L101.549 52.2002L102.531 51.2127C105.011 48.72 105.011 44.6803 102.531 42.1877H102.534Z" fill="#FF6B6B"/>
<path d="M101.552 52.4995L94.1796 45.0887C93.1165 45.7741 91.3938 46.6106 89.6071 46.3337L89.1925 46.2693L93.4059 42.0338C95.9635 39.4628 100.127 39.4628 102.684 42.0338C105.242 44.6047 105.242 48.7899 102.684 51.3609L101.552 52.4995ZM94.5553 44.8621L101.552 51.8953L102.384 51.0588C104.774 48.6556 104.774 44.7418 102.384 42.3387C99.9932 39.9356 96.0998 39.9356 93.7092 42.3387L90.1081 45.9588C92.2315 46.0651 94.213 44.5964 94.7974 44.118L94.931 44.0061L95.2121 44.3278C95.2121 44.3278 95.162 44.3725 95.0673 44.4509C94.9004 44.5936 94.7278 44.7334 94.5553 44.8649V44.8621Z" fill="#FFF5E1"/>
<path d="M84.2484 53.7684L83.3668 52.8822C82.987 52.5004 82.985 51.8773 83.3668 51.4935L83.7269 51.1315C84.3507 50.5044 85.3642 50.5024 85.9899 51.1315C86.6138 51.7586 86.6157 52.7773 85.9899 53.4064L85.6298 53.7684C85.25 54.1502 84.6301 54.1522 84.2484 53.7684Z" fill="#FF6B6B"/>
<path d="M84.9373 54.2704C84.6339 54.2704 84.3278 54.1529 84.0968 53.9207L83.2146 53.0338C82.7499 52.5666 82.7499 51.8085 83.2146 51.3441L83.5736 50.9832C83.9159 50.6391 84.3695 50.4489 84.8538 50.4489C85.338 50.4489 85.7917 50.6391 86.134 50.9832C86.8408 51.6938 86.8408 52.8492 86.134 53.5598L85.775 53.9207C85.544 54.1529 85.2378 54.2704 84.9345 54.2704H84.9373ZM84.8566 50.8769C84.4864 50.8769 84.1386 51.0224 83.877 51.2853L83.518 51.6462C83.2202 51.9456 83.2202 52.4323 83.518 52.7317L84.4002 53.6185C84.6868 53.9067 85.1905 53.9095 85.48 53.6185L85.839 53.2576C86.3789 52.7149 86.3789 51.8309 85.839 51.2881C85.5774 51.0252 85.2295 50.8797 84.8594 50.8797L84.8566 50.8769Z" fill="#FFF5E1"/>
<path d="M86.5443 56.0772L85.6627 55.191C85.2829 54.8092 85.281 54.186 85.6627 53.8023L86.0228 53.4403C86.6467 52.8132 87.6601 52.8112 88.2859 53.4403C88.9097 54.0674 88.9117 55.0861 88.2859 55.7152L87.9258 56.0772C87.546 56.459 86.9261 56.461 86.5443 56.0772Z" fill="#FF6B6B"/>
<path d="M87.2332 56.5784C86.9299 56.5784 86.6238 56.4609 86.3928 56.2287L85.5106 55.3419C85.2851 55.1153 85.1627 54.8159 85.1627 54.497C85.1627 54.1781 85.2851 53.8787 85.5106 53.6521L85.8696 53.2912C86.2119 52.9471 86.6655 52.7569 87.1497 52.7569C87.634 52.7569 88.0876 52.9471 88.4299 53.2912C89.1368 54.0018 89.1368 55.1572 88.4299 55.8678L88.0709 56.2287C87.8399 56.4609 87.5338 56.5784 87.2304 56.5784H87.2332ZM87.1525 53.1849C86.7824 53.1849 86.4345 53.3304 86.1729 53.5934L85.8139 53.9543C85.6692 54.0997 85.5913 54.2928 85.5913 54.497C85.5913 54.7012 85.672 54.8943 85.8139 55.0397L86.6961 55.9266C86.9939 56.2259 87.4781 56.2259 87.7759 55.9266L88.1349 55.5657C88.6748 55.0229 88.6748 54.1389 88.1349 53.5962C87.8733 53.3332 87.5254 53.1877 87.1553 53.1877L87.1525 53.1849Z" fill="#FFF5E1"/>
<path d="M88.8634 58.4099L87.9818 57.5237C87.602 57.1419 87.6 56.5188 87.9818 56.135L88.3419 55.773C88.9657 55.1459 89.9792 55.1439 90.6049 55.773C91.2288 56.4001 91.2307 57.4188 90.6049 58.0479L90.2448 58.4099C89.865 58.7917 89.2452 58.7937 88.8634 58.4099Z" fill="#FF6B6B"/>
<path d="M89.5542 58.9115C89.2509 58.9115 88.9448 58.794 88.7138 58.5618L87.8316 57.675C87.6062 57.4484 87.4837 57.1491 87.4837 56.8301C87.4837 56.5112 87.6062 56.2119 87.8316 55.9853L88.1906 55.6244C88.5329 55.2803 88.9865 55.09 89.4708 55.09C89.955 55.09 90.4086 55.2803 90.7509 55.6244C91.4578 56.335 91.4578 57.4904 90.7509 58.2009L90.3919 58.5618C90.1609 58.794 89.8548 58.9115 89.5515 58.9115H89.5542ZM89.4735 55.5209C89.1034 55.5209 88.7555 55.6663 88.4939 55.9293L88.1349 56.2902C87.9902 56.4357 87.9123 56.6287 87.9123 56.8329C87.9123 57.0371 87.993 57.2302 88.1349 57.3757L89.0171 58.2625C89.3149 58.5618 89.7991 58.5618 90.0969 58.2625L90.4559 57.9016C90.9958 57.3589 90.9958 56.4748 90.4559 55.9321C90.1943 55.6691 89.8465 55.5237 89.4763 55.5237L89.4735 55.5209Z" fill="#FFF5E1"/>
<path d="M91.1788 60.7369L90.2972 59.8506C89.9174 59.4688 89.9154 58.8457 90.2972 58.4619L90.6573 58.0999C91.2811 57.4729 92.2946 57.4709 92.9204 58.0999C93.5442 58.727 93.5461 59.7458 92.9204 60.3749L92.5602 60.7369C92.1804 61.1187 91.5606 61.1206 91.1788 60.7369Z" fill="#FF6B6B"/>
<path d="M91.8669 61.2364C91.5496 61.2364 91.2519 61.1133 91.0264 60.8867L90.1442 59.9998C89.9188 59.7732 89.7964 59.4739 89.7964 59.155C89.7964 58.836 89.9188 58.5367 90.1442 58.3101L90.5032 57.9492C90.8455 57.6051 91.302 57.4149 91.7834 57.4149C92.2649 57.4149 92.7213 57.6051 93.0636 57.9492C93.4059 58.2933 93.5951 58.7493 93.5951 59.2361C93.5951 59.7229 93.4059 60.1789 93.0636 60.523L92.7046 60.8839C92.4792 61.1105 92.1814 61.2336 91.8641 61.2336L91.8669 61.2364ZM91.7862 57.8457C91.4161 57.8457 91.0682 57.9912 90.8066 58.2541L90.4476 58.615C90.3029 58.7605 90.2249 58.9535 90.2249 59.1578C90.2249 59.362 90.3056 59.555 90.4476 59.7005L91.3298 60.5873C91.6164 60.8755 92.1201 60.8783 92.4096 60.5873L92.7686 60.2264C93.0302 59.9635 93.1749 59.6138 93.1749 59.2417C93.1749 58.8696 93.0302 58.5199 92.7686 58.2569C92.507 57.994 92.1591 57.8485 91.789 57.8485L91.7862 57.8457Z" fill="#FFF5E1"/>
<path d="M94.996 49.9439L94.6949 50.2465L99.0832 54.6579L99.3843 54.3552L94.996 49.9439Z" fill="#FFF5E1"/>
<path d="M92.803 52.1468L92.5019 52.4495L96.8903 56.8608L97.1913 56.5582L92.803 52.1468Z" fill="#FFF5E1"/>
<path d="M90.608 54.3544L90.307 54.657L94.6953 59.0684L94.9964 58.7657L90.608 54.3544Z" fill="#FFF5E1"/>
</g>
<mask id="mask1_2116_1950" style="mask-type:luminance" maskUnits="userSpaceOnUse" x="36" y="95" width="113" height="66">
<path d="M148.771 95.0089H36.2323V160.07H148.771V95.0089Z" fill="white"/>
</mask>
<g mask="url(#mask1_2116_1950)">
<path d="M148.843 88.0373C149.319 87.0946 150.087 86.3252 151.022 85.8468C151.581 85.5587 152.149 85.1474 152.672 84.6243C153.916 83.3738 154.531 81.8603 154.32 80.814C154.217 80.302 154.217 79.7705 154.32 79.2585C154.531 78.2122 153.916 76.6987 152.672 75.4482C152.152 74.9251 151.584 74.511 151.022 74.2257C150.084 73.7473 149.319 72.9751 148.843 72.0352C148.556 71.4728 148.147 70.9021 147.627 70.3762C147.106 69.8502 146.539 69.439 145.976 69.1536C145.039 68.6753 144.273 67.9031 143.797 66.9631C143.511 66.4008 143.102 65.8301 142.581 65.3042C142.061 64.7782 141.493 64.367 140.931 64.0816C139.993 63.6032 139.228 62.8311 138.752 61.8911C138.465 61.3288 138.056 60.7581 137.536 60.2321C137.015 59.7062 136.447 59.295 135.885 59.0096C134.947 58.5312 134.182 57.7591 133.706 56.8191C133.42 56.2568 133.01 55.6861 132.49 55.1601C131.97 54.637 131.402 54.2229 130.84 53.9376C129.902 53.4592 129.137 52.6871 128.661 51.7471C128.374 51.1847 127.965 50.614 127.445 50.0881C126.924 49.5649 126.356 49.1509 125.794 48.8656C124.856 48.3872 124.091 47.615 123.615 46.675C123.328 46.1127 122.919 45.542 122.399 45.0161C121.879 44.4929 121.311 44.0789 120.749 43.7935C119.811 43.3151 119.045 42.543 118.57 41.603C118.283 41.0407 117.874 40.47 117.353 39.944C116.833 39.4181 116.265 39.0069 115.703 38.7215C114.765 38.2431 114 37.471 113.524 36.531C113.237 35.9687 112.828 35.398 112.308 34.872C111.787 34.3461 111.22 33.9348 110.658 33.6495C109.72 33.1711 108.954 32.399 108.478 31.459C108.192 30.8967 107.783 30.326 107.262 29.8C106.742 29.2741 106.174 28.8628 105.612 28.5775C104.674 28.0991 103.909 27.3269 103.433 26.387C103.146 25.8246 102.737 25.2539 102.217 24.728C101.696 24.202 101.129 23.7908 100.566 23.5054C99.6286 23.0271 98.8633 22.2549 98.3874 21.3149C98.1007 20.7526 97.6917 20.1819 97.1712 19.656C95.9272 18.4054 94.4216 17.7872 93.3808 17.9998C92.8715 18.1033 92.3428 18.1033 91.8335 17.9998C90.7926 17.7872 89.287 18.4054 88.043 19.656C87.5226 20.1791 87.1107 20.7498 86.8269 21.3149C86.351 22.2577 85.5829 23.0271 84.6478 23.5054C84.0884 23.7936 83.5207 24.2048 82.9975 24.728C82.4743 25.2511 82.0652 25.8218 81.7813 26.387C81.3054 27.3297 80.5373 28.0991 79.6022 28.5775C79.0429 28.8656 78.4751 29.2769 77.9519 29.8C77.4287 30.3232 77.0196 30.8939 76.7358 31.459C76.2599 32.4018 75.4918 33.1711 74.5567 33.6495C73.9973 33.9376 73.4296 34.3489 72.9064 34.872C72.386 35.3952 71.9741 35.9659 71.6902 36.531C71.2143 37.4738 70.4462 38.2431 69.5112 38.7215C68.9518 39.0097 68.384 39.4209 67.8608 39.944C67.3376 40.4672 66.9285 41.0379 66.6447 41.603C66.1688 42.5458 65.4007 43.3151 64.4656 43.7935C63.9062 44.0817 63.3385 44.4929 62.8153 45.0161C62.2949 45.5392 61.883 46.1099 61.5991 46.675C61.1232 47.6178 60.3551 48.3872 59.4201 48.8656C58.8607 49.1537 58.2929 49.5649 57.7697 50.0881C57.2465 50.6112 56.8374 51.182 56.5536 51.7471C56.0777 52.6898 55.3096 53.4592 54.3745 53.9376C53.8151 54.2257 53.2474 54.637 52.7242 55.1601C52.201 55.6833 51.7919 56.254 51.508 56.8191C51.0321 57.7619 50.264 58.5312 49.329 59.0096C48.7696 59.2977 48.2018 59.709 47.6786 60.2321C47.1554 60.7553 46.7463 61.326 46.4625 61.8911C45.9866 62.8339 45.2185 63.6032 44.2834 64.0816C43.724 64.3698 43.1563 64.781 42.6331 65.3042C42.1099 65.8273 41.7008 66.398 41.4169 66.9631C40.941 67.9059 40.1729 68.6753 39.2379 69.1536C38.6785 69.4418 38.1107 69.853 37.5875 70.3762C37.0643 70.8993 36.6552 71.47 36.3714 72.0352C35.8955 72.9779 35.1274 73.7473 34.1923 74.2257C33.6329 74.5138 33.0652 74.9251 32.542 75.4482C31.298 76.6987 30.683 78.2122 30.8945 79.2585C30.9974 79.7705 30.9974 80.302 30.8945 80.814C30.683 81.8603 31.298 83.3738 32.542 84.6243C33.0624 85.1474 33.6301 85.5615 34.1923 85.8468C35.1302 86.3252 35.8955 87.0974 36.3714 88.0373C36.658 88.5997 37.0671 89.1704 37.5875 89.6963C38.108 90.2223 38.6757 90.6335 39.2379 90.9189C40.1757 91.3972 40.941 92.1694 41.4169 93.1094C41.7036 93.6717 42.1127 94.2424 42.6331 94.7683C43.1535 95.2943 43.7212 95.7055 44.2834 95.9909C45.2213 96.4693 45.9866 97.2414 46.4625 98.1814C46.7491 98.7437 47.1582 99.3144 47.6786 99.8404C48.1991 100.366 48.7668 100.778 49.329 101.063C50.2668 101.541 51.0321 102.313 51.508 103.253C51.7947 103.816 52.2038 104.386 52.7242 104.912C53.2446 105.438 53.8123 105.85 54.3745 106.135C55.3124 106.613 56.0777 107.385 56.5536 108.325C56.8402 108.888 57.2493 109.458 57.7697 109.984C58.2902 110.51 58.8579 110.922 59.4201 111.207C60.3579 111.685 61.1232 112.457 61.5991 113.397C61.8858 113.96 62.2949 114.53 62.8153 115.056C63.3357 115.58 63.9034 115.994 64.4656 116.279C65.4035 116.757 66.1688 117.529 66.6447 118.469C66.9313 119.032 67.3404 119.603 67.8608 120.128C68.3813 120.654 68.949 121.066 69.5112 121.351C70.449 121.829 71.2143 122.602 71.6902 123.542C71.9769 124.104 72.386 124.675 72.9064 125.2C73.4268 125.726 73.9945 126.138 74.5567 126.423C75.4946 126.901 76.2599 127.674 76.7358 128.614C77.0224 129.176 77.4315 129.747 77.9519 130.272C78.4724 130.796 79.0401 131.21 79.6022 131.495C80.5401 131.973 81.3054 132.746 81.7813 133.686C82.068 134.248 82.4771 134.819 82.9975 135.345C83.5179 135.87 84.0856 136.282 84.6478 136.567C85.5857 137.045 86.351 137.818 86.8269 138.758C87.1135 139.32 87.5226 139.891 88.043 140.417C89.287 141.667 90.7926 142.285 91.8335 142.073C92.3428 141.969 92.8715 141.969 93.3808 142.073C94.4216 142.285 95.9272 141.667 97.1712 140.417C97.6917 139.893 98.1035 139.323 98.3874 138.758C98.8633 137.815 99.6314 137.045 100.566 136.567C101.126 136.279 101.694 135.868 102.217 135.345C102.74 134.821 103.149 134.251 103.433 133.686C103.909 132.743 104.677 131.973 105.612 131.495C106.171 131.207 106.739 130.796 107.262 130.272C107.786 129.749 108.195 129.179 108.478 128.614C108.954 127.671 109.722 126.901 110.658 126.423C111.217 126.135 111.785 125.724 112.308 125.2C112.831 124.677 113.24 124.107 113.524 123.542C114 122.599 114.768 121.829 115.703 121.351C116.262 121.063 116.83 120.652 117.353 120.128C117.874 119.605 118.286 119.035 118.57 118.469C119.045 117.527 119.814 116.757 120.749 116.279C121.308 115.991 121.876 115.58 122.399 115.056C122.922 114.533 123.331 113.963 123.615 113.397C124.091 112.455 124.859 111.685 125.794 111.207C126.354 110.919 126.921 110.508 127.445 109.984C127.965 109.461 128.377 108.891 128.661 108.325C129.137 107.383 129.905 106.613 130.84 106.135C131.399 105.847 131.967 105.436 132.49 104.912C133.01 104.389 133.422 103.819 133.706 103.253C134.182 102.311 134.95 101.541 135.885 101.063C136.445 100.775 137.012 100.364 137.536 99.8404C138.059 99.3172 138.468 98.7465 138.752 98.1814C139.228 97.2386 139.996 96.4693 140.931 95.9909C141.49 95.7027 142.058 95.2915 142.581 94.7683C143.102 94.2452 143.513 93.6745 143.797 93.1094C144.273 92.1666 145.041 91.3972 145.976 90.9189C146.536 90.6307 147.104 90.2195 147.627 89.6963C148.147 89.1732 148.559 88.6025 148.843 88.0373Z" fill="#FFD3B5"/>
<path d="M92.5926 80.0348L62.0749 110.713L92.5926 141.39L123.11 110.713L92.5926 80.0348Z" fill="#FFF5E1"/>
<path d="M92.596 142L92.2926 141.695L61.4711 110.712L61.7744 110.407L92.596 79.4236L123.718 110.709L123.415 111.014L92.5932 141.997L92.596 142ZM62.6817 110.712L92.596 140.78L122.508 110.712L92.596 80.6405L62.6817 110.712Z" fill="#FFD3B5"/>
<path d="M123.111 49.3558L92.5931 80.0336L123.111 110.711L153.628 80.0336L123.111 49.3558Z" fill="#5EAAA8"/>
<path d="M123.111 111.322L122.808 111.017L91.9865 80.0334L123.109 48.748L154.231 80.0334L153.927 80.3384L123.106 111.322H123.111ZM93.1999 80.0334L123.111 110.105L153.026 80.0334L123.114 49.965L93.1999 80.0334Z" fill="#FFD3B5"/>
<path d="M62.0764 49.3566L31.5587 80.0344L62.0764 110.712L92.5941 80.0344L62.0764 49.3566Z" fill="#5EAAA8"/>
<path d="M62.0778 111.322L30.9557 80.0363L62.0778 48.7509L93.1999 80.0363L92.8966 80.3413L62.075 111.325L62.0778 111.322ZM32.1635 80.0335L62.075 110.105L91.9893 80.0335L62.075 49.9651L32.1635 80.0335Z" fill="#FFD3B5"/>
<path d="M63.2021 102.168C63.0936 102.168 62.9823 102.126 62.9016 102.042C62.7346 101.874 62.7318 101.606 62.8988 101.438L65.4675 98.8556C65.6345 98.6878 65.9044 98.6878 66.0714 98.8556C66.2384 99.0235 66.2384 99.2948 66.0714 99.4627L63.5083 102.039C63.4248 102.123 63.3134 102.168 63.2021 102.168ZM60.344 101.561C60.2355 101.561 60.1241 101.519 60.0407 101.435L57.472 98.8528C57.305 98.685 57.305 98.4136 57.472 98.2458C57.6389 98.0779 57.9089 98.0779 58.0759 98.2458L60.6446 100.828C60.8115 100.996 60.8115 101.267 60.6446 101.435C60.5611 101.519 60.4525 101.561 60.3412 101.561H60.344ZM68.1419 97.2051C68.0334 97.2051 67.9221 97.1631 67.8386 97.0792C67.6716 96.9113 67.6716 96.6399 67.8386 96.4721L70.4073 93.8899C70.5742 93.7221 70.8442 93.7221 71.0112 93.8899C71.1782 94.0578 71.1782 94.3291 71.0112 94.497L68.4425 97.0792C68.359 97.1631 68.2505 97.2051 68.1391 97.2051H68.1419ZM55.4042 96.5952C55.2957 96.5952 55.1843 96.5532 55.1009 96.4693L52.5322 93.8871C52.3652 93.7193 52.3652 93.4479 52.5322 93.28C52.6991 93.1122 52.9691 93.1122 53.1361 93.28L55.7048 95.8622C55.8717 96.0301 55.8717 96.3014 55.7048 96.4693C55.6213 96.5532 55.5127 96.5952 55.4014 96.5952H55.4042ZM73.0817 92.2393C72.9732 92.2393 72.8619 92.1974 72.7784 92.1135C72.6114 91.9456 72.6114 91.6742 72.7784 91.5064L75.3471 88.9242C75.514 88.7563 75.784 88.7563 75.951 88.9242C76.118 89.0921 76.118 89.3634 75.951 89.5313L73.3823 92.1135C73.2988 92.1974 73.1903 92.2393 73.0789 92.2393H73.0817ZM50.4644 91.6295C50.3559 91.6295 50.2446 91.5875 50.1611 91.5036L47.5924 88.9214C47.4254 88.7535 47.4254 88.4822 47.5924 88.3143C47.7593 88.1465 48.0293 88.1465 48.1963 88.3143L50.765 90.8965C50.9319 91.0644 50.9319 91.3357 50.765 91.5036C50.6815 91.5875 50.5729 91.6295 50.4616 91.6295H50.4644ZM78.0215 87.2736C77.913 87.2736 77.8017 87.2317 77.7182 87.1477C77.5512 86.9799 77.5512 86.7085 77.7182 86.5407L80.2869 83.9585C80.4538 83.7906 80.7238 83.7906 80.8908 83.9585C81.0578 84.1263 81.0578 84.3977 80.8908 84.5656L78.3221 87.1477C78.2386 87.2317 78.1301 87.2736 78.0187 87.2736H78.0215ZM45.5246 86.6638C45.4161 86.6638 45.3048 86.6218 45.2213 86.5379L42.6526 83.9557C42.4856 83.7878 42.4856 83.5165 42.6526 83.3486C42.8195 83.1808 43.0895 83.1808 43.2565 83.3486L45.8252 85.9308C45.9922 86.0986 45.9922 86.37 45.8252 86.5379C45.7417 86.6218 45.6331 86.6638 45.5218 86.6638H45.5246ZM82.9613 82.3079C82.8528 82.3079 82.7415 82.2659 82.658 82.182C82.491 82.0142 82.491 81.7428 82.658 81.5749L83.3621 80.8672C83.5819 80.6461 83.7044 80.3496 83.7044 80.0363C83.7044 79.7229 83.5819 79.4264 83.3621 79.2054L83.273 79.1159C83.106 78.948 83.106 78.6766 83.273 78.5088C83.44 78.3409 83.7099 78.3409 83.8769 78.5088L83.966 78.5983C84.35 78.9844 84.5587 79.4935 84.5587 80.0391C84.5587 80.5846 84.3472 81.0938 83.966 81.4798L83.2619 82.1876C83.1784 82.2715 83.0699 82.3135 82.9585 82.3135L82.9613 82.3079ZM40.5848 81.6952C40.4763 81.6952 40.365 81.6533 40.2815 81.5693L40.1868 81.4742C39.8028 81.091 39.5941 80.579 39.5941 80.0335C39.5941 79.4879 39.8056 78.9788 40.1868 78.5927L40.8854 77.8905C41.0524 77.7227 41.3223 77.7227 41.4893 77.8905C41.6563 78.0584 41.6563 78.3297 41.4893 78.4976L40.7908 79.1998C40.5709 79.4208 40.4484 79.7173 40.4484 80.0307C40.4484 80.344 40.5709 80.6406 40.7908 80.8616L40.8854 80.9567C41.0524 81.1245 41.0524 81.3959 40.8854 81.5637C40.8019 81.6477 40.6933 81.6896 40.582 81.6896L40.5848 81.6952ZM81.2025 76.8554C81.0939 76.8554 80.9826 76.8134 80.8991 76.7295L78.3304 74.1474C78.1634 73.9795 78.1634 73.7081 78.3304 73.5403C78.4974 73.3724 78.7674 73.3724 78.9343 73.5403L81.503 76.1224C81.67 76.2903 81.67 76.5617 81.503 76.7295C81.4195 76.8134 81.311 76.8554 81.1997 76.8554H81.2025ZM43.557 76.2427C43.4485 76.2427 43.3372 76.2008 43.2537 76.1168C43.0867 75.949 43.0867 75.6776 43.2537 75.5098L45.8224 72.9276C45.9894 72.7597 46.2593 72.7597 46.4263 72.9276C46.5933 73.0955 46.5933 73.3668 46.4263 73.5347L43.8576 76.1168C43.7741 76.2008 43.6656 76.2427 43.5543 76.2427H43.557ZM76.2627 71.8869C76.1541 71.8869 76.0428 71.8449 75.9593 71.761L73.3906 69.1788C73.2237 69.011 73.2237 68.7396 73.3906 68.5718C73.5576 68.4039 73.8276 68.4039 73.9945 68.5718L76.5632 71.1539C76.7302 71.3218 76.7302 71.5932 76.5632 71.761C76.4797 71.8449 76.3712 71.8869 76.2599 71.8869H76.2627ZM48.4968 71.277C48.3883 71.277 48.277 71.2351 48.1935 71.1511C48.0265 70.9833 48.0265 70.7119 48.1935 70.5441L50.7622 67.9619C50.9292 67.794 51.1991 67.794 51.3661 67.9619C51.5331 68.1297 51.5331 68.4011 51.3661 68.569L48.7974 71.1511C48.7139 71.2351 48.6054 71.277 48.4941 71.277H48.4968ZM71.3229 66.9212C71.2143 66.9212 71.103 66.8792 71.0195 66.7953L68.4508 64.2131C68.2839 64.0453 68.2839 63.7739 68.4508 63.606C68.6178 63.4382 68.8878 63.4382 69.0547 63.606L71.6234 66.1882C71.7904 66.3561 71.7904 66.6274 71.6234 66.7953C71.5399 66.8792 71.4314 66.9212 71.3201 66.9212H71.3229ZM53.4366 66.3113C53.3281 66.3113 53.2168 66.2693 53.1333 66.1854C52.9663 66.0176 52.9663 65.7462 53.1333 65.5783L55.702 62.9962C55.869 62.8283 56.1389 62.8283 56.3059 62.9962C56.4729 63.164 56.4729 63.4354 56.3059 63.6033L53.7372 66.1854C53.6537 66.2693 53.5452 66.3113 53.4339 66.3113H53.4366ZM66.3831 61.9555C66.2745 61.9555 66.1632 61.9135 66.0797 61.8296L63.511 59.2474C63.3441 59.0796 63.3441 58.8082 63.511 58.6403C63.678 58.4725 63.948 58.4725 64.1149 58.6403L66.6836 61.2225C66.8506 61.3904 66.8506 61.6617 66.6836 61.8296C66.6001 61.9135 66.4916 61.9555 66.3803 61.9555H66.3831ZM58.3792 61.3456C58.2707 61.3456 58.1594 61.3036 58.0759 61.2197C57.9089 61.0519 57.9089 60.7805 58.0759 60.6126L60.6446 58.0305C60.8115 57.8626 61.0898 57.857 61.2568 58.0249C61.4238 58.1927 61.4294 58.4585 61.2624 58.6263L60.959 58.3214L61.2596 58.6263L58.6798 61.2197C58.5963 61.3036 58.4878 61.3456 58.3764 61.3456H58.3792Z" fill="#FFF5E1"/>
<path d="M124.239 102.168C124.13 102.168 124.021 102.126 123.938 102.042C123.771 101.874 123.768 101.606 123.938 101.438L126.507 98.8556C126.674 98.6878 126.944 98.6878 127.111 98.8556C127.278 99.0235 127.278 99.2948 127.111 99.4627L124.547 102.039C124.464 102.123 124.353 102.168 124.241 102.168H124.239ZM121.38 101.561C121.272 101.561 121.161 101.519 121.077 101.435L118.508 98.8528C118.341 98.685 118.341 98.4136 118.508 98.2458C118.675 98.0779 118.945 98.0779 119.112 98.2458L121.681 100.828C121.848 100.996 121.848 101.267 121.681 101.435C121.597 101.519 121.489 101.561 121.378 101.561H121.38ZM129.178 97.2051C129.07 97.2051 128.958 97.1631 128.875 97.0792C128.708 96.9113 128.708 96.6399 128.875 96.4721L131.444 93.8899C131.611 93.7221 131.881 93.7221 132.048 93.8899C132.215 94.0578 132.215 94.3291 132.048 94.497L129.479 97.0792C129.395 97.1631 129.287 97.2051 129.176 97.2051H129.178ZM116.441 96.5952C116.332 96.5952 116.221 96.5532 116.137 96.4693L113.569 93.8871C113.402 93.7193 113.402 93.4479 113.569 93.28C113.736 93.1122 114.006 93.1122 114.172 93.28L116.741 95.8622C116.908 96.0301 116.908 96.3014 116.741 96.4693C116.658 96.5532 116.549 96.5952 116.438 96.5952H116.441ZM134.118 92.2393C134.01 92.2393 133.898 92.1974 133.815 92.1135C133.648 91.9456 133.648 91.6742 133.815 91.5064L136.383 88.9242C136.55 88.7563 136.82 88.7563 136.987 88.9242C137.154 89.0921 137.154 89.3634 136.987 89.5313L134.419 92.1135C134.335 92.1974 134.227 92.2393 134.115 92.2393H134.118ZM111.501 91.6295C111.392 91.6295 111.281 91.5875 111.197 91.5036L108.629 88.9214C108.462 88.7535 108.462 88.4822 108.629 88.3143C108.796 88.1465 109.066 88.1465 109.233 88.3143L111.801 90.8965C111.968 91.0644 111.968 91.3357 111.801 91.5036C111.718 91.5875 111.609 91.6295 111.498 91.6295H111.501ZM139.058 87.2736C138.949 87.2736 138.838 87.2317 138.755 87.1477C138.588 86.9799 138.588 86.7085 138.755 86.5407L141.323 83.9585C141.49 83.7906 141.76 83.7906 141.927 83.9585C142.094 84.1263 142.094 84.3977 141.927 84.5656L139.358 87.1477C139.275 87.2317 139.166 87.2736 139.055 87.2736H139.058ZM106.561 86.6638C106.452 86.6638 106.341 86.6218 106.258 86.5379L103.689 83.9557C103.522 83.7878 103.522 83.5165 103.689 83.3486C103.856 83.1808 104.126 83.1808 104.293 83.3486L106.862 85.9308C107.029 86.0986 107.029 86.37 106.862 86.5379C106.778 86.6218 106.67 86.6638 106.558 86.6638H106.561ZM143.998 82.3079C143.889 82.3079 143.778 82.2659 143.694 82.182C143.527 82.0142 143.527 81.7428 143.694 81.5749L144.398 80.8672C144.618 80.6461 144.741 80.3496 144.741 80.0363C144.741 79.7229 144.618 79.4264 144.398 79.2054L144.309 79.1159C144.142 78.948 144.142 78.6766 144.309 78.5088C144.476 78.3409 144.746 78.3409 144.913 78.5088L145.002 78.5983C145.386 78.9844 145.595 79.4935 145.595 80.0391C145.595 80.5846 145.384 81.0938 145.002 81.4798L144.298 82.1876C144.215 82.2715 144.106 82.3135 143.995 82.3135L143.998 82.3079ZM101.621 81.698C101.513 81.698 101.401 81.6561 101.318 81.5721L101.223 81.477C100.839 81.0938 100.63 80.5818 100.63 80.0363C100.63 79.4907 100.842 78.9816 101.223 78.5955L101.922 77.8933C102.089 77.7255 102.359 77.7255 102.526 77.8933C102.693 78.0612 102.693 78.3325 102.526 78.5004L101.827 79.2026C101.607 79.4236 101.485 79.7201 101.485 80.0335C101.485 80.3468 101.607 80.6433 101.827 80.8644L101.922 80.9595C102.089 81.1273 102.089 81.3987 101.922 81.5665C101.838 81.6505 101.73 81.6924 101.618 81.6924L101.621 81.698ZM142.239 76.8554C142.13 76.8554 142.019 76.8134 141.936 76.7295L139.367 74.1474C139.2 73.9795 139.2 73.7081 139.367 73.5403C139.534 73.3724 139.804 73.3724 139.971 73.5403L142.539 76.1224C142.706 76.2903 142.706 76.5617 142.539 76.7295C142.456 76.8134 142.347 76.8554 142.236 76.8554H142.239ZM104.593 76.2427C104.485 76.2427 104.374 76.2008 104.29 76.1168C104.123 75.949 104.123 75.6776 104.29 75.5098L106.859 72.9276C107.026 72.7597 107.296 72.7597 107.463 72.9276C107.63 73.0955 107.63 73.3668 107.463 73.5347L104.894 76.1168C104.811 76.2008 104.702 76.2427 104.591 76.2427H104.593ZM137.299 71.8869C137.191 71.8869 137.079 71.8449 136.996 71.761L134.427 69.1788C134.26 69.011 134.26 68.7396 134.427 68.5718C134.594 68.4039 134.864 68.4039 135.031 68.5718L137.6 71.1539C137.767 71.3218 137.767 71.5932 137.6 71.761C137.516 71.8449 137.408 71.8869 137.296 71.8869H137.299ZM109.533 71.277C109.425 71.277 109.313 71.2351 109.23 71.1511C109.063 70.9833 109.063 70.7119 109.23 70.5441L111.799 67.9619C111.966 67.794 112.236 67.794 112.402 67.9619C112.569 68.1297 112.569 68.4011 112.402 68.569L109.834 71.1511C109.75 71.2351 109.642 71.277 109.53 71.277H109.533ZM132.359 66.9212C132.251 66.9212 132.139 66.8792 132.056 66.7953L129.487 64.2131C129.32 64.0453 129.32 63.7739 129.487 63.606C129.654 63.4382 129.924 63.4382 130.091 63.606L132.66 66.1882C132.827 66.3561 132.827 66.6274 132.66 66.7953C132.576 66.8792 132.468 66.9212 132.356 66.9212H132.359ZM114.473 66.3113C114.365 66.3113 114.253 66.2693 114.17 66.1854C114.003 66.0176 114.003 65.7462 114.17 65.5783L116.738 62.9962C116.905 62.8283 117.175 62.8283 117.342 62.9962C117.509 63.164 117.509 63.4354 117.342 63.6033L114.774 66.1854C114.69 66.2693 114.582 66.3113 114.47 66.3113H114.473ZM127.419 61.9555C127.311 61.9555 127.2 61.9135 127.116 61.8296L124.547 59.2474C124.38 59.0796 124.38 58.8082 124.547 58.6403C124.714 58.4725 124.984 58.4725 125.151 58.6403L127.72 61.2225C127.887 61.3904 127.887 61.6617 127.72 61.8296C127.637 61.9135 127.528 61.9555 127.417 61.9555H127.419ZM119.413 61.3456C119.304 61.3456 119.193 61.3036 119.109 61.2197C118.943 61.0519 118.943 60.7805 119.109 60.6126L121.678 58.0305C121.845 57.8626 122.123 57.857 122.29 58.0249C122.457 58.1927 122.463 58.4585 122.296 58.6263L121.993 58.3214L122.293 58.6263L119.713 61.2197C119.63 61.3036 119.521 61.3456 119.41 61.3456H119.413Z" fill="#FFF5E1"/>
<path d="M92.596 133.314C92.0561 133.314 91.5468 133.101 91.1627 132.718L90.4587 132.01C90.2917 131.842 90.2917 131.571 90.4587 131.403C90.6256 131.235 90.8956 131.235 91.0626 131.403L91.7667 132.111C91.9865 132.332 92.2815 132.455 92.5932 132.455C92.9049 132.455 93.1999 132.332 93.4198 132.111L93.5088 132.021C93.6758 131.853 93.9457 131.853 94.1127 132.021C94.2797 132.189 94.2797 132.46 94.1127 132.628L94.0237 132.718C93.6424 133.104 93.1331 133.314 92.5904 133.314H92.596ZM96.186 130.37C96.0775 130.37 95.9662 130.328 95.8827 130.245C95.7157 130.077 95.7157 129.805 95.8827 129.637L98.4514 127.055C98.6184 126.887 98.8883 126.887 99.0553 127.055C99.2223 127.223 99.2223 127.495 99.0553 127.662L96.4866 130.245C96.4031 130.328 96.2946 130.37 96.1833 130.37H96.186ZM88.3909 129.752C88.2824 129.752 88.171 129.71 88.0876 129.626L85.5189 127.044C85.3519 126.876 85.3519 126.605 85.5189 126.437C85.6858 126.269 85.9558 126.269 86.1228 126.437L88.6915 129.019C88.8584 129.187 88.8584 129.458 88.6915 129.626C88.608 129.71 88.4994 129.752 88.3881 129.752H88.3909ZM101.126 125.405C101.017 125.405 100.906 125.363 100.822 125.279C100.656 125.111 100.656 124.84 100.822 124.672L103.391 122.09C103.558 121.922 103.828 121.922 103.995 122.09C104.162 122.257 104.162 122.529 103.995 122.697L101.426 125.279C101.343 125.363 101.234 125.405 101.123 125.405H101.126ZM83.4511 124.786C83.3426 124.786 83.2312 124.745 83.1478 124.661L80.5791 122.078C80.4121 121.911 80.4121 121.639 80.5791 121.471C80.746 121.303 81.016 121.303 81.183 121.471L83.7517 124.054C83.9186 124.221 83.9186 124.493 83.7517 124.661C83.6682 124.745 83.5596 124.786 83.4483 124.786H83.4511ZM106.066 120.436C105.957 120.436 105.846 120.394 105.762 120.31C105.595 120.142 105.595 119.871 105.762 119.703L108.331 117.121C108.498 116.953 108.768 116.953 108.935 117.121C109.102 117.289 109.102 117.56 108.935 117.728L106.366 120.31C106.283 120.394 106.174 120.436 106.063 120.436H106.066ZM78.5085 119.821C78.4 119.821 78.2887 119.779 78.2052 119.695L75.6365 117.113C75.4695 116.945 75.4695 116.673 75.6365 116.506C75.8035 116.338 76.0734 116.338 76.2404 116.506L78.8091 119.088C78.9761 119.256 78.9761 119.527 78.8091 119.695C78.7256 119.779 78.6171 119.821 78.5057 119.821H78.5085ZM111.005 115.471C110.897 115.471 110.786 115.429 110.702 115.345C110.535 115.177 110.535 114.905 110.702 114.738L113.271 112.155C113.438 111.988 113.708 111.988 113.875 112.155C114.042 112.323 114.042 112.595 113.875 112.762L111.306 115.345C111.222 115.429 111.114 115.471 111.003 115.471H111.005ZM73.5687 114.855C73.4602 114.855 73.3489 114.813 73.2654 114.729L70.7023 112.153C70.5353 111.985 70.5325 111.711 70.6995 111.543C70.8665 111.375 71.1336 111.372 71.3006 111.543L73.8693 114.125C74.0363 114.293 74.0363 114.564 73.8693 114.732C73.7858 114.816 73.6773 114.858 73.5659 114.858L73.5687 114.855ZM114.186 110.015C114.081 110.015 113.975 109.976 113.891 109.892L111.312 107.299C111.145 107.131 111.145 106.86 111.312 106.692C111.479 106.524 111.748 106.524 111.915 106.692L114.484 109.274C114.651 109.442 114.657 109.719 114.49 109.889C114.403 109.976 114.295 110.018 114.184 110.018L114.186 110.015ZM71.6095 109.403C71.501 109.403 71.3897 109.361 71.3062 109.277C71.1392 109.109 71.1392 108.837 71.3062 108.67L73.8749 106.087C74.0418 105.92 74.3118 105.92 74.4788 106.087C74.6457 106.255 74.6457 106.527 74.4788 106.694L71.9101 109.277C71.8266 109.361 71.718 109.403 71.6067 109.403H71.6095ZM109.244 105.041C109.135 105.041 109.024 104.999 108.94 104.915L106.372 102.333C106.205 102.165 106.205 101.894 106.372 101.726C106.539 101.558 106.809 101.558 106.976 101.726L109.544 104.308C109.711 104.476 109.711 104.747 109.544 104.915C109.461 104.999 109.352 105.041 109.241 105.041H109.244ZM76.5493 104.437C76.4408 104.437 76.3294 104.395 76.246 104.311C76.079 104.143 76.079 103.872 76.246 103.704L78.8147 101.122C78.9816 100.954 79.2516 100.954 79.4186 101.122C79.5855 101.29 79.5855 101.561 79.4186 101.729L76.8499 104.311C76.7664 104.395 76.6578 104.437 76.5465 104.437H76.5493ZM104.301 100.075C104.193 100.075 104.081 100.033 103.998 99.9495L101.429 97.3673C101.262 97.1995 101.262 96.9281 101.429 96.7603C101.596 96.5924 101.866 96.5924 102.033 96.7603L104.602 99.3424C104.769 99.5103 104.769 99.7816 104.602 99.9495C104.518 100.033 104.41 100.075 104.298 100.075H104.301ZM81.4891 99.4711C81.3806 99.4711 81.2692 99.4291 81.1858 99.3452C81.0188 99.1774 81.0188 98.906 81.1858 98.7381L83.7544 96.156C83.9214 95.9881 84.1914 95.9881 84.3584 96.156C84.5253 96.3238 84.5253 96.5952 84.3584 96.7631L81.7897 99.3452C81.7062 99.4291 81.5976 99.4711 81.4863 99.4711H81.4891ZM99.3614 95.1097C99.2529 95.1097 99.1416 95.0677 99.0581 94.9838L96.4894 92.4016C96.3224 92.2338 96.3224 91.9624 96.4894 91.7945C96.6564 91.6267 96.9263 91.6267 97.0933 91.7945L99.662 94.3767C99.829 94.5446 99.829 94.8159 99.662 94.9838C99.5785 95.0677 99.47 95.1097 99.3586 95.1097H99.3614ZM86.4289 94.5026C86.3204 94.5026 86.209 94.4606 86.1256 94.3767C85.9586 94.2089 85.9586 93.9375 86.1256 93.7696L88.6942 91.1875C88.8612 91.0196 89.1312 91.0196 89.2982 91.1875C89.4651 91.3553 89.4651 91.6267 89.2982 91.7945L86.7295 94.3767C86.646 94.4606 86.5374 94.5026 86.4261 94.5026H86.4289ZM94.4216 90.144C94.3131 90.144 94.2018 90.102 94.1183 90.0181L93.4198 89.3159C93.1999 89.0949 92.9049 88.9718 92.5932 88.9718C92.2815 88.9718 91.9865 89.0949 91.7667 89.3159L91.672 89.411C91.5051 89.5789 91.2351 89.5789 91.0681 89.411C90.9011 89.2431 90.9011 88.9718 91.0681 88.8039L91.1627 88.7088C91.544 88.3227 92.0533 88.1129 92.596 88.1129C93.1387 88.1129 93.6452 88.3255 94.0292 88.7088L94.7278 89.411C94.8947 89.5789 94.8947 89.8502 94.7278 90.0181C94.6443 90.102 94.5357 90.144 94.4244 90.144H94.4216Z" fill="#5EAAA8"/>
<path d="M93.3558 99.4794L94.3493 99.0878C95.1981 98.7521 96.1666 99.0598 96.6675 99.8263L97.0265 100.375C97.3243 100.828 97.7974 101.136 98.329 101.222L99.0358 101.337C100.077 101.508 100.789 102.487 100.636 103.536C100.541 104.179 100.775 104.826 101.254 105.262L101.268 105.273C102.119 106.045 102.119 107.388 101.268 108.16L101.254 108.172C100.772 108.605 100.541 109.254 100.636 109.898C100.789 110.947 100.077 111.926 99.0358 112.097L98.329 112.211C97.7946 112.298 97.3243 112.606 97.0265 113.059L96.6675 113.607C96.1666 114.374 95.1981 114.682 94.3493 114.346L93.3558 113.954C92.9021 113.775 92.3984 113.775 91.9448 113.954L90.9513 114.346C90.1025 114.682 89.134 114.374 88.633 113.607L88.274 113.059C87.9763 112.606 87.5032 112.298 86.9716 112.211L86.2647 112.097C85.2239 111.926 84.5114 110.947 84.6645 109.898C84.7591 109.254 84.5254 108.608 84.0467 108.172L84.0328 108.16C83.1812 107.388 83.1812 106.045 84.0328 105.273L84.0467 105.262C84.5281 104.828 84.7591 104.179 84.6645 103.536C84.5114 102.487 85.2239 101.508 86.2647 101.337L86.9716 101.222C87.5059 101.136 87.9763 100.828 88.274 100.375L88.633 99.8263C89.134 99.0598 90.1025 98.7521 90.9513 99.0878L91.9448 99.4794C92.3984 99.6585 92.9021 99.6585 93.3558 99.4794Z" fill="#FF6B6B"/>
<path d="M89.6182 109.92C89.6182 109.92 92.8632 121.18 87.3529 125.111C87.3529 125.111 92.8214 123.939 93.2667 123.046C93.2667 123.046 95.1758 124.753 96.1554 125.111C96.1554 125.111 92.5988 121.18 95.7992 107.598C95.7992 107.598 92.8576 110.745 92.5904 112.891C92.5904 112.891 92.6433 113.316 89.621 109.92H89.6182Z" fill="#FF6B6B"/>
<path d="M96.8818 125.609L96.0775 125.315C95.2343 125.007 93.7788 123.779 93.2862 123.354C92.3177 124.233 88.2573 125.139 87.3946 125.324L86.3761 125.542L87.2249 124.937C92.5487 121.141 89.4401 110.094 89.4095 109.982L89.1479 109.072L89.7769 109.777C91.43 111.635 92.134 112.315 92.4263 112.561C92.9021 110.401 95.5237 107.576 95.6378 107.45L96.1888 106.859L96.0024 107.646C92.8771 120.915 96.2723 124.926 96.3085 124.965L96.879 125.606L96.8818 125.609ZM90.0385 110.712C90.2889 111.803 90.6841 113.817 90.7676 116.033C90.9123 119.963 90.0218 122.934 88.1822 124.703C90.3028 124.199 92.8326 123.432 93.0747 122.951L93.1999 122.699L93.4086 122.887C93.4226 122.901 94.5803 123.93 95.5265 124.537C94.6777 122.926 93.1804 118.372 95.3985 108.384C94.5497 109.397 93.0051 111.411 92.8075 112.894L92.8242 113.025L92.6712 113.107C92.507 113.182 92.3372 113.26 90.0412 110.717L90.0385 110.712Z" fill="#FFF5E1"/>
</g>
<defs>
<filter id="filter0_d_2116_1950" x="0.9" y="1.9" width="183.2" height="212.7" filterUnits="userSpaceOnUse" color-interpolation-filters="sRGB">
<feFlood flood-opacity="0" result="BackgroundImageFix"/>
<feColorMatrix in="SourceAlpha" type="matrix" values="0 0 0 0 0 0 0 0 0 0 0 0 0 0 0 0 0 0 127 0" result="hardAlpha"/>
<feOffset dy="6"/>
<feGaussianBlur stdDeviation="4.05"/>
<feComposite in2="hardAlpha" operator="out"/>
<feColorMatrix type="matrix" values="0 0 0 0 0 0 0 0 0 0 0 0 0 0 0 0 0 0 0.25 0"/>
<feBlend mode="normal" in2="BackgroundImageFix" result="effect1_dropShadow_2116_1950"/>
<feBlend mode="normal" in="SourceGraphic" in2="effect1_dropShadow_2116_1950" result="shape"/>
</filter>
</defs>
</svg>
