<svg width="39" height="40" viewBox="0 0 39 40" fill="none" xmlns="http://www.w3.org/2000/svg">
<g clip-path="url(#clip0_2116_330)">
<path d="M6.23444 13.9996C8.71444 18.8735 12.71 22.8518 17.5839 25.3491L21.3728 21.5602C21.8378 21.0952 22.5267 20.9402 23.1294 21.1468C25.0583 21.784 27.1422 22.1285 29.2778 22.1285C30.225 22.1285 31 22.9035 31 23.8507V29.8613C31 30.8085 30.225 31.5835 29.2778 31.5835C13.1061 31.5835 0 18.4774 0 2.30572C0 1.3585 0.775 0.583496 1.72222 0.583496H7.75C8.69722 0.583496 9.47222 1.3585 9.47222 2.30572C9.47222 4.4585 9.81667 6.52516 10.4539 8.45405C10.6433 9.05683 10.5056 9.7285 10.0233 10.2107L6.23444 13.9996Z" fill="white"/>
</g>
<defs>
<clipPath id="clip0_2116_330">
<rect width="39" height="39" fill="white" transform="translate(0 0.583496)"/>
</clipPath>
</defs>
</svg>
