<svg width="1512" height="28" viewBox="0 0 1512 28" fill="none" xmlns="http://www.w3.org/2000/svg">
<rect width="1512" height="28" fill="#FF6B6B"/>
<path d="M8 14.5H41" stroke="white" stroke-width="3" stroke-linecap="round"/>
<path d="M69 14.5H102" stroke="white" stroke-width="3" stroke-linecap="round"/>
<path d="M130 14.5H163" stroke="white" stroke-width="3" stroke-linecap="round"/>
<path d="M191 14.5H224" stroke="white" stroke-width="3" stroke-linecap="round"/>
<path d="M252 14.5H285" stroke="white" stroke-width="3" stroke-linecap="round"/>
<path d="M313 14.5H346" stroke="white" stroke-width="3" stroke-linecap="round"/>
<path d="M374 14.5H407" stroke="white" stroke-width="3" stroke-linecap="round"/>
<path d="M435 14.5H468" stroke="white" stroke-width="3" stroke-linecap="round"/>
<path d="M496 14.5H529" stroke="white" stroke-width="3" stroke-linecap="round"/>
<path d="M557 14.5H590" stroke="white" stroke-width="3" stroke-linecap="round"/>
<path d="M618 14.5H651" stroke="white" stroke-width="3" stroke-linecap="round"/>
<path d="M679 14.5H712" stroke="white" stroke-width="3" stroke-linecap="round"/>
<path d="M740 14.5H773" stroke="white" stroke-width="3" stroke-linecap="round"/>
<path d="M801 14.5H834" stroke="white" stroke-width="3" stroke-linecap="round"/>
<path d="M862 14.5H895" stroke="white" stroke-width="3" stroke-linecap="round"/>
<path d="M923 14.5H956" stroke="white" stroke-width="3" stroke-linecap="round"/>
<path d="M984 14.5H1017" stroke="white" stroke-width="3" stroke-linecap="round"/>
<path d="M1045 14.5H1078" stroke="white" stroke-width="3" stroke-linecap="round"/>
<path d="M1106 14.5H1139" stroke="white" stroke-width="3" stroke-linecap="round"/>
<path d="M1167 14.5H1200" stroke="white" stroke-width="3" stroke-linecap="round"/>
<path d="M1228 14.5H1261" stroke="white" stroke-width="3" stroke-linecap="round"/>
<path d="M1289 14.5H1322" stroke="white" stroke-width="3" stroke-linecap="round"/>
<path d="M1350 14.5H1383" stroke="white" stroke-width="3" stroke-linecap="round"/>
<path d="M1411 14.5H1444" stroke="white" stroke-width="3" stroke-linecap="round"/>
<path d="M1472 14.5H1505" stroke="white" stroke-width="3" stroke-linecap="round"/>
</svg>
